<svg xmlns="http://www.w3.org/2000/svg" xmlns:svg="http://www.w3.org/2000/svg" id="svg7" width="24" height="24" version="1.1"><metadata id="metadata11"/><defs id="defs3"><style id="current-color-scheme" type="text/css">.ColorScheme-Highlight{color:#16a085}</style></defs><path id="path5" fill="red" d="m 12,5 c -3.3137,0 -6,2.6863 -6,6 0,2.087 1.0708,3.9251 2.6875,5 L 8,16 c -2,0 -2,2 -2,2 l 0,1 12,0 0,-1 c 0,0 0,-2 -2,-2 l -0.6875,0 c 1.617,-1.075 2.688,-2.913 2.688,-5 0,-3.3137 -2.686,-6 -6,-6 z m 0,4.0039 a 2,2 0 0 1 2,2 2,2 0 0 1 -2,2 2,2 0 0 1 -2,-2 2,2 0 0 1 2,-2 z" class="ColorScheme-Highlight"/></svg>