<svg xmlns="http://www.w3.org/2000/svg" xmlns:svg="http://www.w3.org/2000/svg" id="svg9" width="24" height="24" version="1.1"><metadata id="metadata13"/><defs id="defs3"><style id="current-color-scheme" type="text/css">.ColorScheme-Text{color:#d3dae3}.ColorScheme-Highlight{color:#16a085}</style></defs><path id="path5" fill="currentColor" d="M 12,3.9999999 A 8,8 0 0 0 4,12 a 8,8 0 0 0 8,8 8,8 0 0 0 8,-8 8,8 0 0 0 -8,-8.0000001 z m -5,4 10,0 L 12,13 7,7.9999999 Z M 7,9.4140621 10.292969,12.707031 7,16 7,9.4140621 Z m 10,0 L 17,16 13.707031,12.707031 17,9.4140621 Z m -6,3.9999999 0.292969,0.292969 a 1.0001,1.0001 0 0 0 1.414062,0 L 13,13.414062 15.585938,16 8.4140625,16 11,13.414062 Z" class="ColorScheme-Text"/><circle id="circle7" cx="21" cy="19" r="2" fill="red" class="ColorScheme-Highlight"/></svg>