<svg xmlns="http://www.w3.org/2000/svg" width="24" height="24" version="1.1"><defs><style id="current-color-scheme" type="text/css">.ColorScheme-Text{color:#31363b}.ColorScheme-Highlight{color:#3daee9}</style></defs><path fill="currentColor" fill-rule="evenodd" d="m 19,13 c 0,-0.554 -0.446,-1 -1,-1 H 5 c -0.554,0 -1,0.446 -1,1 v 5 c 0,0.554 0.446,1 1,1 h 13 c 0.554,0 1,-0.446 1,-1 z m -3,0 v 1 h -1 v -1 z m 0,2 v 1 h -1 v -1 z m -1,2 v 1 H 8.0000002 v -1 z m -1,-4 v 1 h -1 v -1 z m 0,2 v 1 h -1 v -1 z m -2,-2 v 1 h -1 v -1 z m 0,2 v 1 h -1 v -1 z m -2,-2 v 1 H 9.0000002 v -1 z m 0,2 v 1 H 9.0000002 V 15 Z M 8.0000002,13 v 1 h -1 v -1 z m 0,2 v 1 h -1 v -1 z" class="ColorScheme-Text" opacity=".3"/><path fill="currentColor" d="m 11,5 v 4 h 2 V 5 Z m 0,5 v 1 h 2 v -1 z" class="ColorScheme-Highlight"/></svg>