<svg xmlns="http://www.w3.org/2000/svg" width="22" height="22" version="1.1"><defs><style id="current-color-scheme" type="text/css">.ColorScheme-Text{color:#31363b}</style></defs><g><path fill="currentColor" d="m171 627.37-4 4h4v-4zm-10 10-4 4h14v-4h-10z" class="ColorScheme-Text" opacity=".3" transform="translate(-153 -623.36)"/><path fill="currentColor" d="m159 632.37c-1.108 0-2 0.892-2 2s0.892 2 2 2 2-0.892 2-2-0.892-2-2-2zm5 0c-1.108 0-2 0.892-2 2s0.892 2 2 2 2-0.892 2-2-0.892-2-2-2zm5 0c-1.108 0-2 0.892-2 2s0.892 2 2 2 2-0.892 2-2-0.892-2-2-2z" class="ColorScheme-Text" transform="translate(-153 -623.36)"/></g></svg>