<svg xmlns="http://www.w3.org/2000/svg" xmlns:svg="http://www.w3.org/2000/svg" id="svg8" width="719.243" height="681.482" version="1.1" viewBox="0 0 190.3 180.309"><metadata id="metadata5"/><g id="layer1" transform="translate(-12.544004,-57.922972)"><path id="path21" fill="#5df" stroke="none" stroke-opacity="1" stroke-width=".262" d="M 200.14143,166.85831 A 94.831083,89.958327 11.422728 0 1 89.37279,236.25388 94.831083,89.958327 11.422728 0 1 14.235959,129.29645 94.831083,89.958327 11.422728 0 1 125.0046,59.900888 94.831083,89.958327 11.422728 0 1 200.14143,166.85831 Z"/><path id="path8217" fill="#000" fill-opacity="1" stroke="#000" stroke-linecap="butt" stroke-linejoin="miter" stroke-opacity="1" stroke-width=".337" d="m 57.480079,81.913596 4.701,31.702494 10.90744,-19.124515 12.289354,9.252975 14.478841,34.01343 20.926006,7.30825 2.9322,84.76626 10.75949,-44.37016 13.20487,24.49601 0.97814,-52.68952 26.40971,14.79004 L 108.4232,88.043909 C 107.85523,87.44326 78.164029,78.275528 77.169872,77.852766 Z"/></g></svg>