<svg xmlns="http://www.w3.org/2000/svg" xmlns:svg="http://www.w3.org/2000/svg" id="svg865" width="48" height="48" version="1.1"><metadata id="metadata870"/><g id="folderLayer"><g id="g3013" transform="translate(2.7863687,2.7863688)"><path id="rect3278" fill="#8c8c8c" fill-opacity="1" fill-rule="evenodd" stroke="none" d="m 13.826197,13.451819 0,26.557645 25.559981,0 0,-13.278823 -3.932305,0 0,9.737805 -17.695371,0 0,-19.475608 8.847685,0 0,-3.541019 z m 16.712295,0 0,9.737803 8.847686,0 0,-9.737803 z"/><path id="path3011" fill="#8c8c8c" fill-opacity="1" fill-rule="evenodd" stroke="none" d="m 3.0410846,2.4177985 0,29.6783785 26.5370764,0 0,-14.83919 -4.082628,0 0,10.882073 -18.3718214,0 0,-21.7641447 9.1859114,0 0,-3.9571168 z m 17.3511654,0 0,10.8820725 9.185911,0 0,-10.8820725 z"/></g></g></svg>