<svg xmlns="http://www.w3.org/2000/svg" xmlns:svg="http://www.w3.org/2000/svg" id="svg865" width="48" height="48" version="1.1"><metadata id="metadata870"/><g id="folderLayer"><g id="g3057" fill="#8c8c8c" fill-opacity="1" transform="matrix(0.75810482,0,0,0.8389353,-21.519484,-33.697157)"><path id="path3329" fill="#8c8c8c" fill-opacity="1" stroke="none" d="m -24.805994,19.567579 c 0,2.522597 -2.044969,4.567566 -4.567566,4.567566 -2.522597,0 -4.567566,-2.044969 -4.567566,-4.567566 0,-2.522597 2.044969,-4.567566 4.567566,-4.567566 2.522597,0 4.567566,2.044969 4.567566,4.567566 z" transform="matrix(1.283852,0,0,1.095473,107.77473,40.52972)"/><path id="path3428" fill="#8c8c8c" fill-opacity="1" stroke="none" d="m 70.139087,52.633633 c -5.873456,0 -10.653285,4.259161 -10.653285,9.531247 0,5.272086 4.779829,9.562499 10.653285,9.562499 5.873452,0 10.618465,-4.290413 10.618465,-9.562499 0,-5.272086 -4.745013,-9.531247 -10.618465,-9.531247 z m 0,3.21874 c 3.898016,0 7.032553,2.813598 7.032553,6.312507 0,3.498909 -3.134537,6.343759 -7.032553,6.343759 -3.898024,0 -7.067373,-2.84485 -7.067373,-6.343759 0,-3.498909 3.169349,-6.312507 7.067373,-6.312507 z"/><path id="path3435" fill="#8c8c8c" fill-opacity="1" stroke="none" d="m 59.525161,62.289888 -6.754038,8.999999 2.228137,1.999984 c 1.097688,0.511972 2.000275,1.299047 2.576282,2.281252 l 2.193324,1.968767 10.096242,-6.062491 -10.339947,-9.187511 z"/><path id="path4205" fill="#8c8c8c" fill-opacity="1" stroke="none" d="m -40.25,33.375 c 0,2.485281 -2.014719,4.5 -4.5,4.5 -2.485281,0 -4.5,-2.014719 -4.5,-4.5 0,-2.485281 2.014719,-4.5 4.5,-4.5 2.485281,0 4.5,2.014719 4.5,4.5 z" transform="matrix(0.98449261,0,0,0.97652563,97.184989,45.690193)"/><path id="path4207" fill="#8c8c8c" fill-opacity="1" stroke="none" d="m 52.21409,71.289922 c -4.1916,0 -7.589589,3.050043 -7.589589,6.812503 0,3.762425 3.397989,6.812468 7.589589,6.812468 4.191608,0 7.589589,-3.050043 7.589589,-6.812468 0,-3.76246 -3.397981,-6.812503 -7.589589,-6.812503 z m 0,1.37498 c 3.345601,0 6.057747,2.434465 6.057747,5.437523 0,3.003024 -2.712146,5.437488 -6.057747,5.437488 -3.3456,0 -6.057746,-2.434464 -6.057746,-5.437488 0,-3.003058 2.712146,-5.437523 6.057746,-5.437523 z"/><path id="rect3263-1" fill="#8c8c8c" fill-opacity="1" stroke="none" d="m 39.33005,67.660159 0,8.437499 12.523969,5.875015 c 0.05719,0.0248 0.12313,-0.0013 0.145949,-0.06236 l 2.656311,-7.062519 c 0.02268,-0.0613 -0.03012,-0.131811 -0.08759,-0.15626 L 39.330021,67.660265 z"/></g></g></svg>