<svg xmlns="http://www.w3.org/2000/svg" xmlns:svg="http://www.w3.org/2000/svg" id="svg865" width="48" height="48" version="1.1"><metadata id="metadata870"/><g id="folderLayer"><path id="path3272" fill="#8c8c8c" fill-opacity="1" fill-rule="evenodd" stroke="none" d="m 23.993991,7.8790812 c -4.028372,2.5e-4 -8.030122,1.7385862 -10.876506,4.7229268 -2.846384,2.984337 -4.5036631,7.177886 -4.5036631,11.397993 0,4.220105 1.6572791,8.413657 4.5036631,11.397993 2.846384,2.984335 6.848134,4.722674 10.876506,4.722925 4.028372,2.5e-4 8.032499,-1.736474 10.882515,-4.720828 C 37.726521,32.415738 39.386178,28.220576 39.386178,24 c 0,-4.220577 -1.659657,-8.415742 -4.509672,-11.400095 C 32.02649,9.6155558 28.022363,7.8788311 23.993991,7.8790812 z m 0,4.2989118 c 2.954138,-1.84e-4 5.891567,1.272852 7.98158,3.461378 2.090011,2.188528 3.307626,5.265538 3.307626,8.360629 0,3.09509 -1.217615,6.172102 -3.307626,8.360626 -2.090013,2.188525 -5.027442,3.461563 -7.98158,3.461381 -2.954142,-1.86e-4 -5.888221,-1.274966 -7.97557,-3.463478 C 13.931073,30.170012 12.716803,27.094743 12.716803,24 c 0,-3.094747 1.21427,-6.170016 3.301618,-8.35853 2.087349,-2.188512 5.021428,-3.463295 7.97557,-3.463477 z m -2.045482,2.149454 0,11.822008 2.051491,0 2.05149,0 7.180218,0 0,-4.298911 -7.180218,0 0,-7.523098 -4.102981,0 z"/></g></svg>