<svg xmlns="http://www.w3.org/2000/svg" xmlns:svg="http://www.w3.org/2000/svg" id="svg865" width="48" height="48" version="1.1"><metadata id="metadata870"/><g id="folderLayer"><path id="folderGlyph" fill="#8c8c8c" fill-opacity="1" fill-rule="evenodd" stroke="none" d="m 8.613822,7.879081 0,11.284643 0,1.612092 0,2.418138 0,1.612092 0,2.418138 0,1.612092 0,11.284643 19.232722,0 1.923272,0 9.616362,0 0,-32.241838 -9.616362,0 -1.923272,0 -19.2327219,0 z m 3.846544,3.224184 5.769818,0 0,8.060459 -5.769818,0 0,-8.060459 z m 7.69309,0 2.884907,0 0,8.060459 -2.884907,0 0,-8.060459 z m 4.808179,0 2.884909,0 0,8.060459 -2.884909,0 0,-8.060459 z m 4.808181,0 5.769818,0 0,8.060459 -5.769818,0 0,-8.060459 z m -17.30945,9.672551 5.769818,0 0,2.418138 -5.769818,0 0,-2.418138 z m 7.69309,0 2.884907,0 0,2.418138 -2.884907,0 0,-2.418138 z m 4.808179,0 2.884909,0 0,2.418138 -2.884909,0 0,-2.418138 z m 4.808181,0 5.769818,0 0,2.418138 -5.769818,0 0,-2.418138 z m -17.30945,4.03023 5.769818,0 0,2.418138 -5.769818,0 0,-2.418138 z m 7.69309,0 2.884907,0 0,2.418138 -2.884907,0 0,-2.418138 z m 4.808179,0 2.884909,0 0,2.418138 -2.884909,0 0,-2.418138 z m 4.808181,0 5.769818,0 0,2.418138 -5.769818,0 0,-2.418138 z m -17.30945,4.03023 5.769818,0 0,8.060459 -5.769818,0 0,-8.060459 z m 7.69309,0 2.884907,0 0,8.060459 -2.884907,0 0,-8.060459 z m 4.808179,0 2.884909,0 0,8.060459 -2.884909,0 0,-8.060459 z m 4.808181,0 5.769818,0 0,8.060459 -5.769818,0 0,-8.060459 z"/></g></svg>