<svg xmlns="http://www.w3.org/2000/svg" xmlns:svg="http://www.w3.org/2000/svg" id="svg865" width="48" height="48" version="1.1"><metadata id="metadata870"/><g id="folderLayer"><g id="g3064" fill="#1a1a1a" fill-opacity="1" transform="matrix(1.3334962,0,0,1.464601,-6.4337193,-17.171102)"><g id="g3061" fill="#1a1a1a" fill-opacity="1" transform="matrix(0.10026416,0.55208164,-0.55208164,0.10026416,38.099384,-2.9012983)"><path id="path3059" fill="#8c8c8c" fill-opacity="1" fill-rule="nonzero" stroke="none" stroke-width="1" d="m 41.009299,18.641437 -4.059599,0 -2.029799,-3.515715 2.0298,-3.515716 4.059598,10e-7 2.029799,3.515715 z" color="#000" display="inline" enable-background="accumulate" overflow="visible" visibility="visible" style="marker:none"/><path id="path3057" fill="#8c8c8c" fill-opacity="1" fill-rule="nonzero" stroke="none" stroke-width="1" d="m 41.921718,24.576328 c 0,1.071842 -0.8689,1.940742 -1.940742,1.940742 -1.071842,0 -1.940742,-0.8689 -1.940742,-1.940742 0,-1.071842 0.8689,-1.940742 1.940742,-1.940742 1.071842,0 1.940742,0.8689 1.940742,1.940742 z" color="#000" display="inline" enable-background="accumulate" overflow="visible" transform="translate(-1.0014763,-9.4506063)" visibility="visible" style="marker:none"/></g><g id="g3054" fill="#1a1a1a" fill-opacity="1" transform="matrix(0.60498501,0,0,0.60498501,15.41954,5.37064)"><g id="g3059" fill="#1a1a1a" fill-opacity="1" transform="matrix(-0.84575495,-0.00904111,0.00904111,-0.84575495,29.603082,74.204227)"><rect id="rect2921" width="8.94" height="11.75" x="-51.076" y="-23.349" fill="#8c8c8c" fill-opacity="1" stroke="none" transform="matrix(-0.7125326,-0.70163901,0.78951843,-0.61372686,0,0)"/><path id="path2917" fill="#8c8c8c" fill-opacity="1" stroke="none" d="m 4.6221198,60.534515 c 4.0162383,1.506439 8.8996952,0.939332 12.4390862,-1.81199 4.849116,-3.769428 5.357571,-10.195358 1.135666,-14.352716 C 13.974966,40.21245 6.6214508,39.89797 1.7723338,43.667398 c -3.539391,2.751322 -4.757791,6.927451 -3.520577,10.594147 l 6.516481,-5.065543 6.3703632,6.272969 -6.5164812,5.065544 z"/><path id="rect2928" fill="#8c8c8c" fill-opacity="1" stroke="none" d="m 25.30258,45.502513 c 0.692455,0.486618 1.657277,0.401863 2.871747,-0.50733 l 11.122705,-8.333265 0.776265,-0.585537 3.776237,-2.903296 c 2.940198,-2.243137 3.165438,-5.973652 0.476082,-8.37557 -2.689507,-2.401928 -7.236577,-2.529316 -10.176776,-0.28618 l -3.807895,2.871878 -0.744606,0.616955 -10.393952,7.894222 c -1.697953,1.296829 -0.9801,2.291619 -0.271758,3.024321 l 6.118368,6.332422 c 0.08867,0.09164 0.154354,0.181843 0.253277,0.251355 z m 1.149218,-5.123818 -2.247063,-2.230729 c -0.464877,-0.461449 -0.292173,-1.217101 0.397199,-1.736998 l 12.384822,-9.340579 c 0.689372,-0.519897 1.615101,-0.59255 2.079826,-0.131112 l 2.247061,2.230729 c 0.464725,0.461436 0.255231,1.244984 -0.434141,1.764882 l -12.384975,9.340566 c -0.689372,0.519899 -1.578005,0.564677 -2.042729,0.103241 z"/></g></g></g></g></svg>