<svg xmlns="http://www.w3.org/2000/svg" xmlns:svg="http://www.w3.org/2000/svg" id="svg865" width="48" height="48" version="1.1"><metadata id="metadata870"/><g id="folderLayer"><path id="folderGlyph-6" fill="#8c8c8c" fill-opacity="1" fill-rule="evenodd" stroke="none" d="m 23.996995,7.879081 c -4.431208,2.759e-4 -8.459393,4.224389 -8.459393,8.866505 0,2.039503 0.807839,3.973594 2.055498,5.528973 -1.657043,0.794571 -3.189598,1.873734 -4.477619,3.224184 -2.846383,2.984335 -4.501659,7.177885 -4.501659,11.397992 l 0,3.224184 12.308942,0 0,-3.224184 0,-3.224184 -3.077235,0 0,3.224184 -6.154471,0 c 0,-5.450887 3.819455,-10.502092 8.681771,-12.248119 0.276939,-1.082908 0.396676,-2.593045 0.396676,-3.523303 -1.275552,-1.061601 -2.154668,-2.665425 -2.154668,-4.379727 0,-2.954074 2.562298,-5.642145 5.382158,-5.642321 2.81986,-1.76e-4 5.388168,2.687918 5.388168,5.642321 0,1.713012 -0.879202,3.315011 -2.154668,4.376578 -0.0057,0.932197 0.112859,2.443293 0.390667,3.5296 4.863475,1.746945 8.687781,6.794933 8.687781,12.244971 l -6.154472,0 0,-3.224184 -3.077235,0 0,3.224184 0,3.224184 3.077235,0 5.697695,0 3.209459,0 0.324553,0 0,-3.224184 c 0,-4.220577 -1.66066,-8.413641 -4.510675,-11.397992 -1.288476,-1.34921 -2.818988,-2.426578 -4.474613,-3.221036 1.250553,-1.555952 2.061508,-3.490906 2.061508,-5.532121 0,-4.642634 -4.034194,-8.8667809 -8.465403,-8.866505 z"/></g></svg>