<svg xmlns="http://www.w3.org/2000/svg" xmlns:svg="http://www.w3.org/2000/svg" id="svg865" width="48" height="48" version="1.1"><metadata id="metadata870"/><g id="folderLayer"><g id="layer1" transform="matrix(0.09562271,0,0,0.09917241,-27.159201,-22.021367)"><g id="g4172" transform="matrix(2.460733,0,0,2.460733,-533.36734,-915.42835)"><path id="rect4151" fill="#107662" fill-opacity="1" stroke="none" d="m 65.71875,84.701172 c -4.431995,0 -8,3.568005 -8,8 v 9.999998 111 0.0488 c 0,4.4051 3.546075,7.95117 7.951172,7.95117 h 0.04883 61.999998 113.04883 c 4.40509,0 7.95117,-3.54607 7.95117,-7.95117 V 102.70114 c 0,-4.405095 -3.54608,-7.95117 -7.95117,-7.95117 H 135.71875 v -2.048828 c 0,-4.431995 -3.568,-8 -8,-8 H 65.718752 Z" transform="translate(282.28082,403.66119)"/><path id="rect4166" fill="#fff" fill-opacity="1" stroke="none" d="M 347.99512,522.17497 362.81259,507.3622 523,507.36221 v 49.7153 H 347.99512 Z"/><path id="rect4169" fill="#000" fill-opacity=".137" stroke="none" d="m 362.81277,507.3622 v 14.81277 H 348 Z"/><path id="rect4156" fill="#16a085" fill-opacity="1" stroke="none" d="m 144,112.88819 c -4.33969,0.0225 -7.52934,0.36085 -10.39035,3.49916 -2.86101,3.13831 -3.89047,6.50084 -8.89047,6.50084 -5,0 -59.00043,1.6e-4 -59.00043,1.6e-4 -4.432001,1e-5 -8,3.12199 -8,7 v 84.81282 c 0,3.87801 3.567999,7 8,7 h 71 103 1 c 4.432,0 8,-3.12199 8,-7 v -1 -83.81282 -9 c 0,-4.43201 -4.014,-7.99999 -9,-8 z" transform="translate(282.28082,403.66119)"/></g><path id="path3009" fill="#fff" fill-opacity="1" stroke="#000" stroke-dasharray="none" stroke-linecap="butt" stroke-linejoin="round" stroke-miterlimit="4" stroke-opacity=".032" stroke-width="0" d="m 441.30233,490.57945 90.5681,-86.17561 36.22724,32.31586 v -14.36261 h 18.11361 v 32.31586 l 36.22724,35.9065 H 604.3249 v 86.17561 h -45.28404 v -71.813 h -36.22724 v 71.813 h -63.39767 v -86.17561 z"/></g></g></svg>