<svg xmlns="http://www.w3.org/2000/svg" xmlns:svg="http://www.w3.org/2000/svg" id="svg865" width="48" height="48" version="1.1"><metadata id="metadata870"/><g id="folderLayer"><g id="g3824"><path id="path3070" fill="#8c8c8c" fill-opacity="1" stroke="none" d="m 11.026706,37.32867 c 0,0 3.685615,3.954104 7.908716,2.451544 4.2231,-1.502559 3.455264,-2.926037 3.455264,-2.926037 0,0 2.303509,2.056134 4.299884,2.767873 1.996375,0.711739 6.296259,0 5.835558,-3.242365 -0.460702,-3.242365 1.458889,3.084201 5.605206,3.558693 l -6.142692,-5.535745 c 0,0 -1.458889,2.767873 -2.994562,4.507678 -1.535673,1.739806 -6.424706,-4.873575 -7.755148,-2.214298 -1.35198,2.702327 -10.212226,0.632657 -10.212226,0.632657 z"/><path id="path3840" fill="#8c8c8c" fill-opacity="1" stroke="none" d="m 18.137489,30.837513 c 0,0 2.88934,3.954104 6.200042,2.451545 3.310702,-1.50256 2.708757,-2.926037 2.708757,-2.926037 0,0 1.805837,2.056134 3.370896,2.767873 1.56506,0.711738 4.935957,0 4.574789,-3.242365 -0.361167,-3.242366 1.143697,3.0842 4.394205,3.558693 l -4.815567,-5.535746 c 0,0 -1.143697,2.767873 -2.347589,4.507679 -1.203892,1.739806 -5.036652,-4.873575 -6.079653,-2.214298 -1.059886,2.702326 -8.00588,0.632656 -8.00588,0.632656 z"/><path id="path5-6" fill="#8c8c8c" fill-opacity="1" d="m 28.950093,17.272127 c 0.03554,-0.237718 0.05261,-0.479497 0.05261,-0.721233 0,-3.015848 -2.612597,-5.470694 -5.825393,-5.470694 -1.863124,0 -3.574014,0.826758 -4.657765,2.182422 -0.382564,-0.08685 -0.772229,-0.130912 -1.167627,-0.130912 -2.810298,0 -5.097219,2.147675 -5.097219,4.786858 0,0.0668 0.0014,0.132236 0.0043,0.197671 -2.106289,0.587672 -3.645148,2.422833 -3.645148,4.589185 0,2.639183 2.286922,4.786857 5.097219,4.786857 H 26.09 c 3.212795,0 5.825393,-2.45352 5.825393,-5.470693 0,-1.994068 -1.167628,-3.795807 -2.965307,-4.749461 z m -2.860087,8.852481 H 13.711047 c -2.011035,0 -3.64087,-1.53064 -3.64087,-3.419184 0,-1.888543 1.629881,-3.419183 3.64087,-3.419183 0.110956,0 0.216177,0.02137 0.324265,0.03073 -0.204799,-0.427398 -0.324265,-0.89886 -0.324265,-1.398403 0,-1.888586 1.629882,-3.419184 3.640871,-3.419184 0.657086,0 1.265794,0.176302 1.79768,0.462145 0.659907,-1.477215 2.214377,-2.513655 4.027712,-2.513655 2.413487,0 4.369045,1.836486 4.369045,4.103021 0,0.539589 -0.118055,1.052467 -0.319987,1.525297 1.858846,0.472788 3.232684,2.05151 3.232684,3.945396 0,2.266534 -1.955558,4.103021 -4.369046,4.103021 z"/><path id="path3842" fill="#8c8c8c" fill-opacity="1" d="m 37.796645,10.716249 c 0.01629,-0.108923 0.02411,-0.219708 0.02411,-0.330472 0,-1.3818755 -1.197103,-2.5066961 -2.66922,-2.5066961 -0.853691,0 -1.637629,0.3788242 -2.134208,0.9999954 -0.175293,-0.039795 -0.353839,-0.059985 -0.535012,-0.059985 -1.28769,0 -2.335567,0.9840741 -2.335567,2.1933583 0,0.03061 6.36e-4,0.06059 0.002,0.09057 -0.965111,0.269274 -1.670223,1.110153 -1.670223,2.102785 0,1.209284 1.047878,2.193358 2.335568,2.193358 h 5.672092 c 1.472116,0 2.66922,-1.124213 2.66922,-2.506695 0,-0.91369 -0.535012,-1.739255 -1.358717,-2.176223 z m -1.310504,4.056244 h -5.672092 c -0.921465,0 -1.668263,-0.701346 -1.668263,-1.566684 0,-0.865339 0.746819,-1.566685 1.668263,-1.566685 0.05084,0 0.09905,0.0098 0.14858,0.01408 -0.09384,-0.195835 -0.14858,-0.411862 -0.14858,-0.640754 0,-0.865358 0.746818,-1.5666846 1.668263,-1.5666846 0.30108,0 0.579992,0.080782 0.823704,0.2117567 0.302373,-0.6768662 1.014637,-1.1517674 1.845515,-1.1517674 1.10587,0 2.001915,0.8414861 2.001915,1.8800223 0,0.247241 -0.05409,0.482244 -0.146619,0.698897 0.851731,0.216633 1.481229,0.940011 1.481229,1.807797 0,1.038536 -0.896045,1.880022 -2.001915,1.880022 z"/></g></g></svg>