<svg xmlns="http://www.w3.org/2000/svg" xmlns:svg="http://www.w3.org/2000/svg" id="svg865" width="48" height="48" version="1.1"><metadata id="metadata870"/><g id="folderLayer"><g id="g3019" fill="#8c8c8c" fill-opacity="1" transform="matrix(1.6502952,0,0,1.5111052,-15.54554,-15.535771)"><path id="folderGlyph-6" fill="#8c8c8c" fill-opacity="1" fill-rule="evenodd" stroke="none" d="m 14.639419,15.495183 0,21.336594 4.190925,0 0,-0.662839 c 0,-0.19029 0.296813,-0.342849 0.668119,-0.342849 l 8.882937,0 c 0.371305,0 0.683303,0.152559 0.683303,0.342849 l 0,0.662839 4.221292,0 0,-21.336594 -4.221292,0 0,1.017116 c 0,0.19029 -0.311998,0.342848 -0.683303,0.342848 l -8.882937,0 c -0.371306,0 -0.668119,-0.152558 -0.668119,-0.342848 l 0,-1.017116 -4.190925,0 z m 4.160556,1.999948 10.234359,0 0,8.148362 -10.234359,0 0,-8.148362 z m -3.234302,0.125711 1.867696,0 0,2.137088 -1.867696,0 0,-2.137088 z m 14.926374,0 1.852509,0 0,2.137088 -1.852509,0 0,-2.137088 z m -14.926374,7.462666 1.867696,0 0,2.125659 -1.867696,0 0,-2.125659 z m 14.926374,0 1.852509,0 0,2.125659 -1.852509,0 0,-2.125659 z m -11.692072,2.022805 10.234359,0 0,8.148362 -10.234359,0 0,-8.148362 z m -3.234302,5.451288 1.867696,0 0,2.137089 -1.867696,0 0,-2.137089 z m 14.926374,0 1.852509,0 0,2.137089 -1.852509,0 0,-2.137089 z"/><rect id="rect3025" width="10.765" height="1.552" x="18.482" y="34.03" fill="#8c8c8c" fill-opacity="1" fill-rule="evenodd" stroke="none" rx="1.352" ry="0"/><rect id="rect3027" width="10.765" height="1.552" x="18.564" y="17.079" fill="#8c8c8c" fill-opacity="1" fill-rule="evenodd" stroke="none" rx="1.352" ry="0"/></g></g></svg>