<svg xmlns="http://www.w3.org/2000/svg" xmlns:svg="http://www.w3.org/2000/svg" id="svg17653" width="13" height="13" version="1.1"><metadata id="metadata17658"/><g id="layer1" transform="translate(0,-3)"><path id="path5513" fill="#b9beb3" fill-opacity="1" stroke="none" d="m 870.53682,617.14966 a 1.9003495,1.9003495 0 1 1 -3.80069,0 1.9003495,1.9003495 0 1 1 3.80069,0 z" display="inline" enable-background="new" transform="matrix(0.65777374,0,0,0.65777374,-560.57081,-392.19484)"/><path id="path5515" fill="#b9beb3" fill-opacity="1" stroke="none" d="m 870.53682,617.14966 a 1.9003495,1.9003495 0 1 1 -3.80069,0 1.9003495,1.9003495 0 1 1 3.80069,0 z" display="inline" enable-background="new" transform="matrix(0.65777374,0,0,0.65777374,-563.84354,-392.19484)"/><path id="path5517" fill="#b9beb3" fill-opacity="1" stroke="none" d="m 870.53682,617.14966 a 1.9003495,1.9003495 0 1 1 -3.80069,0 1.9003495,1.9003495 0 1 1 3.80069,0 z" display="inline" enable-background="new" transform="matrix(0.65777374,0,0,0.65777374,-560.57081,-395.46756)"/><path id="path5519" fill="#b9beb3" fill-opacity="1" stroke="none" d="m 870.53682,617.14966 a 1.9003495,1.9003495 0 1 1 -3.80069,0 1.9003495,1.9003495 0 1 1 3.80069,0 z" display="inline" enable-background="new" transform="matrix(0.65777374,0,0,0.65777374,-560.57081,-398.74029)"/><path id="path5521" fill="#b9beb3" fill-opacity="1" stroke="none" d="m 870.53682,617.14966 a 1.9003495,1.9003495 0 1 1 -3.80069,0 1.9003495,1.9003495 0 1 1 3.80069,0 z" display="inline" enable-background="new" transform="matrix(0.65777374,0,0,0.65777374,-567.11626,-392.19484)"/><path id="path5523" fill="#b9beb3" fill-opacity="1" stroke="none" d="m 870.53682,617.14966 a 1.9003495,1.9003495 0 1 1 -3.80069,0 1.9003495,1.9003495 0 1 1 3.80069,0 z" display="inline" enable-background="new" transform="matrix(0.65777374,0,0,0.65777374,-563.84354,-395.46756)"/></g></svg>