<svg xmlns="http://www.w3.org/2000/svg" xmlns:svg="http://www.w3.org/2000/svg" id="svg2" width="16" height="16" version="1.1"><metadata id="metadata7"/><g id="layer1" transform="translate(-671.14288,-648.57648)"><g id="g4090" transform="matrix(0.1265625,0,0,-0.1265625,672.07092,663.09636)"><g id="g4092" transform="scale(0.1,0.1)"><g id="g4195" transform="matrix(9.9999999,0,0,9.9999999,3.1284009,-0.36309974)"><g id="g4197" transform="scale(0.1,0.1)"><path id="path4199" fill="#b4b4b4" fill-opacity="1" fill-rule="evenodd" stroke="none" d="m 556.52327,-28.387679 c 293.53206,0 531.48703,237.950789 531.48703,531.486569 0,293.52709 -237.95497,531.48201 -531.48703,531.48201 -293.53081,0 -531.486296,-237.95492 -531.486296,-531.48201 0,-293.53578 237.955486,-531.486569 531.486296,-531.486569"/><path id="path4201" fill="#d4d4d4" fill-opacity="1" fill-rule="evenodd" stroke="none" d="m 556.52327,16.813632 c 268.56611,0 486.28523,217.715428 486.28523,486.285258 0,268.5599 -217.71912,486.28022 -486.28523,486.28022 -268.56486,0 -486.285011,-217.72032 -486.285011,-486.28022 0,-268.56983 217.720151,-486.285258 486.285011,-486.285258"/></g></g></g></g></g></svg>