<svg xmlns="http://www.w3.org/2000/svg" xmlns:svg="http://www.w3.org/2000/svg" id="svg3809" width="64" height="64" version="1.1"><defs id="defs3811"><linearGradient id="linearGradient3052"><stop id="stop3054" offset="0" stop-color="#555753"/><stop id="stop3056" offset="1" stop-color="#2e3436"/></linearGradient></defs><metadata id="metadata3814"/><g id="layer1" transform="translate(-736.85718,-157.93361)"><circle id="path4167" cx="768.857" cy="189.934" r="26" fill="#d24d57" fill-opacity="1"/><path id="rect4136" fill="#fff" fill-opacity="1" stroke="none" d="m 768.85718,175.93361 c -3.878,0 -7,3.122 -7,7 l 0,7 -3.5,0 0,1.75 0,12.25 1.75,0 17.5,0 1.75,0 0,-14 -1.75,0 -1.75,0 0,-7 c 0,-3.878 -3.122,-7 -7,-7 z m 0,1.75 c 2.9085,0 5.25,2.3415 5.25,5.25 l 0,7 -10.5,0 0,-7 c 0,-2.9085 2.3415,-5.25 5.25,-5.25 z" opacity="1"/></g></svg>