<svg xmlns="http://www.w3.org/2000/svg" xmlns:svg="http://www.w3.org/2000/svg" id="svg3809" width="64" height="64" version="1.1"><metadata id="metadata3814"/><g id="layer1" transform="translate(-736.85718,-157.93361)"><path id="rect4186-2-1" fill="#d24d57" fill-opacity="1" stroke="none" stroke-dasharray="none" stroke-linecap="square" stroke-miterlimit="4" stroke-opacity="1" stroke-width="2" d="M 32 6 C 25.66667 9.35447 19.33333 10.72491 13 12 L 13 37 C 13 44 23.26331 53.561337 32 57.998047 C 40.73669 53.561337 51 44 51 37 L 51 12 C 44.66667 10.72491 38.33333 9.35447 32 6 z" opacity="1" transform="translate(736.85718,157.93361)"/><path id="rect4168" fill="#fff" fill-opacity="1" stroke="none" d="m 779.44312,174.93361 1.41406,1.41406 -10.58594,10.58594 10.58594,10.58594 -1.41406,1.41406 -10.58594,-10.58594 -10.58594,10.58594 -1.41406,-1.41406 10.58594,-10.58594 -10.58594,-10.58594 1.41406,-1.41406 10.58594,10.58594 10.58594,-10.58594 z"/></g></svg>