<svg xmlns="http://www.w3.org/2000/svg" viewBox="0 0 48 48"><defs><linearGradient id="linearGradient3046" x2="0" y1="1" y2="47" gradientUnits="userSpaceOnUse"><stop stop-color="#e26878" stop-opacity="1"/><stop offset="1" stop-color="#df5769" stop-opacity="1"/></linearGradient></defs><g><path d="m 36.31 5 c 5.859 4.062 9.688 10.831 9.688 18.5 c 0 12.426 -10.07 22.5 -22.5 22.5 c -7.669 0 -14.438 -3.828 -18.5 -9.688 c 1.037 1.822 2.306 3.499 3.781 4.969 c 4.085 3.712 9.514 5.969 15.469 5.969 c 12.703 0 23 -10.298 23 -23 c 0 -5.954 -2.256 -11.384 -5.969 -15.469 c -1.469 -1.475 -3.147 -2.744 -4.969 -3.781 z m 4.969 3.781 c 3.854 4.113 6.219 9.637 6.219 15.719 c 0 12.703 -10.297 23 -23 23 c -6.081 0 -11.606 -2.364 -15.719 -6.219 c 4.16 4.144 9.883 6.719 16.219 6.719 c 12.703 0 23 -10.298 23 -23 c 0 -6.335 -2.575 -12.06 -6.719 -16.219 z" opacity=".05"/><path d="m 41.28 8.781 c 3.712 4.085 5.969 9.514 5.969 15.469 c 0 12.703 -10.297 23 -23 23 c -5.954 0 -11.384 -2.256 -15.469 -5.969 c 4.113 3.854 9.637 6.219 15.719 6.219 c 12.703 0 23 -10.298 23 -23 c 0 -6.081 -2.364 -11.606 -6.219 -15.719 z" opacity=".1"/><path d="m 31.25 2.375 c 8.615 3.154 14.75 11.417 14.75 21.13 c 0 12.426 -10.07 22.5 -22.5 22.5 c -9.708 0 -17.971 -6.135 -21.12 -14.75 a 23 23 0 0 0 44.875 -7 a 23 23 0 0 0 -16 -21.875 z" opacity=".2"/></g><g fill="#fea"><path fill="url(#linearGradient3046)" fill-opacity="1" d="m 24 1 c 12.703 0 23 10.297 23 23 c 0 12.703 -10.297 23 -23 23 -12.703 0 -23 -10.297 -23 -23 0 -12.703 10.297 -23 23 -23 z"/></g><g><path d="m 40.03 7.531 c 3.712 4.084 5.969 9.514 5.969 15.469 0 12.703 -10.297 23 -23 23 c -5.954 0 -11.384 -2.256 -15.469 -5.969 4.178 4.291 10.01 6.969 16.469 6.969 c 12.703 0 23 -10.298 23 -23 0 -6.462 -2.677 -12.291 -6.969 -16.469 z" opacity=".1"/></g><g><g><g><g opacity=".1"><g><path fill="#000" fill-opacity="1" fill-rule="evenodd" stroke="none" d="m 12 14.09 0 21.913 l 10.154 0 0.923 1.043 1.846 0 l 0.923 -1.043 10.154 0 l 0 -21.913 -10.154 0 -0.923 1.043 -1.846 0 -0.923 -1.043" transform="matrix(1.0833333,0,0,0.95833333,-2.083334,-0.45833296) translate(1,1)"/></g></g></g></g></g><g><g><g><g><g><g><path fill="#3e263b" fill-opacity="1" fill-rule="evenodd" stroke="none" d="m 22 36 -1 -1 -11 0 0 1 11 0 1 1 2 0 1 -1 c 4 0 11 0 11 0 l 0 -1 -11 0 -1 1" transform="translate(1,-2)"/><path fill="#969795" fill-opacity="1" fill-rule="evenodd" stroke="none" d="m 10 31 0 1 11 0 1 1 -12 0 0 1 11 0 1 1 2 0 1 -1 11 0 0 -1 -12 0 1 -1 11 0 0 -1 z" transform="translate(1,-2)"/><path fill="#f2f2f2" fill-opacity="1" fill-rule="evenodd" stroke="none" d="m 36 15 -11 0 -1 1 -2 0 -1 -1 -11 0 0 16 c 4 0 7 0 11 0 l 1 1 2 0 1 -1 c 4 0 7 0 11 0" transform="translate(1,-2)"/><path fill="#aeb2b7" fill-opacity=".471" fill-rule="evenodd" stroke="none" d="m 21 15 0 16 1 1 2 0 1 -1 c 0 -5.667 0 -10.333 0 -16 l -1 1 -2 0" transform="translate(1,-2)"/><path fill="#ddd8d8" fill-opacity="1" fill-rule="evenodd" stroke="none" d="m 10 34 0 1 11 0 1 1 2 0 1 -1 11 0 0 -1 -11 0 -1 1 -2 0 -1 -1 -11 0 z" transform="translate(1,-2)"/><path fill="#9bb5b9" fill-opacity=".688" fill-rule="evenodd" stroke="none" d="m 22 16 0 16 2 0 0 -16" transform="translate(1,-2)"/><path fill="#ddd8d8" fill-opacity="1" fill-rule="evenodd" stroke="none" d="m 10 32 0 1 11 0 1 1 2 0 1 -1 11 0 0 -1 -11 0 -1 1 -2 0 -1 -1 -11 0 z" transform="translate(1,-2)"/></g></g></g></g></g><rect width="9" height="1" x="27" y="16" fill="#ccc" fill-opacity="1" fill-rule="nonzero" stroke="none"/><rect width="9" height="1" x="27" y="22" fill="#ccc" fill-opacity="1" fill-rule="nonzero" stroke="none"/><rect width="6" height="6" x="12" y="13" fill="#c54444" fill-opacity="1" fill-rule="nonzero" stroke="none"/><g fill="#f2f2f2" fill-opacity="1" stroke="none"><path d="m 16.12 16.869 -1.505 0 -0.276 0.712 -1.024 0 1.447 -3.907 1.201 0 1.447 3.907 -1.024 0 m -1.495 -1.534 0.942 0 -0.471 -1.396" transform="scale(0.97672596,1.0238286)"/></g><rect width="9" height="1" x="12" y="20" fill="#ccc" fill-opacity="1" fill-rule="nonzero" stroke="none"/><rect width="9" height="1" x="12" y="22" fill="#ccc" fill-opacity="1" fill-rule="nonzero" stroke="none"/><rect width="9" height="1" x="12" y="24" fill="#ccc" fill-opacity="1" fill-rule="nonzero" stroke="none"/><rect width="9" height="1" x="12" y="26" fill="#ccc" fill-opacity="1" fill-rule="nonzero" stroke="none"/><rect width="9" height="1" x="27" y="26" fill="#ccc" fill-opacity="1" fill-rule="nonzero" stroke="none"/><rect width="9" height="1" x="27" y="24" fill="#ccc" fill-opacity="1" fill-rule="nonzero" stroke="none"/><rect width="9" height="1" x="27" y="20" fill="#ccc" fill-opacity="1" fill-rule="nonzero" stroke="none"/><rect width="9" height="1" x="27" y="18" fill="#ccc" fill-opacity="1" fill-rule="nonzero" stroke="none"/><path fill="#000" fill-opacity=".118" fill-rule="evenodd" stroke="none" d="m 29 13 0 11 1 -1 1 1 0 -11"/><path fill="#c54444" fill-opacity="1" fill-rule="evenodd" stroke="none" d="m 28 13 0 10 1 -1 1 1 0 -10"/></g></svg>