<svg xmlns="http://www.w3.org/2000/svg" id="svg2" version="1.1" viewBox="0 0 48 48"><metadata id="metadata53"/><defs id="defs4"><linearGradient id="linearGradient3764" x1="1" x2="47" gradientTransform="matrix(0 -1 1 0 -.0000015 48)" gradientUnits="userSpaceOnUse"><stop id="stop7" offset="0" stop-color="#89acdf"/><stop id="stop9" offset="1" stop-color="#99b7e3"/></linearGradient></defs><g id="g11"><path id="path13" d="m36.31 5c5.859 4.062 9.688 10.831 9.688 18.5 0 12.426-10.07 22.5-22.5 22.5-7.669 0-14.438-3.828-18.5-9.688 1.037 1.822 2.306 3.499 3.781 4.969 4.085 3.712 9.514 5.969 15.469 5.969 12.703 0 23-10.298 23-23 0-5.954-2.256-11.384-5.969-15.469-1.469-1.475-3.147-2.744-4.969-3.781zm4.969 3.781c3.854 4.113 6.219 9.637 6.219 15.719 0 12.703-10.297 23-23 23-6.081 0-11.606-2.364-15.719-6.219 4.16 4.144 9.883 6.719 16.219 6.719 12.703 0 23-10.298 23-23 0-6.335-2.575-12.06-6.719-16.219z" opacity=".05"/><path id="path15" d="m41.28 8.781c3.712 4.085 5.969 9.514 5.969 15.469 0 12.703-10.297 23-23 23-5.954 0-11.384-2.256-15.469-5.969 4.113 3.854 9.637 6.219 15.719 6.219 12.703 0 23-10.298 23-23 0-6.081-2.364-11.606-6.219-15.719z" opacity=".1"/><path id="path17" d="m31.25 2.375c8.615 3.154 14.75 11.417 14.75 21.13 0 12.426-10.07 22.5-22.5 22.5-9.708 0-17.971-6.135-21.12-14.75a23 23 0 0 0 44.875 -7 23 23 0 0 0 -16 -21.875z" opacity=".2"/></g><g id="g19"><path id="path21" fill="url(#linearGradient3764)" d="m24 1c12.703 0 23 10.297 23 23s-10.297 23-23 23-23-10.297-23-23 10.297-23 23-23z"/></g><path id="path4185" fill="#1a1a1a" d="m25 9c-8.2843-0.0047-15 6.7157-15 15s6.7157 15.004 15 15c4.7152-0.002 9.1533-2.2279 11.982-6h-2.6211c-2.4469 2.5505-5.8269 3.9982-9.3613 4-7.1797 0.0036-13-5.8203-13-13s5.8203-13.001 13-13c3.5392 0.000524 6.9248 1.4461 9.375 4h2.6016c-2.828-3.77-7.264-5.9973-11.977-6z" opacity=".6"/><g id="g23"><path id="path25" d="m40.03 7.531c3.712 4.084 5.969 9.514 5.969 15.469 0 12.703-10.297 23-23 23-5.954 0-11.384-2.256-15.469-5.969 4.178 4.291 10.01 6.969 16.469 6.969 12.703 0 23-10.298 23-23 0-6.462-2.677-12.291-6.969-16.469z" opacity=".1"/></g><g id="g29" opacity=".1" transform="matrix(3.3957 0 0 3.5433 2.4605 .99984)"><rect id="rect31" width="6.773" height="5.08" x="3.387" y="4.233" opacity="1"/></g><g id="g33" transform="matrix(3.5433 0 0 3.5433 -.039472 -.0001636)"><rect id="rect35" width="6.491" height="5.08" x="3.669" y="4.233" fill="#f9f9f9"/><path id="path37" fill="#f95" d="m9.878 6.209a1.27 1.27 0 0 1 -0.906 1.217 1.27 1.27 0 0 1 -1.425 -0.519 1.27 1.27 0 0 1 0.088 -1.514l0.973 0.816"/><path id="path39" fill="#fd5" d="m8.608 4.939a1.27 1.27 0 0 1 1.27 1.27h-1.27z"/><rect id="rect41" width=".564" height="3.669" x="4.233" y="5.08" fill="#fd5"/><rect id="rect43" width=".564" height="2.258" x="5.08" y="6.491" fill="#f95"/><rect id="rect45" width=".564" height="3.104" x="5.927" y="5.644" fill="#87aade"/><rect id="rect47" width=".564" height="1.129" x="6.773" y="7.62" fill="#f95"/><path id="path49" fill="#87aade" d="m7.635 5.393a1.27 1.27 0 0 1 0.973 -0.454v1.27z"/></g></svg>