<svg xmlns="http://www.w3.org/2000/svg" id="svg2" version="1.1" viewBox="0 0 48 48"><metadata id="metadata47"/><defs id="defs4"><linearGradient id="linearGradient3764" x1="1" x2="47" gradientTransform="matrix(0 -1 1 0 -.0000015 48)" gradientUnits="userSpaceOnUse"><stop id="stop7" offset="0" stop-color="#d1ccd8"/><stop id="stop9" offset="1" stop-color="#dbd7e1"/></linearGradient></defs><g id="g11"><path id="path13" d="m36.31 5c5.859 4.062 9.688 10.831 9.688 18.5 0 12.426-10.07 22.5-22.5 22.5-7.669 0-14.438-3.828-18.5-9.688 1.037 1.822 2.306 3.499 3.781 4.969 4.085 3.712 9.514 5.969 15.469 5.969 12.703 0 23-10.298 23-23 0-5.954-2.256-11.384-5.969-15.469-1.469-1.475-3.147-2.744-4.969-3.781zm4.969 3.781c3.854 4.113 6.219 9.637 6.219 15.719 0 12.703-10.297 23-23 23-6.081 0-11.606-2.364-15.719-6.219 4.16 4.144 9.883 6.719 16.219 6.719 12.703 0 23-10.298 23-23 0-6.335-2.575-12.06-6.719-16.219z" opacity=".05"/><path id="path15" d="m41.28 8.781c3.712 4.085 5.969 9.514 5.969 15.469 0 12.703-10.297 23-23 23-5.954 0-11.384-2.256-15.469-5.969 4.113 3.854 9.637 6.219 15.719 6.219 12.703 0 23-10.298 23-23 0-6.081-2.364-11.606-6.219-15.719z" opacity=".1"/><path id="path17" d="m31.25 2.375c8.615 3.154 14.75 11.417 14.75 21.13 0 12.426-10.07 22.5-22.5 22.5-9.708 0-17.971-6.135-21.12-14.75a23 23 0 0 0 44.875 -7 23 23 0 0 0 -16 -21.875z" opacity=".2"/></g><g id="g19"><path id="path21" fill="url(#linearGradient3764)" d="m24 1c12.703 0 23 10.297 23 23s-10.297 23-23 23-23-10.297-23-23 10.297-23 23-23z"/></g><path id="path4185" fill="#1a1a1a" d="m25 9c-8.2843-0.0047-15 6.7157-15 15s6.7157 15.004 15 15c4.7152-0.002 9.1533-2.2279 11.982-6h-2.6211c-2.4469 2.5505-5.8269 3.9982-9.3613 4-7.1797 0.0036-13-5.8203-13-13s5.8203-13.001 13-13c3.5392 0.000524 6.9248 1.4461 9.375 4h2.6016c-2.828-3.77-7.264-5.9973-11.977-6z" opacity=".6"/><g id="g23"><path id="path25" d="m40.03 7.531c3.712 4.084 5.969 9.514 5.969 15.469 0 12.703-10.297 23-23 23-5.954 0-11.384-2.256-15.469-5.969 4.178 4.291 10.01 6.969 16.469 6.969 12.703 0 23-10.298 23-23 0-6.462-2.677-12.291-6.969-16.469z" opacity=".1"/></g><g id="g29" transform="matrix(3.5433 0 0 3.5433 -.00049604 -.0001642)"><g id="g31"><g id="g33"><path id="path35" fill-opacity=".098" d="m4.233 3.951v6.209h5.927v-6.209h-5.927zm0.564 0.564a0.212 0.212 0 0 1 0.212 0.212 0.212 0.212 0 0 1 -0.212 0.212 0.212 0.212 0 0 1 -0.212 -0.212 0.212 0.212 0 0 1 0.212 -0.212m0 1.157a0.212 0.212 0 0 1 0.212 0.212 0.212 0.212 0 0 1 -0.212 0.212 0.212 0.212 0 0 1 -0.212 -0.212 0.212 0.212 0 0 1 0.212 -0.212m0 1.157a0.212 0.212 0 0 1 0.212 0.212 0.212 0.212 0 0 1 -0.212 0.212 0.212 0.212 0 0 1 -0.212 -0.212 0.212 0.212 0 0 1 0.212 -0.212m0 1.158a0.212 0.212 0 0 1 0.212 0.212 0.212 0.212 0 0 1 -0.212 0.212 0.212 0.212 0 0 1 -0.212 -0.212 0.212 0.212 0 0 1 0.212 -0.212m0 1.185a0.212 0.212 0 0 1 0.212 0.212 0.212 0.212 0 0 1 -0.212 0.212 0.212 0.212 0 0 1 -0.212 -0.212 0.212 0.212 0 0 1 0.212 -0.212"/><path id="path37" fill="#f9f9f9" d="m14 13v22h21v-22h-21zm2 2a0.75 0.75 0 0 1 0.75 0.75 0.75 0.75 0 0 1 -0.75 0.75 0.75 0.75 0 0 1 -0.75 -0.75 0.75 0.75 0 0 1 0.75 -0.75m0 4.1a0.75 0.75 0 0 1 0.75 0.75 0.75 0.75 0 0 1 -0.75 0.75 0.75 0.75 0 0 1 -0.75 -0.75 0.75 0.75 0 0 1 0.75 -0.75zm0 4.1a0.75 0.75 0 0 1 0.75 0.75 0.75 0.75 0 0 1 -0.75 0.75 0.75 0.75 0 0 1 -0.75 -0.75 0.75 0.75 0 0 1 0.75 -0.75zm0 4.102a0.75 0.75 0 0 1 0.75 0.75 0.75 0.75 0 0 1 -0.75 0.75 0.75 0.75 0 0 1 -0.75 -0.75 0.75 0.75 0 0 1 0.75 -0.75zm0 4.199a0.75 0.75 0 0 1 0.75 0.75 0.75 0.75 0 0 1 -0.75 0.75 0.75 0.75 0 0 1 -0.75 -0.75 0.75 0.75 0 0 1 0.75 -0.75" transform="scale(.28222)"/><path id="path39" fill="#87deaa" d="m6.773 5.644h1.129v2.258h-1.129z"/><path id="path41" fill="#999" fill-rule="evenodd" d="m18 16v16h16v-16h-16zm1 1h4v2h-4zm5 0h4v2h-4zm5 0h4v2h-4zm-10 3h4v2h-4zm5 0h4v2h-4zm5 0h4v2h-4zm-10 3h4v2h-4zm5 0h4v2h-4zm5 0h4v2h-4zm-10 3h4v2h-4zm5 0h4v2h-4zm5 0h4v2h-4zm-10 3h4v2h-4zm5 0h4v2h-4zm5 0h4v2h-4z" transform="scale(.28222)"/><path id="path43" fill="#87deaa" d="m5.362 5.644h1.129v0.564h-1.129z"/></g></g></g></svg>