<svg xmlns="http://www.w3.org/2000/svg" viewBox="0 0 48 48"><defs><linearGradient id="linearGradient4182" x2="0" y1="47" y2="1" gradientUnits="userSpaceOnUse"><stop stop-color="#c3e5f1" stop-opacity="1"/><stop offset="1" stop-color="#d3ecf5" stop-opacity="1"/></linearGradient></defs><g><path d="m 36.31 5 c 5.859 4.062 9.688 10.831 9.688 18.5 c 0 12.426 -10.07 22.5 -22.5 22.5 c -7.669 0 -14.438 -3.828 -18.5 -9.688 c 1.037 1.822 2.306 3.499 3.781 4.969 c 4.085 3.712 9.514 5.969 15.469 5.969 c 12.703 0 23 -10.298 23 -23 c 0 -5.954 -2.256 -11.384 -5.969 -15.469 c -1.469 -1.475 -3.147 -2.744 -4.969 -3.781 z m 4.969 3.781 c 3.854 4.113 6.219 9.637 6.219 15.719 c 0 12.703 -10.297 23 -23 23 c -6.081 0 -11.606 -2.364 -15.719 -6.219 c 4.16 4.144 9.883 6.719 16.219 6.719 c 12.703 0 23 -10.298 23 -23 c 0 -6.335 -2.575 -12.06 -6.719 -16.219 z" opacity=".05"/><path d="m 41.28 8.781 c 3.712 4.085 5.969 9.514 5.969 15.469 c 0 12.703 -10.297 23 -23 23 c -5.954 0 -11.384 -2.256 -15.469 -5.969 c 4.113 3.854 9.637 6.219 15.719 6.219 c 12.703 0 23 -10.298 23 -23 c 0 -6.081 -2.364 -11.606 -6.219 -15.719 z" opacity=".1"/><path d="m 31.25 2.375 c 8.615 3.154 14.75 11.417 14.75 21.13 c 0 12.426 -10.07 22.5 -22.5 22.5 c -9.708 0 -17.971 -6.135 -21.12 -14.75 a 23 23 0 0 0 44.875 -7 a 23 23 0 0 0 -16 -21.875 z" opacity=".2"/></g><g fill="#cce9f1" fill-opacity="1"><path fill="url(#linearGradient4182)" d="m 24 1 c 12.703 0 23 10.297 23 23 c 0 12.703 -10.297 23 -23 23 -12.703 0 -23 -10.297 -23 -23 0 -12.703 10.297 -23 23 -23 z"/></g><g><path d="m 40.03 7.531 c 3.712 4.084 5.969 9.514 5.969 15.469 0 12.703 -10.297 23 -23 23 c -5.954 0 -11.384 -2.256 -15.469 -5.969 4.178 4.291 10.01 6.969 16.469 6.969 c 12.703 0 23 -10.298 23 -23 0 -6.462 -2.677 -12.291 -6.969 -16.469 z" opacity=".1"/></g><g><path fill="#000" fill-opacity="1" fill-rule="nonzero" stroke="none" d="m 26 11 c -1.061 0 -1.979 0.866 -2.721 1.344 -1.346 1.019 -2.744 3.08 -3.266 4.619 -4.268 1.706 -7.01 5.432 -7.01 9.537 -0.004 5.799 5.373 10.5 12 10.5 6.627 0 12 -4.701 12 -10.5 -0.002 -4.094 -2.75 -7.787 -7 -9.5 1 -0.356 1.908 -1.252 2 -2 -1 -2 -2 -2 -4.158 -1.563 0.075 -0.168 0.172 -0.336 0.188 -0.531 c 0.137 -1.214 -1.092 -1.906 -2.029 -1.906" opacity=".1"/><path fill="#ace14d" fill-opacity="1" fill-rule="nonzero" stroke="none" d="m 25 10 c -1.061 0 -1.979 0.866 -2.721 1.344 -1.346 1.019 -2.744 3.08 -3.266 4.619 c -4.268 1.706 -7.01 5.432 -7.01 9.537 -0.004 5.799 5.373 10.5 12 10.5 6.627 0 12 -4.701 12 -10.5 -0.002 -4.094 -2.75 -7.787 -7 -9.5 c 1 -0.356 1.908 -1.252 2 -2 -1 -2 -2 -2 -4.158 -1.563 0.075 -0.168 0.172 -0.336 0.188 -0.531 c 0.137 -1.214 -1.092 -1.906 -2.029 -1.906"/><path fill="#353535" fill-opacity="1" stroke="none" d="m 19.95 24.05 -4.375 0.156 0.031 1 4.375 -0.156 -0.031 -1 z" color="#000" display="inline" visibility="visible"/><ellipse cx="29.694" cy="20.988" fill="#f9f9f9" fill-opacity="1" fill-rule="nonzero" stroke="none" rx="1.978" ry="3.01" transform="matrix(0.9943045,0.10657657,-0.12032336,0.99273475,0,0)"/><ellipse cx="30.19" cy="22.04" fill="#353535" fill-opacity="1" fill-rule="nonzero" stroke="none" rx="1.185" ry="1.512" transform="matrix(0.99603499,0.08896232,-0.14393993,0.98958643,0,0)"/><path fill="#e66200" fill-opacity="1" stroke="none" d="m 19.583 29.885 c 1.171 2.796 4.535 3.066 4.489 -0.683 z"/><path fill="#f7cf0f" fill-opacity="1" stroke="none" d="m 17.969 30.31 c 1.968 -1.513 3.66 -4.71 6.454 -1.158 -1.012 1.561 -4.01 1.077 -6.454 1.158 z"/></g></svg>