<svg xmlns="http://www.w3.org/2000/svg" version="1.1" viewBox="0 0 48 48"><defs><linearGradient id="linearGradient3844" x1="1" x2="47" gradientTransform="matrix(0,1,-1,0,48,0)" gradientUnits="userSpaceOnUse"><stop offset="0" stop-color="#3a3a3a"/><stop offset="1" stop-color="#303030"/></linearGradient></defs><path d="m36.31 5c5.859 4.062 9.688 10.831 9.688 18.5 0 12.426-10.07 22.5-22.5 22.5-7.669 0-14.438-3.828-18.5-9.688 1.037 1.822 2.306 3.499 3.781 4.969 4.085 3.712 9.514 5.969 15.469 5.969 12.703 0 23-10.298 23-23 0-5.954-2.256-11.384-5.969-15.469-1.469-1.475-3.147-2.744-4.969-3.781zm4.969 3.781c3.854 4.113 6.219 9.637 6.219 15.719 0 12.703-10.297 23-23 23-6.081 0-11.606-2.364-15.719-6.219 4.16 4.144 9.883 6.719 16.219 6.719 12.703 0 23-10.298 23-23 0-6.335-2.575-12.06-6.719-16.219z" opacity=".05"/><path d="m41.28 8.781c3.712 4.085 5.969 9.514 5.969 15.469 0 12.703-10.297 23-23 23-5.954 0-11.384-2.256-15.469-5.969 4.113 3.854 9.637 6.219 15.719 6.219 12.703 0 23-10.298 23-23 0-6.081-2.364-11.606-6.219-15.719z" opacity=".1"/><path d="m31.25 2.375c8.615 3.154 14.75 11.417 14.75 21.13 0 12.426-10.07 22.5-22.5 22.5-9.708 0-17.971-6.135-21.12-14.75a23 23 0 0 0 44.875 -7 23 23 0 0 0 -16 -21.875z" opacity=".2"/><path fill="url(#linearGradient3844)" d="m47 24c0 12.703-10.297 23-23 23s-23-10.297-23-23 10.297-23 23-23 23 10.297 23 23z"/><path fill-opacity=".098" d="m17.531 12-7.531 13 7.531 13h14.938l7.531-13-7.531-13m-9.406 10h3.938l1.719 3-1.781 3h-3.938l-1.719-3"/><path d="m40.03 7.531c3.712 4.084 5.969 9.514 5.969 15.469 0 12.703-10.297 23-23 23-5.954 0-11.384-2.256-15.469-5.969 4.178 4.291 10.01 6.969 16.469 6.969 12.703 0 23-10.298 23-23 0-6.462-2.677-12.291-6.969-16.469z" opacity=".1"/><path fill="#fdd835" d="m39 24-2.852 5-10.148-8h-4.001l0.137-10 12.212 5z"/><path fill="#fff59d" d="m26 21h5.555l4.596 8-4.696 8h-5.626l1.883-13z"/><path fill="#33ac71" d="m30.507 28.898-2.795-4.898l-1.711 3-12.349 5 2.875 5h9.305z"/><path fill="#c5e1a5" d="m9 24 2.852-5 10.148 8h4.001l-3 5h-9.349z"/><path fill="#db4437" d="m22 27h-5.66l-4.491-8 4.696-8h5.591l-1.868 12.997z"/><path fill="#eda29b" d="m17.434 19.11 2.834 4.887 4.732-8h9.348l-2.875-5h-9.367z"/></svg>