<svg xmlns="http://www.w3.org/2000/svg" xmlns:xlink="http://www.w3.org/1999/xlink" id="svg2" width="100%" height="100%" version="1.1" viewBox="0 0 48 48"><metadata id="metadata67"/><defs id="defs4"><linearGradient id="linearGradient3009" x1="1" y1="47" y2="1" gradientUnits="userSpaceOnUse"><stop id="stop3781" offset="0" stop-color="#ffeb97"/><stop id="stop3783" offset="1" stop-color="#ffeeab"/></linearGradient></defs><g id="g21"><path id="path23" d="m36.31 5c5.859 4.062 9.688 10.831 9.688 18.5 0 12.426-10.07 22.5-22.5 22.5-7.669 0-14.438-3.828-18.5-9.688 1.037 1.822 2.306 3.499 3.781 4.969 4.085 3.712 9.514 5.969 15.469 5.969 12.703 0 23-10.298 23-23 0-5.954-2.256-11.384-5.969-15.469-1.469-1.475-3.147-2.744-4.969-3.781zm4.969 3.781c3.854 4.113 6.219 9.637 6.219 15.719 0 12.703-10.297 23-23 23-6.081 0-11.606-2.364-15.719-6.219 4.16 4.144 9.883 6.719 16.219 6.719 12.703 0 23-10.298 23-23 0-6.335-2.575-12.06-6.719-16.219z" opacity=".05"/><path id="path25" d="m41.28 8.781c3.712 4.085 5.969 9.514 5.969 15.469 0 12.703-10.297 23-23 23-5.954 0-11.384-2.256-15.469-5.969 4.113 3.854 9.637 6.219 15.719 6.219 12.703 0 23-10.298 23-23 0-6.081-2.364-11.606-6.219-15.719z" opacity=".1"/><path id="path27" d="m31.25 2.375c8.615 3.154 14.75 11.417 14.75 21.13 0 12.426-10.07 22.5-22.5 22.5-9.708 0-17.971-6.135-21.12-14.75a23 23 0 0 0 44.875 -7 23 23 0 0 0 -16 -21.875z" opacity=".2"/></g><path id="path31" fill="url(#linearGradient3009)" d="m24 1c12.703 0 23 10.297 23 23s-10.297 23-23 23-23-10.297-23-23 10.297-23 23-23z"/><g id="g61"><path id="path63" d="m40.03 7.531c3.712 4.084 5.969 9.514 5.969 15.469 0 12.703-10.297 23-23 23-5.954 0-11.384-2.256-15.469-5.969 4.178 4.291 10.01 6.969 16.469 6.969 12.703 0 23-10.298 23-23 0-6.462-2.677-12.291-6.969-16.469z" opacity=".1"/></g><g id="g4178" fill="#1a1a1a" opacity=".1" transform="translate(.99960 1)"><g id="g4180" fill="#1a1a1a" transform="matrix(.87536 0 0 .87536 1.2084 3.9885)"><g id="g4182" fill="#1a1a1a" transform="translate(2.0706 -1.1424)"><path id="path4184" fill="#1a1a1a" fill-rule="evenodd" d="m12.923 17.18c-2.3775-0.02234-2.4703 2.4372-2.1394 3.45l2.4062 7.3636c0.42605 1.3038 1.1029 3.007 3.7969 3.0165h13.969c2.8407 0 3.3708-1.7127 3.7969-3.0165l2.4062-7.3636c0.348-1.065-0.367-3.425-2.796-3.248l-10.695-0.101z"/><path style="isolation:auto;text-decoration-color:#000;text-decoration-line:none;block-progression:tb;text-decoration-style:solid;text-indent:0;white-space:normal;text-transform:none;solid-color:#000;mix-blend-mode:normal" id="path4186" fill="#1a1a1a" fill-rule="evenodd" d="m13.377 16.006c-1.3981 0-2.4839 0.46735-3.0996 1.2453-0.6157 0.77797-0.67229 1.7385-0.44531 2.5409l2.4062 8.5062c0.19412 0.68622 0.53444 1.5874 1.2715 2.3649 0.73705 0.77757 1.9151 1.3307 3.4746 1.3362h13.971c1.6233 0 2.8184-0.54985 3.5449-1.3439 0.72654-0.79409 1.0183-1.7037 1.2031-2.3572l2.4062-8.5062c0.22609-0.79925 0.20507-1.7757-0.41602-2.5603-0.62108-0.78452-1.667-1.226-3.1289-1.226h-10.594zm0 2.2848h10.594 10.594c1.207 0 1.8549-0.07637 1.6426 0.89041l-2.4062 8.5062c-0.18851 0.66639-0.428 1.2496-0.7832 1.6379-0.3552 0.38823-0.84542 0.36302-2.0625 0.38957h-13.965-0.0039c-1.1309-0.0049-1.6387-0.0033-2.0195-0.40504-0.38139-0.40236-0.64693-0.98876-0.82617-1.6224l-2.4062-8.5062c-0.25008-1.0277 0.90344-0.88862 1.6426-0.89041z" color="#000" color-rendering="auto" image-rendering="auto" opacity="1" shape-rendering="auto"/><g id="g4189" fill="#1a1a1a" transform="translate(76.932 -24.288)"><circle id="circle4191" cx="-62.105" cy="46.006" r="1.142" fill="#1a1a1a" opacity="1"/><circle id="circle4193" cx="-57.535" cy="46.006" r="1.142" fill="#1a1a1a" opacity="1"/><circle id="circle4195" cx="-52.965" cy="46.006" r="1.142" fill="#1a1a1a" opacity="1"/><circle id="circle4197" cx="-48.396" cy="46.006" r="1.142" fill="#1a1a1a" opacity="1"/><circle id="circle4199" cx="-43.739" cy="46.006" r="1.142" fill="#1a1a1a" opacity="1"/><circle id="circle4201" cx="-59.82" cy="50.576" r="1.142" fill="#1a1a1a" opacity="1"/><circle id="circle4203" cx="-55.25" cy="50.576" r="1.142" fill="#1a1a1a" opacity="1"/><circle id="circle4205" cx="-50.681" cy="50.576" r="1.142" fill="#1a1a1a" opacity="1"/><circle id="circle4207" cx="-46.111" cy="50.576" r="1.142" fill="#1a1a1a" opacity="1"/></g></g></g></g><g id="g4341"><g id="g4174" transform="matrix(.87536 0 0 .87536 1.2084 3.9885)"><g id="g4188" transform="translate(2.0706 -1.1424)"><path id="path4337" fill="#999" fill-rule="evenodd" d="m12.923 17.18c-2.3775-0.02234-2.4703 2.4372-2.1394 3.45l2.4062 7.3636c0.42605 1.3038 1.1029 3.007 3.7969 3.0165h13.969c2.8407 0 3.3708-1.7127 3.7969-3.0165l2.4062-7.3636c0.348-1.065-0.367-3.425-2.796-3.248l-10.695-0.101z"/><path style="isolation:auto;text-decoration-color:#000;text-decoration-line:none;block-progression:tb;text-decoration-style:solid;text-indent:0;white-space:normal;text-transform:none;solid-color:#000;mix-blend-mode:normal" id="path4170" fill="gray" fill-rule="evenodd" d="m13.377 16.006c-1.3981 0-2.4839 0.46735-3.0996 1.2453-0.6157 0.77797-0.67229 1.7385-0.44531 2.5409l2.4062 8.5062c0.19412 0.68622 0.53444 1.5874 1.2715 2.3649 0.73705 0.77757 1.9151 1.3307 3.4746 1.3362h13.971c1.6233 0 2.8184-0.54985 3.5449-1.3439 0.72654-0.79409 1.0183-1.7037 1.2031-2.3572l2.4062-8.5062c0.22609-0.79925 0.20507-1.7757-0.41602-2.5603-0.62108-0.78452-1.667-1.226-3.1289-1.226h-10.594zm0 2.2848h10.594 10.594c1.207 0 1.8549-0.07637 1.6426 0.89041l-2.4062 8.5062c-0.18851 0.66639-0.428 1.2496-0.7832 1.6379-0.3552 0.38823-0.84542 0.36302-2.0625 0.38957h-13.965-0.0039c-1.1309-0.0049-1.6387-0.0033-2.0195-0.40504-0.38139-0.40236-0.64693-0.98876-0.82617-1.6224l-2.4062-8.5062c-0.25008-1.0277 0.90344-0.88862 1.6426-0.89041z" color="#000" color-rendering="auto" image-rendering="auto" shape-rendering="auto"/><g id="g4269" fill="#333" transform="translate(76.932 -24.288)"><circle id="circle4271" cx="-62.105" cy="46.006" r="1.142" fill="#333"/><circle id="circle4273" cx="-57.535" cy="46.006" r="1.142" fill="#333"/><circle id="circle4275" cx="-52.965" cy="46.006" r="1.142" fill="#333"/><circle id="circle4277" cx="-48.396" cy="46.006" r="1.142" fill="#333"/><circle id="circle4279" cx="-43.739" cy="46.006" r="1.142" fill="#333"/><circle id="circle4281" cx="-59.82" cy="50.576" r="1.142" fill="#333"/><circle id="circle4283" cx="-55.25" cy="50.576" r="1.142" fill="#333"/><circle id="circle4285" cx="-50.681" cy="50.576" r="1.142" fill="#333"/><circle id="circle4287" cx="-46.111" cy="50.576" r="1.142" fill="#333"/></g></g></g></g></svg>