<svg xmlns="http://www.w3.org/2000/svg" xmlns:xlink="http://www.w3.org/1999/xlink" viewBox="0 0 48 48"><defs><linearGradient id="linearGradient3046" x2="0" y1="1" y2="47" gradientUnits="userSpaceOnUse"><stop stop-color="#ff8275" stop-opacity="1"/><stop offset="1" stop-color="#ff7061" stop-opacity="1"/></linearGradient><radialGradient id="radialGradient4040" cx="24.476" cy="33.31" r="5.712" gradientTransform="matrix(0.61274648,0,0,0.34322181,8.9947566,19.592214)" gradientUnits="userSpaceOnUse"><stop stop-color="#2a4376" stop-opacity=".784"/><stop offset="1" stop-color="#375691" stop-opacity=".129"/></radialGradient><radialGradient id="radial0-2" cx="6.773" cy="5.927" r=".564" gradientTransform="matrix(3.543307,0,0,3.543307,1.47638e-7,3.77575e-4)" gradientUnits="userSpaceOnUse"><stop stop-color="#6b98b5" stop-opacity="1"/><stop offset="1" stop-color="#6a97b6" stop-opacity=".085"/></radialGradient><linearGradient id="linearGradient4180" x2="0" y1="36.935" y2="29.49" gradientTransform="matrix(0.46685441,0,0,0.34385152,12.573498,8.3279325)" gradientUnits="userSpaceOnUse"><stop stop-color="#225d6c" stop-opacity="1"/><stop offset="1" stop-color="#2b7a8f" stop-opacity="0"/></linearGradient><radialGradient id="radialGradient4037" cx="6.773" cy="5.927" r=".564" gradientTransform="matrix(2.2145672,0,0,2.2145672,9.2499978,10.125234)" gradientUnits="userSpaceOnUse" xlink:href="#radial0-2"/><radialGradient id="radialGradient4039" cx="6" cy="17.292" r="1" gradientTransform="matrix(0.75000009,0,0,0.75000009,19.250001,13.280977)" gradientUnits="userSpaceOnUse" xlink:href="#radial0-2"/></defs><g><path d="m 36.31 5 c 5.859 4.062 9.688 10.831 9.688 18.5 c 0 12.426 -10.07 22.5 -22.5 22.5 c -7.669 0 -14.438 -3.828 -18.5 -9.688 c 1.037 1.822 2.306 3.499 3.781 4.969 c 4.085 3.712 9.514 5.969 15.469 5.969 c 12.703 0 23 -10.298 23 -23 c 0 -5.954 -2.256 -11.384 -5.969 -15.469 c -1.469 -1.475 -3.147 -2.744 -4.969 -3.781 z m 4.969 3.781 c 3.854 4.113 6.219 9.637 6.219 15.719 c 0 12.703 -10.297 23 -23 23 c -6.081 0 -11.606 -2.364 -15.719 -6.219 c 4.16 4.144 9.883 6.719 16.219 6.719 c 12.703 0 23 -10.298 23 -23 c 0 -6.335 -2.575 -12.06 -6.719 -16.219 z" opacity=".05"/><path d="m 41.28 8.781 c 3.712 4.085 5.969 9.514 5.969 15.469 c 0 12.703 -10.297 23 -23 23 c -5.954 0 -11.384 -2.256 -15.469 -5.969 c 4.113 3.854 9.637 6.219 15.719 6.219 c 12.703 0 23 -10.298 23 -23 c 0 -6.081 -2.364 -11.606 -6.219 -15.719 z" opacity=".1"/><path d="m 31.25 2.375 c 8.615 3.154 14.75 11.417 14.75 21.13 c 0 12.426 -10.07 22.5 -22.5 22.5 c -9.708 0 -17.971 -6.135 -21.12 -14.75 a 23 23 0 0 0 44.875 -7 a 23 23 0 0 0 -16 -21.875 z" opacity=".2"/></g><g fill="#fea"><path fill="url(#linearGradient3046)" fill-opacity="1" d="m 24 1 c 12.703 0 23 10.297 23 23 c 0 12.703 -10.297 23 -23 23 -12.703 0 -23 -10.297 -23 -23 0 -12.703 10.297 -23 23 -23 z"/></g><g><path d="m 40.03 7.531 c 3.712 4.084 5.969 9.514 5.969 15.469 0 12.703 -10.297 23 -23 23 c -5.954 0 -11.384 -2.256 -15.469 -5.969 4.178 4.291 10.01 6.969 16.469 6.969 c 12.703 0 23 -10.298 23 -23 0 -6.462 -2.677 -12.291 -6.969 -16.469 z" opacity=".1"/></g><path fill="#000" fill-opacity=".118" fill-rule="nonzero" stroke="none" d="m 21.531 13 c -0.48 0 -0.949 0.156 -1.406 0.469 -0.457 0.313 -0.762 0.699 -0.938 1.125 l -0.688 2.406 -3.03 0 c -0.957 0 -1.761 0.34 -2.438 1 c -0.68 0.664 -1.031 1.473 -1.031 2.406 l 0 11.219 c 0 0.934 0.352 1.715 1.031 2.375 0.676 0.66 1.479 1 2.438 1 l 19.06 0 c 0.957 0 1.793 -0.344 2.469 -1 0.676 -0.664 1 -1.445 1 -2.375 l 0 -11.219 c 0 -0.934 -0.324 -1.742 -1 -2.406 -0.676 -0.664 -1.512 -1 -2.469 -1 l -3.03 0 -0.688 -2.406 c -0.168 -0.43 -0.48 -0.809 -0.938 -1.125 c -0.457 -0.313 -0.93 -0.469 -1.406 -0.469"/><g transform="translate(0,-1)"><path fill="#484848" fill-opacity="1" fill-rule="nonzero" stroke="none" d="m 20.531 13 c -0.48 0 -0.949 0.156 -1.406 0.469 -0.457 0.313 -0.762 0.699 -0.938 1.125 l -0.688 2.406 -3.03 0 c -0.957 0 -1.761 0.34 -2.438 1 c -0.68 0.664 -1.031 1.473 -1.031 2.406 l 0 11.219 c 0 0.934 0.352 1.715 1.031 2.375 0.676 0.66 1.479 1 2.438 1 l 19.06 0 c 0.957 0 1.793 -0.344 2.469 -1 0.676 -0.664 1 -1.445 1 -2.375 l 0 -11.219 c 0 -0.934 -0.324 -1.742 -1 -2.406 -0.676 -0.664 -1.512 -1 -2.469 -1 l -3.03 0 -0.688 -2.406 c -0.168 -0.43 -0.48 -0.809 -0.938 -1.125 c -0.457 -0.313 -0.93 -0.469 -1.406 -0.469"/><path fill="#000" fill-opacity=".1" fill-rule="nonzero" stroke="none" d="m 33 26 c 0 4.417 -3.583 8 -8 8 -4.417 0 -8 -3.583 -8 -8 0 -4.417 3.583 -8 8 -8 4.417 0 8 3.583 8 8 m 0 0"/><path fill="#2f4f61" fill-opacity="1" fill-rule="nonzero" stroke="none" d="m 32 25 c 0 4.417 -3.583 8 -8 8 -4.417 0 -8 -3.583 -8 -8 0 -4.417 3.583 -8 8 -8 c 4.417 0 8 3.583 8 8 m 0 0"/><path fill="#53687d" fill-opacity="1" fill-rule="nonzero" stroke="none" d="m 24 20 c -2.761 0 -5 2.239 -5 5 0 2.761 2.239 5 5 5 2.761 0 5 -2.239 5 -5 0 -2.761 -2.239 -5 -5 -5 z m 0 1 c 2.209 0 4 1.792 4 4 0 2.209 -1.792 4 -4 4 -2.209 0 -4 -1.792 -4 -4 0 -2.209 1.792 -4 4 -4 z"/><path fill="url(#radialGradient4040)" fill-opacity="1" fill-rule="nonzero" stroke="none" d="m 24 29.07 c -1.933 0 -3.5 0.87 -3.5 1.953 0 0.516 0.353 0.99 0.935 1.34 0.84 0.282 1.744 0.44 2.685 0.44 0.719 0 1.425 -0.1 2.088 -0.268 c 0.778 -0.36 1.293 -0.903 1.293 -1.512 0 -1.083 -1.567 -1.953 -3.5 -1.953"/><path fill="url(#radialGradient4037)" fill-rule="nonzero" stroke="none" d="m 25.5 23.25 c 0 0.691 -0.559 1.25 -1.25 1.25 -0.691 0 -1.25 -0.559 -1.25 -1.25 0 -0.691 0.559 -1.25 1.25 -1.25 0.691 0 1.25 0.559 1.25 1.25 m 0 0"/><path fill="url(#radialGradient4039)" fill-rule="nonzero" stroke="none" d="m 24.5 26.25 c 0 0.413 -0.337 0.75 -0.75 0.75 -0.413 0 -0.75 -0.337 -0.75 -0.75 0 -0.413 0.337 -0.75 0.75 -0.75 0.413 0 0.75 0.337 0.75 0.75 m 0 0"/><ellipse cx="24" cy="21.34" fill="#3d7569" fill-opacity=".586" fill-rule="nonzero" stroke="none" rx="2.133" ry="1"/><ellipse cx="24" cy="19.78" fill="url(#linearGradient4180)" fill-opacity="1" fill-rule="nonzero" stroke="none" rx="2.667" ry="1.12"/></g></svg>