<svg xmlns="http://www.w3.org/2000/svg" version="1.1" viewBox="0 0 48 48"><defs><linearGradient id="linearGradient4434" x1="1" x2="47" gradientUnits="userSpaceOnUse"><stop offset="0" stop-color="#37474f"/><stop offset="1" stop-color="#3f525b"/></linearGradient></defs><path d="m36.31 5c5.859 4.062 9.688 10.831 9.688 18.5 0 12.426-10.07 22.5-22.5 22.5-7.669 0-14.438-3.828-18.5-9.688 1.037 1.822 2.306 3.499 3.781 4.969 4.085 3.712 9.514 5.969 15.469 5.969 12.703 0 23-10.298 23-23 0-5.954-2.256-11.384-5.969-15.469-1.469-1.475-3.147-2.744-4.969-3.781zm4.969 3.781c3.854 4.113 6.219 9.637 6.219 15.719 0 12.703-10.297 23-23 23-6.081 0-11.606-2.364-15.719-6.219 4.16 4.144 9.883 6.719 16.219 6.719 12.703 0 23-10.298 23-23 0-6.335-2.575-12.06-6.719-16.219z" opacity=".05"/><path d="m41.28 8.781c3.712 4.085 5.969 9.514 5.969 15.469 0 12.703-10.297 23-23 23-5.954 0-11.384-2.256-15.469-5.969 4.113 3.854 9.637 6.219 15.719 6.219 12.703 0 23-10.298 23-23 0-6.081-2.364-11.606-6.219-15.719z" opacity=".1"/><path d="m31.25 2.375c8.615 3.154 14.75 11.417 14.75 21.13 0 12.426-10.07 22.5-22.5 22.5-9.708 0-17.971-6.135-21.12-14.75a23 23 0 0 0 44.875 -7 23 23 0 0 0 -16 -21.875z" opacity=".2"/><g fill="url(#linearGradient4434)" transform="matrix(0,-1,1,0,0,48)"><path d="m24 1c12.703 0 23 10.297 23 23s-10.297 23-23 23-23-10.297-23-23 10.297-23 23-23z"/></g><path fill-rule="evenodd" d="m12 14v21h11l1 1h2l1-1h11v-21h-11l-1 1h-2l-1-1h-11z" opacity=".1"/><path d="m40.03 7.531c3.712 4.084 5.969 9.514 5.969 15.469 0 12.703-10.297 23-23 23-5.954 0-11.384-2.256-15.469-5.969 4.178 4.291 10.01 6.969 16.469 6.969 12.703 0 23-10.298 23-23 0-6.462-2.677-12.291-6.969-16.469z" opacity=".1"/><g transform="translate(-39 -7)"><g><g><path fill="#3e263b" fill-rule="evenodd" d="m22 36-1-1h-11v1h11l1 1h2l1-1h11v-1h-11l-1 1" transform="translate(39 7) translate(1,-2)"/><path fill="#969795" fill-rule="evenodd" d="m10 31v1h11l1 1h-12v1h11l1 1h2l1-1h11v-1h-12l1-1h11v-1z" transform="translate(39 7) translate(1,-2)"/><path fill="#f2f2f2" fill-rule="evenodd" d="m36 15h-11l-1 1h-2l-1-1h-11v16h11l1 1h2l1-1h11" transform="translate(39 7) translate(1,-2)"/><path fill="#aeb2b7" fill-opacity=".471" fill-rule="evenodd" d="m21 15v16l1 1h2l1-1v-16l-1 1h-2" transform="translate(39 7) translate(1,-2)"/><path fill="#ddd8d8" fill-rule="evenodd" d="m10 34v1h11l1 1h2l1-1h11v-1h-11l-1 1h-2l-1-1h-11z" transform="translate(39 7) translate(1,-2)"/><path fill="#9bb5b9" fill-opacity=".688" fill-rule="evenodd" d="m22 16v16h2v-16" transform="translate(39 7) translate(1,-2)"/><path fill="#ddd8d8" fill-rule="evenodd" d="m10 32v1h11l1 1h2l1-1h11v-1h-11l-1 1h-2l-1-1h-11z" transform="translate(39 7) translate(1,-2)"/></g></g><rect width="9" height="1" x="66" y="23" fill="#ccc"/><rect width="9" height="1" x="66" y="29" fill="#ccc"/><path fill="#f2f2f2" d="m54.74 24.271h-1.47l-0.27 0.729h-1l1.413-4h1.173l1.413 4h-1m-1.46-1.571h0.92l-0.46-1.429"/><rect width="9" height="1" x="51" y="27" fill="#ccc"/><rect width="9" height="1" x="51" y="29" fill="#ccc"/><rect width="9" height="1" x="51" y="31" fill="#ccc"/><rect width="9" height="1" x="51" y="33" fill="#ccc"/><rect width="9" height="1" x="66" y="33" fill="#ccc"/><rect width="9" height="1" x="66" y="31" fill="#ccc"/><rect width="9" height="1" x="66" y="27" fill="#ccc"/><rect width="9" height="1" x="66" y="25" fill="#ccc"/><rect width="9" height="1" x="66" y="21" fill="#ccc"/><rect width="9" height="1" x="51" y="23" fill="#ccc"/><rect width="9" height="1" x="51" y="25" fill="#ccc"/><rect width="9" height="1" x="51" y="21" fill="#ccc"/></g><path d="m29.09 11.895c-2.309 0-4.5976 0.88662-6.3516 2.6406-3.512 3.508-3.512 9.2235 0 12.73 3.508 3.508 9.2234 3.508 12.734 0 0.62092-0.62092 1.1262-1.3141 1.5273-2.0488v-8.6348c-0.40109-0.73454-0.90649-1.4262-1.5273-2.0469-1.758-1.754-4.0778-2.6406-6.3828-2.6406zm8.9102 7.707v2.5977c0.12464-0.86187 0.12464-1.7358 0-2.5977zm-16.082 6.9609l-4.7344 4.7344 1.5039 1.5039 4.7344-4.7344-1.5039-1.5039zm-5.1836 4.5586l-2.8789 2.8789h4.2891l0.73438-0.73438-2.1445-2.1445zm-3.8789 3.8789l-0.85547 0.85547 2.1445 2.1445 3-3h-4.2891z" opacity=".1"/><path fill="#82c3ec" d="m36.602 19.894c0 4.699-3.805 8.504-8.5 8.504-4.699 0-8.504-3.805-8.5-8.504-4e-3 -4.695 3.801-8.504 8.5-8.504 4.695 0 8.5 3.809 8.5 8.504"/><path fill="#e6e6e6" d="m28.09 10.894c-2.309 0-4.598 0.887-6.352 2.641-3.512 3.508-3.512 9.223 0 12.73 3.508 3.508 9.223 3.508 12.734 0 3.508-3.508 3.508-9.223 0-12.73-1.758-1.754-4.078-2.641-6.383-2.641m0 1.48c1.922 0 3.84 0.727 5.313 2.199 2.941 2.941 2.941 7.68 0 10.621-2.945 2.941-7.684 2.941-10.629 0-2.941-2.941-2.941-7.68 0-10.621 1.473-1.473 3.391-2.199 5.316-2.199"/><path fill="#222b30" d="m17.879 32.266-2.145-2.145-4.734 4.734 2.145 2.145m4.734-4.734"/><path fill="#d24c37" d="m22.422 27.07-1.504-1.504-4.734 4.734 1.504 1.504m4.734-4.734"/><path fill="#b9def8" d="m33 21.996c0 1.656-1.344 3-3 3s-3-1.344-3-3 1.344-3 3-3 3 1.344 3 3"/><path fill="#b9def8" d="m31 16.996c0 0.551-0.449 1-1 1s-1-0.449-1-1 0.449-1 1-1 1 0.449 1 1"/></svg>