<svg xmlns="http://www.w3.org/2000/svg" id="svg2" version="1.1" viewBox="0 0 48 48"><metadata id="metadata49"/><defs id="defs4"><linearGradient id="linearGradient3764" x1="1" x2="47" gradientTransform="matrix(0 -1 1 0 -.0000015 48)" gradientUnits="userSpaceOnUse"><stop id="stop7" offset="0" stop-color="#c8dae4"/><stop id="stop9" offset="1" stop-color="#d6e4eb"/></linearGradient><radialGradient id="radialGradient4230" cx="24" cy="24" r="15" gradientUnits="userSpaceOnUse"><stop id="stop4226" offset="0" stop-color="#e79c1a"/><stop id="stop4228" offset="1" stop-color="#f3b13d"/></radialGradient><radialGradient id="radialGradient4240" cx="24" cy="24" r="11" gradientTransform="translate(0 .000044381)" gradientUnits="userSpaceOnUse"><stop id="stop4236" offset="0" stop-color="#c82c82"/><stop id="stop4238" offset="1" stop-color="#d43c90"/></radialGradient></defs><g id="g11"><path id="path13" d="m36.31 5c5.859 4.062 9.688 10.831 9.688 18.5 0 12.426-10.07 22.5-22.5 22.5-7.669 0-14.438-3.828-18.5-9.688 1.037 1.822 2.306 3.499 3.781 4.969 4.085 3.712 9.514 5.969 15.469 5.969 12.703 0 23-10.298 23-23 0-5.954-2.256-11.384-5.969-15.469-1.469-1.475-3.147-2.744-4.969-3.781zm4.969 3.781c3.854 4.113 6.219 9.637 6.219 15.719 0 12.703-10.297 23-23 23-6.081 0-11.606-2.364-15.719-6.219 4.16 4.144 9.883 6.719 16.219 6.719 12.703 0 23-10.298 23-23 0-6.335-2.575-12.06-6.719-16.219z" opacity=".05"/><path id="path15" d="m41.28 8.781c3.712 4.085 5.969 9.514 5.969 15.469 0 12.703-10.297 23-23 23-5.954 0-11.384-2.256-15.469-5.969 4.113 3.854 9.637 6.219 15.719 6.219 12.703 0 23-10.298 23-23 0-6.081-2.364-11.606-6.219-15.719z" opacity=".1"/><path id="path17" d="m31.25 2.375c8.615 3.154 14.75 11.417 14.75 21.13 0 12.426-10.07 22.5-22.5 22.5-9.708 0-17.971-6.135-21.12-14.75a23 23 0 0 0 44.875 -7 23 23 0 0 0 -16 -21.875z" opacity=".2"/></g><g id="g19"><path id="path21" fill="url(#linearGradient3764)" d="m24 1c12.703 0 23 10.297 23 23s-10.297 23-23 23-23-10.297-23-23 10.297-23 23-23z"/></g><g id="g43"><path id="path45" d="m40.03 7.531c3.712 4.084 5.969 9.514 5.969 15.469 0 12.703-10.297 23-23 23-5.954 0-11.384-2.256-15.469-5.969 4.178 4.291 10.01 6.969 16.469 6.969 12.703 0 23-10.298 23-23 0-6.462-2.677-12.291-6.969-16.469z" opacity=".1"/></g><path id="path4219" d="m25 10a15 15 0 0 0 -15 15 15 15 0 0 0 15 15 15 15 0 0 0 15 -15 15 15 0 0 0 -15 -15zm0 11a4 4 0 0 1 4 4 4 4 0 0 1 -4 4 4 4 0 0 1 -4 -4 4 4 0 0 1 4 -4z" opacity=".1"/><path id="path4177" fill="url(#radialGradient4230)" d="m24 9a15 15 0 0 0 -15 15 15 15 0 0 0 15 15 15 15 0 0 0 15 -15 15 15 0 0 0 -15 -15zm0 10a5 5 0 0 1 5 5 5 5 0 0 1 -5 5 5 5 0 0 1 -5 -5 5 5 0 0 1 5 -5z"/><path id="path4232" d="m14.205 28.609c0.35228 0.97653 1.9492 1.5472 2.5977 2.3711 0.64847 0.82393 0.78678 2.4581 1.668 3.0488 0.88119 0.59068 2.5212 0.14766 3.5488 0.44726 1.0277 0.29961 2.1355 1.5442 3.209 1.5234 1.0735-0.02079 2.1322-1.3073 3.1465-1.6465 1.0143-0.33916 2.6715 0.04033 3.5273-0.58398 0.85581-0.62432 0.92358-2.263 1.5371-3.1113 0.61353-0.84837 2.1868-1.4794 2.498-2.4688 0.3112-0.98938-0.63466-2.3551-0.65625-3.3887-0.0216-1.0335 0.86595-2.4336 0.51367-3.4102-0.353-0.975-1.95-1.546-2.598-2.37-0.649-0.824-0.787-2.458-1.668-3.049-0.882-0.59-8.53-0.97-8.53-0.97 12.001 10.999 3.001 18.999-8.794 13.608z" opacity=".1"/><path id="path4140" fill="url(#radialGradient4240)" d="m23.771 13c-1.073 0.021-2.132 1.307-3.146 1.646-1.014 0.34-2.672-0.04-3.527 0.584-0.856 0.625-0.924 2.263-1.537 3.112-0.614 0.848-2.187 1.479-2.499 2.469-0.311 0.989 0.635 2.355 0.657 3.388 0.021 1.034-0.866 2.434-0.514 3.41 0.352 0.977 1.949 1.548 2.598 2.371 0.648 0.824 0.787 2.459 1.668 3.049 0.881 0.591 2.521 0.148 3.549 0.448 1.027 0.299 2.135 1.544 3.209 1.523 1.073-0.021 2.132-1.307 3.146-1.646 1.014-0.34 2.672 0.04 3.527-0.584 0.856-0.625 0.924-2.263 1.537-3.112 0.614-0.848 2.187-1.479 2.499-2.469 0.311-0.989-0.635-2.355-0.657-3.388-0.021-1.034 0.866-2.434 0.514-3.41-0.352-0.977-1.949-1.548-2.598-2.371-0.648-0.824-0.787-2.459-1.668-3.049-0.881-0.591-2.521-0.148-3.549-0.448-1.027-0.299-2.135-1.544-3.209-1.523zm0.229 7a4 4 0 0 1 4 4 4 4 0 0 1 -4 4 4 4 0 0 1 -4 -4 4 4 0 0 1 4 -4z"/><g id="g4181" fill="#5b314a" transform="translate(9 -89)"><rect id="rect4166" width="1" height="3" x="21" y="116" fill="#5b314a" ry=".5"/><rect id="rect4168" width="1" height="3" x="9" y="117" fill="#5b314a" ry=".5"/><rect id="rect4170" width="1" height="3" x="10" y="106.48" fill="#5b314a" ry=".5"/><rect id="rect4172" width="3.062" height=".988" x="49.296" y="99.196" fill="#5b314a" ry=".494" transform="matrix(.96826 .24995 -.26796 .96343 0 0)"/><rect id="rect4174" width="1.035" height="3.105" x="-65.218" y="82.593" fill="#5b314a" ry=".518" transform="rotate(-45)"/><rect id="rect4178" width="1.035" height="3.105" x="-97.745" y="71.279" fill="#5b314a" ry=".518" transform="matrix(-.70711 -.70711 -.70711 .70711 0 0)"/><rect id="rect4242" width="1.035" height="3.105" x="-86.785" y="73.047" fill="#5b314a" ry=".518" transform="matrix(-.70711 -.70711 -.70711 .70711 0 0)"/><rect id="rect4164" width="1.035" height="3.105" x="-88.565" y="60.66" fill="#5b314a" ry=".518" transform="matrix(-.70711 -.70711 -.70711 .70711 0 0)"/><rect id="rect4167" width="1" height="3" x="112" y="-24" fill="#5b314a" ry=".5" transform="rotate(90)"/></g></svg>