<svg xmlns="http://www.w3.org/2000/svg" xmlns:xlink="http://www.w3.org/1999/xlink" id="svg2" width="100%" height="100%" version="1.1" viewBox="0 0 48 48"><metadata id="metadata67"/><defs id="defs4"><linearGradient id="linearGradient3804" x1="22.782" x2="22.782" y1="38.592" y2="4.201" gradientUnits="userSpaceOnUse"><stop id="stop3790" offset="0" stop-color="#dfcdcd"/><stop id="stop3792" offset="1" stop-color="#e6dada"/></linearGradient><linearGradient id="linearGradient3009" x1="1" x2="1" y1="46.996" y2=".998" gradientUnits="userSpaceOnUse"><stop id="stop3781" offset="0" stop-color="#e6e6e6"/><stop id="stop3783" offset="1" stop-color="#f0f0f0"/></linearGradient></defs><g id="g21"><path id="path23" d="m36.31 5c5.859 4.062 9.688 10.831 9.688 18.5 0 12.426-10.07 22.5-22.5 22.5-7.669 0-14.438-3.828-18.5-9.688 1.037 1.822 2.306 3.499 3.781 4.969 4.085 3.712 9.514 5.969 15.469 5.969 12.703 0 23-10.298 23-23 0-5.954-2.256-11.384-5.969-15.469-1.469-1.475-3.147-2.744-4.969-3.781zm4.969 3.781c3.854 4.113 6.219 9.637 6.219 15.719 0 12.703-10.297 23-23 23-6.081 0-11.606-2.364-15.719-6.219 4.16 4.144 9.883 6.719 16.219 6.719 12.703 0 23-10.298 23-23 0-6.335-2.575-12.06-6.719-16.219z" opacity=".05"/><path id="path25" d="m41.28 8.781c3.712 4.085 5.969 9.514 5.969 15.469 0 12.703-10.297 23-23 23-5.954 0-11.384-2.256-15.469-5.969 4.113 3.854 9.637 6.219 15.719 6.219 12.703 0 23-10.298 23-23 0-6.081-2.364-11.606-6.219-15.719z" opacity=".1"/><path id="path27" d="m31.25 2.375c8.615 3.154 14.75 11.417 14.75 21.13 0 12.426-10.07 22.5-22.5 22.5-9.708 0-17.971-6.135-21.12-14.75a23 23 0 0 0 44.875 -7 23 23 0 0 0 -16 -21.875z" opacity=".2"/></g><g id="g29" fill="url(#linearGradient3804)"><path id="path31" fill="url(#linearGradient3009)" d="m24 1c12.703 0 23 10.297 23 23s-10.297 23-23 23-23-10.297-23-23 10.297-23 23-23z"/><path style="text-decoration-color:#000;solid-color:#000;text-decoration-line:none;mix-blend-mode:normal;block-progression:tb;text-indent:0;white-space:normal;text-decoration-style:solid;isolation:auto;text-transform:none" id="path3323" fill="#000" fill-rule="evenodd" d="m25.5 10-4 4.4688l1.711 1.531 0.789-0.883v2.24c-1.173 0.57-2 1.768-2 3.143 0 1.3751 0.8275 2.5729 2 3.1426v0.05664l-3 1.956v-2.656h-3v4h-4v3h4v4h3v-2.5059l3 1.8066v1.699h-2l3.5 5 3.5-5h-2v-3.3008l-5.0508-3.0996 5.051-3.299v-1.658c0.715-0.348 1.295-0.928 1.643-1.643h7.357v-3h-7.357c-0.348-0.715-0.928-1.295-1.643-1.643v-2.24l0.789 0.883 1.711-1.531-4-4.469z" color="#000" color-rendering="auto" image-rendering="auto" opacity=".1" shape-rendering="auto"/><path style="text-decoration-color:#000;solid-color:#000;text-decoration-line:none;mix-blend-mode:normal;block-progression:tb;text-indent:0;white-space:normal;text-decoration-style:solid;isolation:auto;text-transform:none" id="path4242-9-9-8-4-9-06" fill="#314cb0" fill-rule="evenodd" d="m13 26 0.000309 3h6v-3z" color="#000" color-rendering="auto" image-rendering="auto" shape-rendering="auto"/><path style="text-decoration-color:#000;solid-color:#000;text-decoration-line:none;mix-blend-mode:normal;block-progression:tb;text-indent:0;white-space:normal;text-decoration-style:solid;isolation:auto;text-transform:none" id="path4244-2-1-9-9-0-1" fill="#314cb0" fill-rule="evenodd" d="m17 22v11h3v-11z" color="#000" color-rendering="auto" image-rendering="auto" shape-rendering="auto"/><path style="text-decoration-color:#000;solid-color:#000;text-decoration-line:none;mix-blend-mode:normal;block-progression:tb;text-indent:0;white-space:normal;text-decoration-style:solid;isolation:auto;text-transform:none" id="path4246-0-9-2-2-2-5" fill="#314cb0" fill-rule="evenodd" d="m23 20v2.7l-4.847 3.161 1.695 2.458 6.152-4.019v-4.3z" color="#000" color-rendering="auto" image-rendering="auto" shape-rendering="auto"/><path style="text-decoration-color:#000;solid-color:#000;text-decoration-line:none;mix-blend-mode:normal;block-progression:tb;text-indent:0;white-space:normal;text-decoration-style:solid;isolation:auto;text-transform:none" id="path4250-8-2-8-5-0-5" fill="#314cb0" fill-rule="evenodd" d="m19.806 26.899-1.613 2.508 4.807 2.893v3.7h3v-5.3z" color="#000" color-rendering="auto" image-rendering="auto" shape-rendering="auto"/><path style="text-decoration-color:#000;solid-color:#000;text-decoration-line:none;mix-blend-mode:normal;block-progression:tb;text-indent:0;white-space:normal;text-decoration-style:solid;isolation:auto;text-transform:none" id="path4256-9-5-8-7-1-4" fill="#314cb0" fill-rule="evenodd" d="m24.5 9-4 4.4688l1.711 1.531 2.289-2.559 2.289 2.559 1.711-1.531-4-4.469z" color="#000" color-rendering="auto" image-rendering="auto" shape-rendering="auto"/><path style="text-decoration-color:#000;solid-color:#000;text-decoration-line:none;mix-blend-mode:normal;block-progression:tb;text-indent:0;white-space:normal;text-decoration-style:solid;isolation:auto;text-transform:none" id="path4248-6-6-8-8-9-9-0-7" fill="#314cb0" fill-rule="evenodd" d="m26 18v3h9.0004v-3h-9.0004z" color="#000" color-rendering="auto" image-rendering="auto" shape-rendering="auto"/><path style="text-decoration-color:#000;solid-color:#000;text-decoration-line:none;mix-blend-mode:normal;block-progression:tb;text-indent:0;white-space:normal;text-decoration-style:solid;isolation:auto;text-transform:none" id="path11027-6" fill="#314cb0" d="m21 34 3.5 5 3.5-5z" color="#000" color-rendering="auto" image-rendering="auto" shape-rendering="auto"/><path style="text-decoration-color:#000;solid-color:#000;text-decoration-line:none;mix-blend-mode:normal;block-progression:tb;text-indent:0;white-space:normal;text-decoration-style:solid;isolation:auto;text-transform:none" id="path4248-6-6-8-8-9-9-0-1-5" fill="#314cb0" fill-rule="evenodd" d="m23 11v8h3v-8h-3z" color="#000" color-rendering="auto" image-rendering="auto" shape-rendering="auto"/><path style="text-decoration-color:#000;solid-color:#000;text-decoration-line:none;mix-blend-mode:normal;block-progression:tb;text-indent:0;white-space:normal;text-decoration-style:solid;isolation:auto;text-transform:none" id="path11694-69" fill="#314cb0" d="m24.499 16c-1.912 0-3.499 1.588-3.499 3.5s1.587 3.5 3.499 3.5 3.501-1.588 3.501-3.5-1.589-3.5-3.501-3.5z" color="#000" color-rendering="auto" image-rendering="auto" shape-rendering="auto"/><path style="text-decoration-color:#000;solid-color:#000;text-decoration-line:none;mix-blend-mode:normal;block-progression:tb;text-indent:0;white-space:normal;text-decoration-style:solid;isolation:auto;text-transform:none" id="path3293" fill="#314cb0" d="m21 34 3.5 5 3.5-5z" color="#000" color-rendering="auto" image-rendering="auto" shape-rendering="auto"/></g><g id="g61"><path id="path63" d="m40.03 7.531c3.712 4.084 5.969 9.514 5.969 15.469 0 12.703-10.297 23-23 23-5.954 0-11.384-2.256-15.469-5.969 4.178 4.291 10.01 6.969 16.469 6.969 12.703 0 23-10.298 23-23 0-6.462-2.677-12.291-6.969-16.469z" opacity=".1"/></g></svg>