<svg xmlns="http://www.w3.org/2000/svg" version="1.1" viewBox="0 0 48 48"><defs><linearGradient id="linearGradient3764" x1="1" x2="47" gradientTransform="matrix(0 -1 1 0 -1.5e-6 48)" gradientUnits="userSpaceOnUse"><stop offset="0" stop-color="#e4e4e4"/><stop offset="1" stop-color="#eee"/></linearGradient></defs><path d="m36.31 5c5.859 4.062 9.688 10.831 9.688 18.5 0 12.426-10.07 22.5-22.5 22.5-7.669 0-14.438-3.828-18.5-9.688 1.037 1.822 2.306 3.499 3.781 4.969 4.085 3.712 9.514 5.969 15.469 5.969 12.703 0 23-10.298 23-23 0-5.954-2.256-11.384-5.969-15.469-1.469-1.475-3.147-2.744-4.969-3.781zm4.969 3.781c3.854 4.113 6.219 9.637 6.219 15.719 0 12.703-10.297 23-23 23-6.081 0-11.606-2.364-15.719-6.219 4.16 4.144 9.883 6.719 16.219 6.719 12.703 0 23-10.298 23-23 0-6.335-2.575-12.06-6.719-16.219z" opacity=".05"/><path d="m41.28 8.781c3.712 4.085 5.969 9.514 5.969 15.469 0 12.703-10.297 23-23 23-5.954 0-11.384-2.256-15.469-5.969 4.113 3.854 9.637 6.219 15.719 6.219 12.703 0 23-10.298 23-23 0-6.081-2.364-11.606-6.219-15.719z" opacity=".1"/><path d="m31.25 2.375c8.615 3.154 14.75 11.417 14.75 21.13 0 12.426-10.07 22.5-22.5 22.5-9.708 0-17.971-6.135-21.12-14.75a23 23 0 0 0 44.875 -7 23 23 0 0 0 -16 -21.875z" opacity=".2"/><path fill="url(#linearGradient3764)" d="m24 1c12.703 0 23 10.297 23 23s-10.297 23-23 23-23-10.297-23-23 10.297-23 23-23z"/><path d="m40.03 7.531c3.712 4.084 5.969 9.514 5.969 15.469 0 12.703-10.297 23-23 23-5.954 0-11.384-2.256-15.469-5.969 4.178 4.291 10.01 6.969 16.469 6.969 12.703 0 23-10.298 23-23 0-6.462-2.677-12.291-6.969-16.469z" opacity=".1"/><g opacity=".1"><path d="m11 13v20h4v-8h3v-3h-3v-4h7v-5z" transform="translate(1 1) translate(1)"/><path d="m24.514 15.973c-0.109 0.021-0.158 0.123-0.158 0.234v3.404a7 7 0 0 0 -0.934 0.621l-3.138-1.33c-0.102-0.043-0.216-0.038-0.278 0.054l-1.453 2.155c-0.062 0.092-0.024 0.2 0.054 0.278l2.404 2.406a7 7 0 0 0 -0.216 1.1l-3.162 1.277c-0.103 0.042-0.179 0.125-0.158 0.234l0.496 2.554c0.021 0.109 0.123 0.158 0.234 0.158h3.404a7 7 0 0 0 0.621 0.934l-1.33 3.138c-0.043 0.102-0.038 0.216 0.054 0.278l2.155 1.453c0.092 0.062 0.2 0.024 0.278-0.054l2.406-2.404a7 7 0 0 0 1.1 0.216l1.277 3.162c0.042 0.103 0.125 0.179 0.234 0.158l2.554-0.496c0.109-0.021 0.158-0.123 0.158-0.234v-3.404a7 7 0 0 0 0.934 -0.621l3.138 1.33c0.102 0.043 0.216 0.038 0.278-0.054l1.453-2.155c0.062-0.092 0.024-0.2-0.054-0.278l-2.404-2.406a7 7 0 0 0 0.216 -1.1l3.162-1.277c0.103-0.042 0.179-0.125 0.158-0.234l-0.496-2.554c-0.021-0.109-0.123-0.158-0.234-0.158h-3.404a7 7 0 0 0 -0.621 -0.934l1.33-3.138c0.043-0.102 0.038-0.216-0.054-0.278l-2.155-1.453c-0.092-0.062-0.2-0.024-0.278 0.054l-2.406 2.404a7 7 0 0 0 -1.1 -0.216l-1.277-3.162c-0.042-0.103-0.125-0.179-0.234-0.158l-2.554 0.496zm2.651 6.819a3 3 0 0 1 3.517 2.372 3 3 0 0 1 -2.372 3.517 3 3 0 0 1 -3.517 -2.372 3 3 0 0 1 2.372 -3.517z" transform="translate(1 1)"/></g><path fill="#cd5c2a" d="m11 13v20h4v-8h3v-3h-3v-4h7v-5z" transform="translate(1)"/><path fill="#3b6dbb" d="m24.514 15.973c-0.109 0.021-0.158 0.123-0.158 0.234v3.404a7 7 0 0 0 -0.934 0.621l-3.138-1.33c-0.102-0.043-0.216-0.038-0.278 0.054l-1.453 2.155c-0.062 0.092-0.024 0.2 0.054 0.278l2.404 2.406a7 7 0 0 0 -0.216 1.1l-3.162 1.277c-0.103 0.042-0.179 0.125-0.158 0.234l0.496 2.554c0.021 0.109 0.123 0.158 0.234 0.158h3.404a7 7 0 0 0 0.621 0.934l-1.33 3.138c-0.043 0.102-0.038 0.216 0.054 0.278l2.155 1.453c0.092 0.062 0.2 0.024 0.278-0.054l2.406-2.404a7 7 0 0 0 1.1 0.216l1.277 3.162c0.042 0.103 0.125 0.179 0.234 0.158l2.554-0.496c0.109-0.021 0.158-0.123 0.158-0.234v-3.404a7 7 0 0 0 0.934 -0.621l3.138 1.33c0.102 0.043 0.216 0.038 0.278-0.054l1.453-2.155c0.062-0.092 0.024-0.2-0.054-0.278l-2.404-2.406a7 7 0 0 0 0.216 -1.1l3.162-1.277c0.103-0.042 0.179-0.125 0.158-0.234l-0.496-2.554c-0.021-0.109-0.123-0.158-0.234-0.158h-3.404a7 7 0 0 0 -0.621 -0.934l1.33-3.138c0.043-0.102 0.038-0.216-0.054-0.278l-2.155-1.453c-0.092-0.062-0.2-0.024-0.278 0.054l-2.406 2.404a7 7 0 0 0 -1.1 -0.216l-1.277-3.162c-0.042-0.103-0.125-0.179-0.234-0.158l-2.554 0.496zm2.651 6.819a3 3 0 0 1 3.517 2.372 3 3 0 0 1 -2.372 3.517 3 3 0 0 1 -3.517 -2.372 3 3 0 0 1 2.372 -3.517z"/></svg>