<svg xmlns="http://www.w3.org/2000/svg" xmlns:xlink="http://www.w3.org/1999/xlink" viewBox="0 0 48 48"><defs><linearGradient id="linearGradient4352-7" x2="0" y1="1008.38" y2="995.78" gradientTransform="matrix(0.57634559,0,0,0.55554611,16.357727,-526.20112)" gradientUnits="userSpaceOnUse" xlink:href="#linearGradient6232"/><linearGradient id="linearGradient4354-3" x2="0" y1="1008.38" y2="972.38" gradientTransform="matrix(0.57634559,0,0,0.55554611,15.993477,-526.20112)" gradientUnits="userSpaceOnUse" xlink:href="#linearGradient6224"/><linearGradient id="linearGradient6232"><stop stop-color="#279e64" stop-opacity="1"/><stop offset="1" stop-color="#146daf" stop-opacity="1"/></linearGradient><linearGradient id="linearGradient6224"><stop stop-color="#e5e975" stop-opacity="1"/><stop offset="1" stop-color="#e13e28" stop-opacity="1"/></linearGradient><linearGradient id="linearGradient4350" x2="0" y1="1008.38" y2="995.78" gradientTransform="matrix(0.57634559,0,0,0.55554611,20.927253,-526.20112)" gradientUnits="userSpaceOnUse" xlink:href="#linearGradient6232"/><linearGradient id="linearGradient4352" x2="0" y1="1008.38" y2="972.38" gradientTransform="matrix(0.57634559,0,0,0.55554611,20.563003,-526.20112)" gradientUnits="userSpaceOnUse" xlink:href="#linearGradient6224"/><linearGradient id="linearGradient4398" x1="1" x2="47" gradientTransform="matrix(0,-1,1,0,0,48)" gradientUnits="userSpaceOnUse"><stop stop-color="#5e4371" stop-opacity="1"/><stop offset="1" stop-color="#684a7e" stop-opacity="1"/></linearGradient></defs><g><path d="m36.31 5c5.859 4.062 9.688 10.831 9.688 18.5 0 12.426-10.07 22.5-22.5 22.5-7.669 0-14.438-3.828-18.5-9.688 1.037 1.822 2.306 3.499 3.781 4.969 4.085 3.712 9.514 5.969 15.469 5.969 12.703 0 23-10.298 23-23 0-5.954-2.256-11.384-5.969-15.469-1.469-1.475-3.147-2.744-4.969-3.781zm4.969 3.781c3.854 4.113 6.219 9.637 6.219 15.719 0 12.703-10.297 23-23 23-6.081 0-11.606-2.364-15.719-6.219 4.16 4.144 9.883 6.719 16.219 6.719 12.703 0 23-10.298 23-23 0-6.335-2.575-12.06-6.719-16.219z" opacity=".05"/><path d="m41.28 8.781c3.712 4.085 5.969 9.514 5.969 15.469 0 12.703-10.297 23-23 23-5.954 0-11.384-2.256-15.469-5.969 4.113 3.854 9.637 6.219 15.719 6.219 12.703 0 23-10.298 23-23 0-6.081-2.364-11.606-6.219-15.719z" opacity=".1"/><path d="m31.25 2.375c8.615 3.154 14.75 11.417 14.75 21.13 0 12.426-10.07 22.5-22.5 22.5-9.708 0-17.971-6.135-21.12-14.75a23 23 0 0 0 44.875 -7 23 23 0 0 0 -16 -21.875z" opacity=".2"/></g><path fill="url(#linearGradient4398)" fill-opacity="1" d="M 1,24 C 1,11.297 11.297,1 24,1 36.703,1 47,11.297 47,24 47,36.703 36.703,47 24,47 11.297,47 1,36.703 1,24 Z"/><g><path d="m40.03 7.531c3.712 4.084 5.969 9.514 5.969 15.469 0 12.703-10.297 23-23 23-5.954 0-11.384-2.256-15.469-5.969 4.178 4.291 10.01 6.969 16.469 6.969 12.703 0 23-10.298 23-23 0-6.462-2.677-12.291-6.969-16.469z" opacity=".1"/></g><path fill="#000" fill-opacity="1" fill-rule="evenodd" d="m 28 15 -9.951 16.586 -2.049 -3.586 l -4 0 4 7 4 0 0.512 -0.854 l 0.488 0.854 4 0 12 -20 m -8 15 0 5 1 0 0 -2 2 0 0 -1 -2 0 0 -1 2 0 0 -1 z m 4 0 0 3 2 0 0 1 -2 0 0 1 3 0 0 -3 -2 0 0 -1 2 0 0 -1 z" color="#000" color-rendering="auto" image-rendering="auto" isolation="auto" mix-blend-mode="normal" opacity=".1" shape-rendering="auto" solid-color="#000000" white-space="normal"/><path fill="url(#linearGradient4350)" fill-opacity="1" fill-rule="evenodd" d="m 20 34 4 0 -4 -7 -4 0 z" color="#000" color-rendering="auto" image-rendering="auto" isolation="auto" mix-blend-mode="normal" shape-rendering="auto" solid-color="#000000" white-space="normal"/><path fill="url(#linearGradient4352)" fill-opacity="1" fill-rule="evenodd" d="m 32 14 -12 20 4 0 12 -20" color="#000" color-rendering="auto" image-rendering="auto" isolation="auto" mix-blend-mode="normal" shape-rendering="auto" solid-color="#000000" white-space="normal"/><path fill="url(#linearGradient4352-7)" fill-opacity="1" fill-rule="evenodd" d="m 15 34 4 0 -4 -7 -4 0 z" color="#000" color-rendering="auto" image-rendering="auto" isolation="auto" mix-blend-mode="normal" shape-rendering="auto" solid-color="#000000" white-space="normal"/><path fill="url(#linearGradient4354-3)" fill-opacity="1" fill-rule="evenodd" d="m 27 14 -12 20 4 0 12 -20" color="#000" color-rendering="auto" image-rendering="auto" isolation="auto" mix-blend-mode="normal" shape-rendering="auto" solid-color="#000000" white-space="normal"/><path fill="#bd93bb" fill-opacity="1" d="m 28 29 l 0 5 l 1 0 l 0 -2 l 2 0 l 0 -1 l -2 0 l 0 -1 l 2 0 l 0 -1 l -3 0 z m 4 0 l 0 3 l 2 0 l 0 1 l -2 0 l 0 1 l 3 0 l 0 -3 l -2 0 l 0 -1 l 2 0 l 0 -1 l -3 0 z"/></svg>