<svg xmlns="http://www.w3.org/2000/svg" version="1.1" viewBox="0 0 48 48"><defs><linearGradient id="linearGradient3764" x1="1" x2="47" gradientTransform="matrix(0 -1 1 0 -1.5e-6 48)" gradientUnits="userSpaceOnUse"><stop offset="0" stop-color="#c3d3e5"/><stop offset="1" stop-color="#d1ddeb"/></linearGradient></defs><path d="m36.31 5c5.859 4.062 9.688 10.831 9.688 18.5 0 12.426-10.07 22.5-22.5 22.5-7.669 0-14.438-3.828-18.5-9.688 1.037 1.822 2.306 3.499 3.781 4.969 4.085 3.712 9.514 5.969 15.469 5.969 12.703 0 23-10.298 23-23 0-5.954-2.256-11.384-5.969-15.469-1.469-1.475-3.147-2.744-4.969-3.781zm4.969 3.781c3.854 4.113 6.219 9.637 6.219 15.719 0 12.703-10.297 23-23 23-6.081 0-11.606-2.364-15.719-6.219 4.16 4.144 9.883 6.719 16.219 6.719 12.703 0 23-10.298 23-23 0-6.335-2.575-12.06-6.719-16.219z" opacity=".05"/><path d="m41.28 8.781c3.712 4.085 5.969 9.514 5.969 15.469 0 12.703-10.297 23-23 23-5.954 0-11.384-2.256-15.469-5.969 4.113 3.854 9.637 6.219 15.719 6.219 12.703 0 23-10.298 23-23 0-6.081-2.364-11.606-6.219-15.719z" opacity=".1"/><path d="m31.25 2.375c8.615 3.154 14.75 11.417 14.75 21.13 0 12.426-10.07 22.5-22.5 22.5-9.708 0-17.971-6.135-21.12-14.75a23 23 0 0 0 44.875 -7 23 23 0 0 0 -16 -21.875z" opacity=".2"/><path fill="url(#linearGradient3764)" d="m24 1c12.703 0 23 10.297 23 23s-10.297 23-23 23-23-10.297-23-23 10.297-23 23-23z"/><path fill-opacity=".996" d="m25 10c-8.2843 0-15.005 6.7157-15 15 0.0027 4.7131 2.2295 9.1487 6 11.977v-4.0547c2.2752 2.5887 5.5536 4.0762 9 4.0781 3.5892 2e-3 6.8009-1.5846 9-4.082v4.0645c3.7721-2.8291 5.998-7.2672 6-11.982 0.0035-8.2843-6.7157-15-15-15z" opacity=".1"/><path d="m40.03 7.531c3.712 4.084 5.969 9.514 5.969 15.469 0 12.703-10.297 23-23 23-5.954 0-11.384-2.256-15.469-5.969 4.178 4.291 10.01 6.969 16.469 6.969 12.703 0 23-10.298 23-23 0-6.462-2.677-12.291-6.969-16.469z" opacity=".1"/><path fill="#0a2f4f" fill-opacity=".996" d="m24 12c-1 1.0006-1 23.001 0 24 6.6274 0 12-5.3726 12-12s-5.3726-12-12-12z"/><path fill="#0b3457" fill-opacity=".996" d="m24 12a12 12 0 0 0 -12 12 12 12 0 0 0 12 12z"/><rect width="20" height="8" x="14" y="16.001" fill="#061f35" fill-opacity=".996"/><path fill="#1b7cd2" fill-opacity=".996" d="m24 9c-1 1.0006-1 21.001 0 22 2 0 3-0.5 3-0.5v-11.051c4 0.55144 6 2.5508 6 2.5508v13.982c3.7721-2.8291 5.9945-7.2672 6-11.982 0-8.2843-6.7157-15-15-15z"/><path fill="#1e89e5" d="m24 9c-8.2843 0-15 6.7157-15 15 0.00737 4.7131 2.2295 9.1487 6 11.977v-13.977s2-1.9994 6-2.5508v11.051s1 0.5 3 0.5z"/></svg>