<svg xmlns="http://www.w3.org/2000/svg" xmlns:svg="http://www.w3.org/2000/svg" id="svg57" version="1.1" viewBox="0 0 48 48"><metadata id="metadata61"/><defs id="defs7"><linearGradient id="linearGradient3764" x1="1" x2="47" gradientTransform="matrix(0,-1,1,0,-1.5e-6,47.999998)" gradientUnits="userSpaceOnUse"><stop id="stop2" stop-color="#e4e4e4" stop-opacity="1"/><stop id="stop4" offset="1" stop-color="#eee" stop-opacity="1"/></linearGradient></defs><g id="g15"><path id="path9" d="m 36.31 5 c 5.859 4.062 9.688 10.831 9.688 18.5 c 0 12.426 -10.07 22.5 -22.5 22.5 c -7.669 0 -14.438 -3.828 -18.5 -9.688 c 1.037 1.822 2.306 3.499 3.781 4.969 c 4.085 3.712 9.514 5.969 15.469 5.969 c 12.703 0 23 -10.298 23 -23 c 0 -5.954 -2.256 -11.384 -5.969 -15.469 c -1.469 -1.475 -3.147 -2.744 -4.969 -3.781 z m 4.969 3.781 c 3.854 4.113 6.219 9.637 6.219 15.719 c 0 12.703 -10.297 23 -23 23 c -6.081 0 -11.606 -2.364 -15.719 -6.219 c 4.16 4.144 9.883 6.719 16.219 6.719 c 12.703 0 23 -10.298 23 -23 c 0 -6.335 -2.575 -12.06 -6.719 -16.219 z" opacity=".05"/><path id="path11" d="m 41.28 8.781 c 3.712 4.085 5.969 9.514 5.969 15.469 c 0 12.703 -10.297 23 -23 23 c -5.954 0 -11.384 -2.256 -15.469 -5.969 c 4.113 3.854 9.637 6.219 15.719 6.219 c 12.703 0 23 -10.298 23 -23 c 0 -6.081 -2.364 -11.606 -6.219 -15.719 z" opacity=".1"/><path id="path13" d="m 31.25 2.375 c 8.615 3.154 14.75 11.417 14.75 21.13 c 0 12.426 -10.07 22.5 -22.5 22.5 c -9.708 0 -17.971 -6.135 -21.12 -14.75 a 23 23 0 0 0 44.875 -7 a 23 23 0 0 0 -16 -21.875 z" opacity=".2"/></g><g id="g19" fill="#4d4d4d"><path id="path17" fill="#4d4d4d" fill-opacity="1" d="m 24 1 c 12.703 0 23 10.297 23 23 c 0 12.703 -10.297 23 -23 23 -12.703 0 -23 -10.297 -23 -23 0 -12.703 10.297 -23 23 -23 z"/></g><g id="g31"><path id="path29" d="m 40.03 7.531 c 3.712 4.084 5.969 9.514 5.969 15.469 0 12.703 -10.297 23 -23 23 c -5.954 0 -11.384 -2.256 -15.469 -5.969 4.178 4.291 10.01 6.969 16.469 6.969 c 12.703 0 23 -10.298 23 -23 0 -6.462 -2.677 -12.291 -6.969 -16.469 z" opacity=".1"/></g><g id="g915" transform="matrix(0.61257188,0,0,0.5732699,3.8804697,3.9439755)"><path id="path3648" fill="#7e7fa4" fill-opacity=".816" fill-rule="evenodd" stroke="#000" stroke-linecap="butt" stroke-linejoin="round" stroke-opacity="1" stroke-width="1" d="M 1.1082251,35.463203 31.168831,19.948052 43.359307,43.636364 13.298701,59.428571 Z"/><path id="path4167" fill="#7e7fa4" fill-opacity=".816" fill-rule="evenodd" stroke="#000" stroke-linecap="butt" stroke-linejoin="round" stroke-opacity="1" stroke-width="1" d="M 50.839827,10.112554 35.324675,18.147186 47.792208,41.558442 63.584416,33.385281 Z"/><ellipse id="path4197" cx="14.684" cy="53.403" fill="#fff" fill-opacity="1" stroke="#fff" stroke-dasharray="none" stroke-dashoffset="0" stroke-linecap="butt" stroke-linejoin="round" stroke-miterlimit="4" stroke-opacity="1" stroke-width="0" opacity="1" rx="1.662" ry="1.732" transform="matrix(1.05273,0,0,1.01063,-0.894481,1.56138)"/><ellipse id="path4199" cx="14.684" cy="53.403" fill="#fff" fill-opacity="1" stroke="#ececec" stroke-dasharray="none" stroke-dashoffset="0" stroke-linecap="butt" stroke-linejoin="round" stroke-miterlimit="4" stroke-opacity="1" stroke-width="0" opacity="1" rx="1.662" ry="1.732" transform="matrix(1.05273,0,0,1.01063,-10.6791,-17.3986)"/><ellipse id="path4201" cx="14.684" cy="53.403" fill="#fff" fill-opacity="1" stroke="#ececec" stroke-dasharray="none" stroke-dashoffset="0" stroke-linecap="butt" stroke-linejoin="round" stroke-miterlimit="4" stroke-opacity="1" stroke-width="0" opacity="1" rx="1.662" ry="1.732" transform="matrix(1.05273,0,0,1.01063,7.67587,-2.57606)"/><ellipse id="path4203" cx="14.684" cy="53.403" fill="#fff" fill-opacity="1" stroke="#ececec" stroke-dasharray="none" stroke-dashoffset="0" stroke-linecap="butt" stroke-linejoin="round" stroke-miterlimit="4" stroke-opacity="1" stroke-width="0" opacity="1" rx="1.662" ry="1.732" transform="matrix(1.05273,0,0,1.01063,-2.0211,-21.6237)"/><ellipse id="path4205" cx="14.684" cy="53.403" fill="#fff" fill-opacity="1" stroke="#ececec" stroke-dasharray="none" stroke-dashoffset="0" stroke-linecap="butt" stroke-linejoin="round" stroke-miterlimit="4" stroke-opacity="1" stroke-width="0" opacity="1" rx="1.662" ry="1.732" transform="matrix(1.05273,0,0,1.01063,15.849,-6.87043)"/><ellipse id="path4207" cx="14.684" cy="53.403" fill="#fff" fill-opacity="1" stroke="#ececec" stroke-dasharray="none" stroke-dashoffset="0" stroke-linecap="butt" stroke-linejoin="round" stroke-miterlimit="4" stroke-opacity="1" stroke-width="0" opacity="1" rx="1.662" ry="1.732" transform="matrix(1.05273,0,0,1.01063,6.42911,-26.1258)"/><ellipse id="path4209" cx="14.684" cy="53.403" fill="#fff" fill-opacity="1" stroke="#ececec" stroke-dasharray="none" stroke-dashoffset="0" stroke-linecap="butt" stroke-linejoin="round" stroke-miterlimit="4" stroke-opacity="1" stroke-width="0" opacity="1" rx="1.662" ry="1.732" transform="matrix(1.05273,0,0,1.01063,32.7495,-39.5631)"/><ellipse id="path4211" cx="14.684" cy="53.403" fill="#fff" fill-opacity="1" stroke="#ececec" stroke-dasharray="none" stroke-dashoffset="0" stroke-linecap="butt" stroke-linejoin="round" stroke-miterlimit="4" stroke-opacity="1" stroke-width="0" opacity="1" rx="1.662" ry="1.732" transform="matrix(1.05273,0,0,1.01063,42.1694,-21.1388)"/><ellipse id="path4213" cx="14.684" cy="53.403" fill="#fff" fill-opacity="1" stroke="#ececec" stroke-dasharray="none" stroke-dashoffset="0" stroke-linecap="butt" stroke-linejoin="round" stroke-miterlimit="4" stroke-opacity="1" stroke-width="0" opacity="1" rx="1.662" ry="1.732" transform="matrix(1.05273,0,0,1.01063,24.7148,-35.6843)"/><ellipse id="path4215" cx="14.684" cy="53.403" fill="#fff" fill-opacity="1" stroke="#ececec" stroke-dasharray="none" stroke-dashoffset="0" stroke-linecap="butt" stroke-linejoin="round" stroke-miterlimit="4" stroke-opacity="1" stroke-width="0" opacity="1" rx="1.662" ry="1.732" transform="matrix(1.05273,0,0,1.01063,34.1347,-16.8445)"/><path id="path4169" fill="#b95b51" fill-opacity=".878" fill-rule="evenodd" stroke="#0f0202" stroke-linecap="butt" stroke-linejoin="round" stroke-opacity="1" stroke-width="1" d="M 45.160174,58.181818 19.948052,10.38961 32,4.1558442 56.935065,52.08658 Z"/></g></svg>