<svg xmlns="http://www.w3.org/2000/svg" xmlns:svg="http://www.w3.org/2000/svg" id="svg53" version="1.1" viewBox="0 0 48 48"><metadata id="metadata57"/><defs id="defs7"><linearGradient id="linearGradient3764" x1="1" x2="47" gradientTransform="matrix(0,-1,1,0,-1.5e-6,47.999998)" gradientUnits="userSpaceOnUse"><stop id="stop2" stop-color="#b0e648" stop-opacity="1"/><stop id="stop4" offset="1" stop-color="#b9e85a" stop-opacity="1"/></linearGradient></defs><g id="g15"><path id="path9" d="m 36.31 5 c 5.859 4.062 9.688 10.831 9.688 18.5 c 0 12.426 -10.07 22.5 -22.5 22.5 c -7.669 0 -14.438 -3.828 -18.5 -9.688 c 1.037 1.822 2.306 3.499 3.781 4.969 c 4.085 3.712 9.514 5.969 15.469 5.969 c 12.703 0 23 -10.298 23 -23 c 0 -5.954 -2.256 -11.384 -5.969 -15.469 c -1.469 -1.475 -3.147 -2.744 -4.969 -3.781 z m 4.969 3.781 c 3.854 4.113 6.219 9.637 6.219 15.719 c 0 12.703 -10.297 23 -23 23 c -6.081 0 -11.606 -2.364 -15.719 -6.219 c 4.16 4.144 9.883 6.719 16.219 6.719 c 12.703 0 23 -10.298 23 -23 c 0 -6.335 -2.575 -12.06 -6.719 -16.219 z" opacity=".05"/><path id="path11" d="m 41.28 8.781 c 3.712 4.085 5.969 9.514 5.969 15.469 c 0 12.703 -10.297 23 -23 23 c -5.954 0 -11.384 -2.256 -15.469 -5.969 c 4.113 3.854 9.637 6.219 15.719 6.219 c 12.703 0 23 -10.298 23 -23 c 0 -6.081 -2.364 -11.606 -6.219 -15.719 z" opacity=".1"/><path id="path13" d="m 31.25 2.375 c 8.615 3.154 14.75 11.417 14.75 21.13 c 0 12.426 -10.07 22.5 -22.5 22.5 c -9.708 0 -17.971 -6.135 -21.12 -14.75 a 23 23 0 0 0 44.875 -7 a 23 23 0 0 0 -16 -21.875 z" opacity=".2"/></g><g id="g19" fill="#303126" fill-opacity="1"><path id="path17" fill="#303126" fill-opacity="1" d="M 24,1 C 36.703,1 47,11.297 47,24 47,36.703 36.703,47 24,47 11.297,47 1,36.703 1,24 1,11.297 11.297,1 24,1 Z"/></g><g id="g31"><g id="g29"><g id="g27" transform="translate(1,1)"><g id="g25" opacity=".1"><g id="g23"><path id="path21" d="m 25 10 c -0.551 0 -1 0.449 -1 1 0.046 1.014 0.02 2.07 0.02 3.098 c -2.292 0.456 -4.02 2.476 -4.02 4.902 c 0 0.575 0.116 1.119 0.295 1.633 l -6.295 19.367 8.762 -16.551 c 0.676 0.341 1.429 0.551 2.238 0.551 c 0.808 0 1.562 -0.21 2.238 -0.551 l 8.762 16.551 -6.293 -19.373 c 0.177 -0.512 0.293 -1.054 0.293 -1.627 0 -2.412 -1.711 -4.423 -3.98 -4.895 0 -1.169 0.012 -1.938 -0.02 -3.105 0 -0.551 -0.449 -1 -1 -1 m 0 6 c 1.656 0 3 1.34 3 3 0 1.66 -1.344 3 -3 3 -1.66 0 -3 -1.34 -3 -3 0 -1.66 1.344 -3 3 -3 z" transform="translate(-1,-1)"/></g></g></g></g></g><g id="g47"><g id="g45"><g id="g43"><path id="path33" fill="#be3d27" fill-opacity="1" fill-rule="nonzero" stroke="none" d="m 25.02 10 0 3.227 c 0 0.98 -0.445 1.773 -1 1.773 -0.551 0 -1 -0.793 -1 -1.773 l 0 -3.227 m 2 0"/><path id="path35" fill="#be3d27" fill-opacity="1" fill-rule="nonzero" stroke="none" d="m 25 10 c 0 0.551 -0.449 1 -1 1 -0.551 0 -1 -0.449 -1 -1 0 -0.551 0.449 -1 1 -1 0.551 0 1 0.449 1 1 m 0 0"/><path id="path37" fill="#ebecf1" fill-opacity="1" fill-rule="nonzero" stroke="none" d="M 22,22 13,39 19.5,19.004 M 22,22"/><path id="path39" fill="#ebecf1" fill-opacity="1" fill-rule="nonzero" stroke="none" d="M 26,22 35,39 28.504,19.004 M 26,22"/><path id="path41" fill="#be3d27" fill-opacity="1" fill-rule="nonzero" stroke="none" d="m 24 13 c -2.762 0 -5 2.238 -5 5 0 2.762 2.238 5 5 5 2.758 0 5 -2.238 5 -5 0 -2.762 -2.242 -5 -5 -5 m 0 2 c 1.656 0 3 1.34 3 3 0 1.66 -1.344 3 -3 3 -1.66 0 -3 -1.34 -3 -3 0 -1.66 1.344 -3 3 -3 m 0 0"/></g></g></g><g id="g51"><path id="path49" d="m 40.03 7.531 c 3.712 4.084 5.969 9.514 5.969 15.469 0 12.703 -10.297 23 -23 23 c -5.954 0 -11.384 -2.256 -15.469 -5.969 4.178 4.291 10.01 6.969 16.469 6.969 c 12.703 0 23 -10.298 23 -23 0 -6.462 -2.677 -12.291 -6.969 -16.469 z" opacity=".1"/></g></svg>