<svg xmlns="http://www.w3.org/2000/svg" viewBox="0 0 48 48"><defs><linearGradient id="linearGradient3764" x1="1" x2="47" gradientTransform="matrix(0,-1,1,0,-1.5e-6,47.999998)" gradientUnits="userSpaceOnUse"><stop stop-color="#70bbde" stop-opacity="1"/><stop offset="1" stop-color="#80c4e2" stop-opacity="1"/></linearGradient></defs><g><path d="m 36.31 5 c 5.859 4.062 9.688 10.831 9.688 18.5 c 0 12.426 -10.07 22.5 -22.5 22.5 c -7.669 0 -14.438 -3.828 -18.5 -9.688 c 1.037 1.822 2.306 3.499 3.781 4.969 c 4.085 3.712 9.514 5.969 15.469 5.969 c 12.703 0 23 -10.298 23 -23 c 0 -5.954 -2.256 -11.384 -5.969 -15.469 c -1.469 -1.475 -3.147 -2.744 -4.969 -3.781 z m 4.969 3.781 c 3.854 4.113 6.219 9.637 6.219 15.719 c 0 12.703 -10.297 23 -23 23 c -6.081 0 -11.606 -2.364 -15.719 -6.219 c 4.16 4.144 9.883 6.719 16.219 6.719 c 12.703 0 23 -10.298 23 -23 c 0 -6.335 -2.575 -12.06 -6.719 -16.219 z" opacity=".05"/><path d="m 41.28 8.781 c 3.712 4.085 5.969 9.514 5.969 15.469 c 0 12.703 -10.297 23 -23 23 c -5.954 0 -11.384 -2.256 -15.469 -5.969 c 4.113 3.854 9.637 6.219 15.719 6.219 c 12.703 0 23 -10.298 23 -23 c 0 -6.081 -2.364 -11.606 -6.219 -15.719 z" opacity=".1"/><path d="m 31.25 2.375 c 8.615 3.154 14.75 11.417 14.75 21.13 c 0 12.426 -10.07 22.5 -22.5 22.5 c -9.708 0 -17.971 -6.135 -21.12 -14.75 a 23 23 0 0 0 44.875 -7 a 23 23 0 0 0 -16 -21.875 z" opacity=".2"/></g><g><path fill="url(#linearGradient3764)" fill-opacity="1" d="m 24 1 c 12.703 0 23 10.297 23 23 c 0 12.703 -10.297 23 -23 23 -12.703 0 -23 -10.297 -23 -23 0 -12.703 10.297 -23 23 -23 z"/></g><path fill="#000" fill-opacity="1" fill-rule="evenodd" stroke="none" d="m 25 12 a 3.5 3.5 0 0 0 -3.5 3.5 3.5 3.5 0 0 0 0.008 0.244 l -2.02 1.133 A 4 4 0 0 0 17 16 a 4 4 0 0 0 -4 4 4 4 0 0 0 2 3.459 l 0 3.082 A 4 4 0 0 0 13 30 a 4 4 0 0 0 4 4 4 4 0 0 0 2.496 -0.875 l 2.02 1.135 A 3.5 3.5 0 0 0 21.5 34.5 3.5 3.5 0 0 0 25 38 3.5 3.5 0 0 0 28.5 34.5 3.5 3.5 0 0 0 28.492 34.26 l 2.02 -1.133 A 4 4 0 0 0 33 34 4 4 0 0 0 37 30 4 4 0 0 0 35 26.541 l 0 -3.082 A 4 4 0 0 0 37 20 4 4 0 0 0 33 16 4 4 0 0 0 30.504 16.875 L 28.488 15.74 A 3.5 3.5 0 0 0 28.5 15.5 3.5 3.5 0 0 0 25 12 m 2.02 6.355 2.02 1.137 A 4 4 0 0 0 29 20 a 4 4 0 0 0 0.039 0.516 l -1.816 1.162 A 4 4 0 0 0 25 21 4 4 0 0 0 22.777 21.678 L 20.963 20.516 A 4 4 0 0 0 21 20 4 4 0 0 0 20.963 19.492 l 2.02 -1.135 A 3.5 3.5 0 0 0 25 19 3.5 3.5 0 0 0 27.02 18.355 m 3.814 5 A 4 4 0 0 0 31 23.459 l 0 3.082 a 4 4 0 0 0 -0.346 0.225 l -1.719 -1.074 A 4 4 0 0 0 29 25 4 4 0 0 0 28.967 24.521 l 1.865 -1.166 z m -11.66 0.002 1.859 1.162 A 4 4 0 0 0 21 25 a 4 4 0 0 0 0.061 0.691 l -1.717 1.074 A 4 4 0 0 0 19 26.541 l 0 -3.082 a 4 4 0 0 0 0.172 -0.102 z m 3.482 4.877 A 4 4 0 0 0 25 29 4 4 0 0 0 27.344 28.23 l 1.721 1.074 A 4 4 0 0 0 29 30 a 4 4 0 0 0 0.037 0.508 l -2.02 1.135 A 3.5 3.5 0 0 0 25 31 3.5 3.5 0 0 0 22.982 31.645 L 20.963 30.508 A 4 4 0 0 0 21 30 4 4 0 0 0 20.938 29.31 l 1.717 -1.072 z" color="#000" color-interpolation="sRGB" color-interpolation-filters="linearRGB" color-rendering="auto" display="inline" image-rendering="auto" isolation="auto" mix-blend-mode="normal" opacity=".1" shape-rendering="auto" solid-color="#000000" solid-opacity="1" visibility="visible" white-space="normal"/><g><path d="m 40.03 7.531 c 3.712 4.084 5.969 9.514 5.969 15.469 0 12.703 -10.297 23 -23 23 c -5.954 0 -11.384 -2.256 -15.469 -5.969 4.178 4.291 10.01 6.969 16.469 6.969 c 12.703 0 23 -10.298 23 -23 0 -6.462 -2.677 -12.291 -6.969 -16.469 z" opacity=".1"/></g><g><path fill="#c8c8c8" fill-opacity="1" fill-rule="evenodd" stroke="none" d="m 24 12.779 -8.736 4.914 1.473 2.613 l 7.264 -4.086 7.264 4.086 1.473 -2.613 -8.736 -4.914 m 0 9.451 -10.939 6.838 l 10.939 6.152 10.939 -6.152 -10.939 -6.838 m 0 3.539 5.061 3.162 l -5.061 2.848 -5.061 -2.848 5.061 -3.162" color="#000" color-interpolation="sRGB" color-interpolation-filters="linearRGB" color-rendering="auto" display="inline" image-rendering="auto" isolation="auto" mix-blend-mode="normal" opacity="1" shape-rendering="auto" solid-color="#000000" solid-opacity="1" visibility="visible" white-space="normal"/><circle cx="24" cy="24" r="4" fill="#f9f9f9" fill-opacity="1" stroke="none" opacity="1"/><circle cx="16" cy="29" r="4" fill="#f9f9f9" fill-opacity="1" stroke="none" opacity="1"/><circle cx="16" cy="19" r="4" fill="#f9f9f9" fill-opacity="1" stroke="none" opacity="1"/><circle cx="32" cy="29" r="4" fill="#f9f9f9" fill-opacity="1" stroke="none" opacity="1"/><circle cx="32" cy="19" r="4" fill="#f9f9f9" fill-opacity="1" stroke="none" opacity="1"/><circle cx="24" cy="33.5" r="3.5" fill="#c8c8c8" fill-opacity="1" stroke="none" opacity="1"/><circle cx="24" cy="14.5" r="3.5" fill="#c8c8c8" fill-opacity="1" stroke="none" opacity="1"/><path fill="#f9f9f9" fill-opacity="1" fill-rule="evenodd" stroke="none" d="m 14 15.7 0 13.3 4 0 0 -6.75 6 3.75 6 -3.75 0 6.75 4 0 0 -13.3 -10 6.4 z" color="#000" color-interpolation="sRGB" color-interpolation-filters="linearRGB" color-rendering="auto" display="inline" image-rendering="auto" isolation="auto" mix-blend-mode="normal" opacity="1" shape-rendering="auto" solid-color="#000000" solid-opacity="1" visibility="visible" white-space="normal"/></g></svg>