<svg xmlns="http://www.w3.org/2000/svg" version="1.1" viewBox="0 0 48 48"><defs><linearGradient id="linearGradient7796" x2="0" y1="47" y2="1" gradientUnits="userSpaceOnUse"><stop offset="0" stop-color="#ee9332"/><stop offset="1" stop-color="#ed9e49"/></linearGradient></defs><path d="m36.31 5c5.859 4.062 9.688 10.831 9.688 18.5 0 12.426-10.07 22.5-22.5 22.5-7.669 0-14.438-3.828-18.5-9.688 1.037 1.822 2.306 3.499 3.781 4.969 4.085 3.712 9.514 5.969 15.469 5.969 12.703 0 23-10.298 23-23 0-5.954-2.256-11.384-5.969-15.469-1.469-1.475-3.147-2.744-4.969-3.781zm4.969 3.781c3.854 4.113 6.219 9.637 6.219 15.719 0 12.703-10.297 23-23 23-6.081 0-11.606-2.364-15.719-6.219 4.16 4.144 9.883 6.719 16.219 6.719 12.703 0 23-10.298 23-23 0-6.335-2.575-12.06-6.719-16.219z" opacity=".05"/><path d="m41.28 8.781c3.712 4.085 5.969 9.514 5.969 15.469 0 12.703-10.297 23-23 23-5.954 0-11.384-2.256-15.469-5.969 4.113 3.854 9.637 6.219 15.719 6.219 12.703 0 23-10.298 23-23 0-6.081-2.364-11.606-6.219-15.719z" opacity=".1"/><path d="m31.25 2.375c8.615 3.154 14.75 11.417 14.75 21.13 0 12.426-10.07 22.5-22.5 22.5-9.708 0-17.971-6.135-21.12-14.75a23 23 0 0 0 44.875 -7 23 23 0 0 0 -16 -21.875z" opacity=".2"/><path fill="url(#linearGradient7796)" d="m24 1c12.703 0 23 10.297 23 23s-10.297 23-23 23-23-10.297-23-23 10.297-23 23-23z"/><path d="m40.03 7.531c3.712 4.084 5.969 9.514 5.969 15.469 0 12.703-10.297 23-23 23-5.954 0-11.384-2.256-15.469-5.969 4.178 4.291 10.01 6.969 16.469 6.969 12.703 0 23-10.298 23-23 0-6.462-2.677-12.291-6.969-16.469z" opacity=".1"/><path fill-opacity=".102" d="m25 12c-1 0-1 0-1 1v3.086a6 6 0 0 0 -5 5.914 6 6 0 0 0 5 5.91v0.09c-1 0-1 0-1 1v1l-4-3c-1-1-1-1-1-2v-5c0-1 0-1 1-2s0-3-3-5c-1 0-3 2-3 3 2 1 3 2 3 3-2 0-2 0-2 1v1c0 2 2 1 2 3h-1c0 1 0 1 1 2l7 6v7h4v-7l7-6c1-1 1-1 1-2h-1c0-2 2-1 2-3v-1c0-1 0-1-2-1 0-1 1-2 3-3 0-1-2-3-3-3-3 2-4 4-3 5s1 1 1 2v5c0 1 0 1-1 2l-4 3v-1c0-1 0-1-1-1v-0.086a6 6 0 0 0 5 -5.914 6 6 0 0 0 -5 -5.91v-3.09c0-1 0-1-1-1z"/><path fill="#a05a2c" d="m22 31v7h4v-7z"/><ellipse cx="24" cy="21" fill="#cafefe" rx="6" ry="6"/><ellipse cx="24" cy="21" fill="#04fbfb" rx="3" ry="3"/><path fill="#fd5" d="m23 12v15c-1 0-1 0-1 1v1l-4-3c-1-1-1-1-1-2v-5c0-1 0-1 1-2s0-3-3-5c-1 0-3 2-3 3 2 1 3 2 3 3-2 0-2 0-2 1v1c0 2 2 1 2 3h-1c0 1 0 1 1 2l7 6h4l7-6c1-1 1-1 1-2h-1c0-2 2-1 2-3v-1c0-1 0-1-2-1 0-1 1-2 3-3 0-1-2-3-3-3-3 2-4 4-3 5s1 1 1 2v5c0 1 0 1-1 2l-4 3v-1c0-1 0-1-1-1v-15c0-1 0-1-1-1s-1 0-1 1z"/></svg>