<svg xmlns="http://www.w3.org/2000/svg" version="1.1" viewBox="0 0 48 48"><defs><linearGradient id="linearGradient3764" x1="1" x2="47" gradientTransform="matrix(0 -1 1 0 -1.5e-6 48)" gradientUnits="userSpaceOnUse"><stop offset="0" stop-color="#91c9d7"/><stop offset="1" stop-color="#a0d0dc"/></linearGradient></defs><path d="m36.31 5c5.859 4.062 9.688 10.831 9.688 18.5 0 12.426-10.07 22.5-22.5 22.5-7.669 0-14.438-3.828-18.5-9.688 1.037 1.822 2.306 3.499 3.781 4.969 4.085 3.712 9.514 5.969 15.469 5.969 12.703 0 23-10.298 23-23 0-5.954-2.256-11.384-5.969-15.469-1.469-1.475-3.147-2.744-4.969-3.781zm4.969 3.781c3.854 4.113 6.219 9.637 6.219 15.719 0 12.703-10.297 23-23 23-6.081 0-11.606-2.364-15.719-6.219 4.16 4.144 9.883 6.719 16.219 6.719 12.703 0 23-10.298 23-23 0-6.335-2.575-12.06-6.719-16.219z" opacity=".05"/><path d="m41.28 8.781c3.712 4.085 5.969 9.514 5.969 15.469 0 12.703-10.297 23-23 23-5.954 0-11.384-2.256-15.469-5.969 4.113 3.854 9.637 6.219 15.719 6.219 12.703 0 23-10.298 23-23 0-6.081-2.364-11.606-6.219-15.719z" opacity=".1"/><path d="m31.25 2.375c8.615 3.154 14.75 11.417 14.75 21.13 0 12.426-10.07 22.5-22.5 22.5-9.708 0-17.971-6.135-21.12-14.75a23 23 0 0 0 44.875 -7 23 23 0 0 0 -16 -21.875z" opacity=".2"/><path fill="url(#linearGradient3764)" d="m24 1c12.703 0 23 10.297 23 23s-10.297 23-23 23-23-10.297-23-23 10.297-23 23-23z"/><path d="m40.03 7.531c3.712 4.084 5.969 9.514 5.969 15.469 0 12.703-10.297 23-23 23-5.954 0-11.384-2.256-15.469-5.969 4.178 4.291 10.01 6.969 16.469 6.969 12.703 0 23-10.298 23-23 0-6.462-2.677-12.291-6.969-16.469z" opacity=".1"/><path d="m19 12c-0.554 0-1 0.446-1 1v1h-1c-0.554 0-1 0.446-1 1v2c-0.554 0-1 0.446-1 1v4h-1c-0.554 0-1 0.446-1 1v4c0 0.554 0.446 1 1 1h1v2c0 0.554 0.446 1 1 1h1v1c0 0.554 0.446 1 1 1h7.4902c0 0.554 0.446 1 1 1h1.5098v1c0 0.554 0.446 1 1 1h5c0.554 0 1-0.446 1-1v-1h1c0.554 0 1-0.446 1-1v-9c0-0.554-0.446-1-1-1h-2v-1c0-0.554-0.446-1-1-1h-3v-5c0-0.554-0.446-1-1-1h-1v-2c0-0.554-0.446-1-1-1z" opacity=".1"/><path fill="#138dbf" d="m18 11c-0.554 0-1 0.446-1 1v1h-1c-0.554 0-1 0.446-1 1v2c-0.554 0-1 0.446-1 1v4h-1c-0.554 0-1 0.446-1 1v4c0 0.554 0.446 1 1 1h1v2c0 0.554 0.446 1 1 1h1v1c0 0.554 0.446 1 1 1h7.4902c0 0.554 0.446 1 1 1h1.5098v1c0 0.554 0.446 1 1 1h5c0.554 0 1-0.446 1-1v-1h1c0.554 0 1-0.446 1-1v-9c0-0.554-0.446-1-1-1h-2v-1c0-0.554-0.446-1-1-1h-3v-5c0-0.554-0.446-1-1-1h-1v-2c0-0.554-0.446-1-1-1z"/><rect width="2" height="4" x="28" y="24" fill="#034761" rx=".5"/><rect width="2" height="4" x="32" y="24" fill="#034761" rx=".5"/><rect width="2" height="6" x="18" y="14" fill="#034761" rx=".5"/><rect width="2" height="6" x="22" y="14" fill="#034761" rx=".5"/></svg>