<svg xmlns="http://www.w3.org/2000/svg" version="1.1" viewBox="0 0 48 48"><defs><linearGradient id="linearGradient889" x2="0" y1="47" y2="1" gradientUnits="userSpaceOnUse"><stop offset="0" stop-color="#303030"/><stop offset="1" stop-color="#3a3a3a"/></linearGradient><linearGradient id="linearGradient940" x2="0" y1="47" y2="1" gradientUnits="userSpaceOnUse"><stop offset="0" stop-color="#fb8000"/><stop offset="1" stop-color="#ff8a11"/></linearGradient></defs><path d="m36.31 5c5.859 4.062 9.688 10.831 9.688 18.5 0 12.426-10.07 22.5-22.5 22.5-7.669 0-14.438-3.828-18.5-9.688 1.037 1.822 2.306 3.499 3.781 4.969 4.085 3.712 9.514 5.969 15.469 5.969 12.703 0 23-10.298 23-23 0-5.954-2.256-11.384-5.969-15.469-1.469-1.475-3.147-2.744-4.969-3.781zm4.969 3.781c3.854 4.113 6.219 9.637 6.219 15.719 0 12.703-10.297 23-23 23-6.081 0-11.606-2.364-15.719-6.219 4.16 4.144 9.883 6.719 16.219 6.719 12.703 0 23-10.298 23-23 0-6.335-2.575-12.06-6.719-16.219z" opacity=".05"/><path d="m41.28 8.781c3.712 4.085 5.969 9.514 5.969 15.469 0 12.703-10.297 23-23 23-5.954 0-11.384-2.256-15.469-5.969 4.113 3.854 9.637 6.219 15.719 6.219 12.703 0 23-10.298 23-23 0-6.081-2.364-11.606-6.219-15.719z" opacity=".1"/><path d="m31.25 2.375c8.615 3.154 14.75 11.417 14.75 21.13 0 12.426-10.07 22.5-22.5 22.5-9.708 0-17.971-6.135-21.12-14.75a23 23 0 0 0 44.875-7 23 23 0 0 0-16-21.875z" opacity=".2"/><path fill="url(#linearGradient940)" d="m1.0234 24.682a23 23 0 0 0 22.977 22.318 23 23 0 0 0 22.965-22.311l-45.941-0.007812z"/><path d="m46.967 24.68-0.001953 0.009765-45.941-0.007812a23 23 0 0 0 0.011719 0.3418l23.965 15.977 21.865-14.576a23 23 0 0 0 0.10156-1.7441z" opacity=".1"/><path fill="url(#linearGradient889)" d="m24 1a23 23 0 0 0-23 23 23 23 0 0 0 0.023438 0.68164l22.977 15.318 22.965-15.311a23 23 0 0 0 0.035156-0.68945 23 23 0 0 0-23-23z"/><path d="m11 20c-0.554 0-1 0.446-1 1v7c0 0.554 0.446 1 1 1h1c0.554 0 1-0.446 1-1v-7h0.5c0.277 0 0.5-0.223 0.5-0.5s-0.223-0.5-0.5-0.5h-2.5zm3 0.5a0.5 0.5 0 0 0 0.5 0.5 0.5 0.5 0 0 0 0.5-0.5 0.5 0.5 0 0 0-0.5-0.5 0.5 0.5 0 0 0-0.5 0.5zm1 0c0 0.277 0.223 0.5 0.5 0.5h0.5v7c0 0.554 0.446 1 1 1h1c0.554 0 1-0.446 1-1v-7c0-0.554-0.446-1-1-1h-2.5c-0.277 0-0.5 0.223-0.5 0.5zm6-0.5c-0.554 0-1 0.446-1 1v7c0 0.554 0.446 1 1 1h2.5c0.277 0 0.5-0.223 0.5-0.5s-0.223-0.5-0.5-0.5h-0.5v-7h0.5c0.277 0 0.5-0.223 0.5-0.5s-0.223-0.5-0.5-0.5h-2.5zm3 0.5a0.5 0.5 0 0 0 0.5 0.5 0.5 0.5 0 0 0 0.5-0.5 0.5 0.5 0 0 0-0.5-0.5 0.5 0.5 0 0 0-0.5 0.5zm1 0c0 0.277 0.223 0.5 0.5 0.5h0.5v7h-0.5c-0.277 0-0.5 0.223-0.5 0.5s0.223 0.5 0.5 0.5h2.5c0.554 0 1-0.446 1-1v-7c0-0.554-0.446-1-1-1h-2.5c-0.277 0-0.5 0.223-0.5 0.5zm0 8a0.5 0.5 0 0 0-0.5-0.5 0.5 0.5 0 0 0-0.5 0.5 0.5 0.5 0 0 0 0.5 0.5 0.5 0.5 0 0 0 0.5-0.5zm6-8.5c-0.554 0-1 0.446-1 1v7c0 0.554 0.446 1 1 1h1c0.554 0 1-0.446 1-1v-7h0.5c0.277 0 0.5-0.223 0.5-0.5s-0.223-0.5-0.5-0.5h-2.5zm3 0.5a0.5 0.5 0 0 0 0.5 0.5 0.5 0.5 0 0 0 0.5-0.5 0.5 0.5 0 0 0-0.5-0.5 0.5 0.5 0 0 0-0.5 0.5zm1 0c0 0.277 0.223 0.5 0.5 0.5h0.5v7c0 0.554 0.446 1 1 1h1c0.554 0 1-0.446 1-1v-7c0-0.554-0.446-1-1-1h-2.5c-0.277 0-0.5 0.223-0.5 0.5z" opacity=".1" paint-order="normal"/><path d="m40.03 7.531c3.712 4.084 5.969 9.514 5.969 15.469 0 12.703-10.297 23-23 23-5.954 0-11.384-2.256-15.469-5.969 4.178 4.291 10.01 6.969 16.469 6.969 12.703 0 23-10.298 23-23 0-6.462-2.677-12.291-6.969-16.469z" opacity=".1"/><g fill="#eee"><g fill="#eee" transform="translate(-1)"><path fill="#eee" d="m11 19c-0.554 0-1 0.446-1 1v7c0 0.554 0.446 1 1 1h1c0.554 0 1-0.446 1-1v-7c0.277 0 0.5-0.223 0.5-0.5s-0.223-0.5-0.5-0.5z" paint-order="normal"/><circle cx="14.5" cy="19.5" r=".5" fill="#eee" paint-order="normal"/><path fill="#eee" d="m18 19c0.554 0 1 0.446 1 1v7c0 0.554-0.446 1-1 1h-1c-0.554 0-1-0.446-1-1v-7c-0.277 0-0.5-0.223-0.5-0.5s0.223-0.5 0.5-0.5z" paint-order="normal"/></g><g fill="#eee" transform="translate(-1)"><path fill="#eee" d="m21 19c-0.554 0-1 0.446-1 1v7c0 0.554 0.446 1 1 1h2c0.277 0 0.5-0.223 0.5-0.5s-0.223-0.5-0.5-0.5v-7c0.277 0 0.5-0.223 0.5-0.5s-0.223-0.5-0.5-0.5z" paint-order="normal"/><path fill="#eee" d="m28 19c0.554 0 1 0.446 1 1v7c0 0.554-0.446 1-1 1h-2c-0.277 0-0.5-0.223-0.5-0.5s0.223-0.5 0.5-0.5v-7c-0.277 0-0.5-0.223-0.5-0.5s0.223-0.5 0.5-0.5z" paint-order="normal"/><circle cx="24.5" cy="19.5" r=".5" fill="#eee" paint-order="normal"/><circle cx="24.5" cy="27.5" r=".5" fill="#eee" paint-order="normal"/></g><g fill="#eee" transform="translate(-1)"><path fill="#eee" d="m31 19c-0.554 0-1 0.446-1 1v7c0 0.554 0.446 1 1 1h1c0.554 0 1-0.446 1-1v-7c0.277 0 0.5-0.223 0.5-0.5s-0.223-0.5-0.5-0.5z" paint-order="normal"/><circle cx="34.5" cy="19.5" r=".5" fill="#eee" paint-order="normal"/><path fill="#eee" d="m38 19c0.554 0 1 0.446 1 1v7c0 0.554-0.446 1-1 1h-1c-0.554 0-1-0.446-1-1v-7c-0.277 0-0.5-0.223-0.5-0.5s0.223-0.5 0.5-0.5z" paint-order="normal"/></g></g></svg>