<svg xmlns="http://www.w3.org/2000/svg" version="1.1" viewBox="0 0 48 48"><defs><linearGradient id="linearGradient3845" x2="0" y1="47" y2="1" gradientUnits="userSpaceOnUse"><stop offset="0" stop-color="#48e4a4"/><stop offset="1" stop-color="#59e7ad"/></linearGradient></defs><path d="m36.31 5c5.859 4.062 9.688 10.831 9.688 18.5 0 12.426-10.07 22.5-22.5 22.5-7.669 0-14.438-3.828-18.5-9.688 1.037 1.822 2.306 3.499 3.781 4.969 4.085 3.712 9.514 5.969 15.469 5.969 12.703 0 23-10.298 23-23 0-5.954-2.256-11.384-5.969-15.469-1.469-1.475-3.147-2.744-4.969-3.781zm4.969 3.781c3.854 4.113 6.219 9.637 6.219 15.719 0 12.703-10.297 23-23 23-6.081 0-11.606-2.364-15.719-6.219 4.16 4.144 9.883 6.719 16.219 6.719 12.703 0 23-10.298 23-23 0-6.335-2.575-12.06-6.719-16.219z" opacity=".05"/><path d="m41.28 8.781c3.712 4.085 5.969 9.514 5.969 15.469 0 12.703-10.297 23-23 23-5.954 0-11.384-2.256-15.469-5.969 4.113 3.854 9.637 6.219 15.719 6.219 12.703 0 23-10.298 23-23 0-6.081-2.364-11.606-6.219-15.719z" opacity=".1"/><path d="m31.25 2.375c8.615 3.154 14.75 11.417 14.75 21.13 0 12.426-10.07 22.5-22.5 22.5-9.708 0-17.971-6.135-21.12-14.75a23 23 0 0 0 44.875 -7 23 23 0 0 0 -16 -21.875z" opacity=".2"/><path fill="url(#linearGradient3845)" d="m24 1c12.703 0 23 10.297 23 23s-10.297 23-23 23-23-10.297-23-23 10.297-23 23-23z"/><path d="m40.03 7.531c3.712 4.084 5.969 9.514 5.969 15.469 0 12.703-10.297 23-23 23-5.954 0-11.384-2.256-15.469-5.969 4.178 4.291 10.01 6.969 16.469 6.969 12.703 0 23-10.298 23-23 0-6.462-2.677-12.291-6.969-16.469z" opacity=".1"/><g transform="matrix(3.5433 0 0 3.5433 -8.9638e-8 -9)"><path fill-opacity=".098" d="m4.798 3.669c-0.313 0-0.564 0.252-0.564 0.564h-0.415c-0.083 0-0.15 0.067-0.15 0.15v0.265c0 0.083 0.067 0.15 0.15 0.15h0.415v0.564h-0.415c-0.083 0-0.15 0.067-0.15 0.15v0.265c0 0.083 0.067 0.15 0.15 0.15h0.415v0.564h-0.415c-0.083 0-0.15 0.067-0.15 0.15v0.265c0 0.083 0.067 0.15 0.15 0.15h0.415v0.564h-0.415c-0.083 0-0.15 0.067-0.15 0.15v0.265c0 0.083 0.067 0.15 0.15 0.15h0.415v0.564h-0.415c-0.083 0-0.15 0.067-0.15 0.15v0.265c0 0.083 0.067 0.15 0.15 0.15h0.415v0.564h-0.415c-0.083 0-0.15 0.067-0.15 0.15v0.265c0 0.083 0.067 0.15 0.15 0.15h0.415c0 0.313 0.252 0.564 0.564 0.564h5.08c0.313 0 0.564-0.252 0.564-0.564v-6.209c0-0.313-0.252-0.564-0.564-0.564h-5.08z" transform="translate(0 2.2578)"/><rect width="6.209" height="7.338" x="3.951" y="3.387" fill="#4469a3" rx=".564" transform="translate(0 2.2578)"/><path fill="#424242" d="m4.516 5.644c-0.313 0-0.564 0.252-0.564 0.564v6.209c0 0.313 0.252 0.564 0.564 0.564h0.564v-7.338h-0.564z"/><rect width="1.129" height=".564" x="3.387" y="8.467" fill="gray" rx=".15"/><rect width="1.129" height=".564" x="3.387" y="9.596" fill="gray" rx=".15"/><rect width="1.129" height=".564" x="3.387" y="10.724" fill="gray" rx=".15"/><rect width="1.129" height=".564" x="3.387" y="11.853" fill="gray" rx=".15"/><rect width="1.129" height=".564" x="3.387" y="7.338" fill="gray" rx=".15"/><rect width="1.129" height=".564" x="3.387" y="6.209" fill="gray" rx=".15"/></g></svg>