<svg xmlns="http://www.w3.org/2000/svg" id="svg2" version="1.1" viewBox="0 0 48 48"><metadata id="metadata45"/><defs id="defs4"><linearGradient id="linearGradient3764" x1="1" x2="47" gradientTransform="matrix(0 -1 1 0 -1.5e-6 48)" gradientUnits="userSpaceOnUse"><stop id="stop7" offset="0" stop-color="#dfe6f1"/><stop id="stop9" offset="1" stop-color="#edf1f7"/></linearGradient></defs><g id="g11"><path id="path13" d="m36.31 5c5.859 4.062 9.688 10.831 9.688 18.5 0 12.426-10.07 22.5-22.5 22.5-7.669 0-14.438-3.828-18.5-9.688 1.037 1.822 2.306 3.499 3.781 4.969 4.085 3.712 9.514 5.969 15.469 5.969 12.703 0 23-10.298 23-23 0-5.954-2.256-11.384-5.969-15.469-1.469-1.475-3.147-2.744-4.969-3.781zm4.969 3.781c3.854 4.113 6.219 9.637 6.219 15.719 0 12.703-10.297 23-23 23-6.081 0-11.606-2.364-15.719-6.219 4.16 4.144 9.883 6.719 16.219 6.719 12.703 0 23-10.298 23-23 0-6.335-2.575-12.06-6.719-16.219z" opacity=".05"/><path id="path15" d="m41.28 8.781c3.712 4.085 5.969 9.514 5.969 15.469 0 12.703-10.297 23-23 23-5.954 0-11.384-2.256-15.469-5.969 4.113 3.854 9.637 6.219 15.719 6.219 12.703 0 23-10.298 23-23 0-6.081-2.364-11.606-6.219-15.719z" opacity=".1"/><path id="path17" d="m31.25 2.375c8.615 3.154 14.75 11.417 14.75 21.13 0 12.426-10.07 22.5-22.5 22.5-9.708 0-17.971-6.135-21.12-14.75a23 23 0 0 0 44.875 -7 23 23 0 0 0 -16 -21.875z" opacity=".2"/></g><g id="g19"><path id="path21" fill="url(#linearGradient3764)" d="m24 1c12.703 0 23 10.297 23 23s-10.297 23-23 23-23-10.297-23-23 10.297-23 23-23z"/></g><g id="g35"><path id="path37" d="m40.03 7.531c3.712 4.084 5.969 9.514 5.969 15.469 0 12.703-10.297 23-23 23-5.954 0-11.384-2.256-15.469-5.969 4.178 4.291 10.01 6.969 16.469 6.969 12.703 0 23-10.298 23-23 0-6.462-2.677-12.291-6.969-16.469z" opacity=".1"/></g><g id="g4516" transform="matrix(1.0833 0 0 1.0833 9.9167 -240.25)"><g id="g4542"><path id="path4591" d="m13.923 231.92-12 6.9231v14.308l1.8462 1.3846 1.8462 1.3846v-14.077l8.3077-4.8462 8.3077 4.8462v14.077l1.8462-1.3846 1.8462-1.3846v-14.308zm0 9.2308-4.6154 2.7692v4.7993l4.6154 3 4.6154-3v-4.7993z" opacity=".1"/><path id="path4495" fill="#a3b7d6" d="m1.9231 238.38 11.077-5.5385 11.077 5.5385-0.92308 15.231-1.8462 1.3846v-14.077l-8.3077-4.8462-8.3077 4.8462v14.077l-1.8462-1.3846z"/><path id="path4507" fill="#a3b7d6" d="m8.3846 243 4.6154 5.3538 4.6154-5.3538-4.6154-2.7692z"/><path id="rect4502" fill="#5d779b" d="m8.3846 243v4.8l4.6154 3 4.6154-3v-4.8l-4.6154 2.7692z"/></g><path id="rect4492" fill="#5d779b" d="m43 224-13 7.5v15.5l2 1.5v-15.5l11-6.5 11 6.5v15.5l2-1.5v-15.5z" transform="matrix(.92308 0 0 .92308 -26.692 24.231)"/></g></svg>