<svg xmlns="http://www.w3.org/2000/svg" xmlns:xlink="http://www.w3.org/1999/xlink" version="1.1" viewBox="0 0 48 48"><defs><linearGradient id="linearGradient878" x2="0" y1="47" y2="1" gradientUnits="userSpaceOnUse"><stop offset="0" stop-color="#a2e193"/><stop offset="1" stop-color="#afe5a3"/></linearGradient></defs><path d="m36.31 5c5.859 4.062 9.688 10.831 9.688 18.5 0 12.426-10.07 22.5-22.5 22.5-7.669 0-14.438-3.828-18.5-9.688 1.037 1.822 2.306 3.499 3.781 4.969 4.085 3.712 9.514 5.969 15.469 5.969 12.703 0 23-10.298 23-23 0-5.954-2.256-11.384-5.969-15.469-1.469-1.475-3.147-2.744-4.969-3.781zm4.969 3.781c3.854 4.113 6.219 9.637 6.219 15.719 0 12.703-10.297 23-23 23-6.081 0-11.606-2.364-15.719-6.219 4.16 4.144 9.883 6.719 16.219 6.719 12.703 0 23-10.298 23-23 0-6.335-2.575-12.06-6.719-16.219z" opacity=".05"/><path d="m41.28 8.781c3.712 4.085 5.969 9.514 5.969 15.469 0 12.703-10.297 23-23 23-5.954 0-11.384-2.256-15.469-5.969 4.113 3.854 9.637 6.219 15.719 6.219 12.703 0 23-10.298 23-23 0-6.081-2.364-11.606-6.219-15.719z" opacity=".1"/><path d="m31.25 2.375c8.615 3.154 14.75 11.417 14.75 21.13 0 12.426-10.07 22.5-22.5 22.5-9.708 0-17.971-6.135-21.12-14.75a23 23 0 0 0 44.875 -7 23 23 0 0 0 -16 -21.875z" opacity=".2"/><g fill="#a2e193"><path fill="url(#linearGradient878)" d="m24 1c12.703 0 23 10.297 23 23s-10.297 23-23 23-23-10.297-23-23 10.297-23 23-23z"/></g><path d="m11 14v9 12h1v1h26v-1h1v-12-9h-28z" opacity=".1"/><path d="m40.03 7.531c3.712 4.084 5.969 9.514 5.969 15.469 0 12.703-10.297 23-23 23-5.954 0-11.384-2.256-15.469-5.969 4.178 4.291 10.01 6.969 16.469 6.969 12.703 0 23-10.298 23-23 0-6.462-2.677-12.291-6.969-16.469z" opacity=".1"/><path fill="#072600" d="m10 22v12h1v1h26v-1h1v-12h-28z"/><rect width="24" height="1" x="12" y="33" fill="#51bf3b"/><rect width="28" height="9" x="10" y="13" fill="#136600"/><rect width="26" height="19" x="11" y="14" fill="#d1e3ca"/><path fill="#353535" d="m13 15v3 1h1.5v2h-2.5v1h24v-1h-1v-2h-1v2h-2v-2h2v-1h-2v-2h2v-1h-2-1v6h-2v-2h-1v2h-2v-2h2v-1h-2v-2h2v-1h-2-1v6h-2v-6h-4v6h-3.5v-2h1.5v-1-3h-1v3h-2v-3h-1zm15 1v2h1v-2h-1zm6 0v2h1v-2h-1zm-14 0h2v2h-2v-2zm0 3h2v2h-2v-2z"/><rect width="12" height="1" x="12" y="25" fill="#353535"/><rect width="12" height="1" x="12" y="27" fill="#353535"/><rect width="12" height="1" x="12" y="29" fill="#353535"/><rect width="12" height="1" x="12" y="31" fill="#353535"/><path fill="#353535" d="m25 25v7h10v-7zm1 1h8v5h-8z"/></svg>