<svg xmlns="http://www.w3.org/2000/svg" xmlns:xlink="http://www.w3.org/1999/xlink" viewBox="0 0 48 48"><defs><linearGradient id="linearGradient3764" x1="1" x2="47" gradientTransform="matrix(0,-1,1,0,-1.5e-6,47.999998)" gradientUnits="userSpaceOnUse"><stop stop-color="#e1e1e1" stop-opacity="1"/><stop offset="1" stop-color="#ebebeb" stop-opacity="1"/></linearGradient><linearGradient id="linearGradient3768-2"><stop stop-color="#5587a3" stop-opacity="1"/><stop offset="1" stop-color="#457d8f" stop-opacity="1"/></linearGradient><linearGradient id="linearGradient3800-7-2"><stop stop-color="#5ca2b8" stop-opacity="1"/><stop offset="1" stop-color="#5ca2b8" stop-opacity="1"/></linearGradient><linearGradient id="linearGradient3194" x1="20.12" x2="32.587" y1="-202.21" y2="-123.51" gradientUnits="userSpaceOnUse" xlink:href="#linearGradient3768-2"/><linearGradient id="linearGradient3203" x1="20.12" x2="461.99" gradientUnits="userSpaceOnUse" xlink:href="#linearGradient3768-2"/><linearGradient id="linearGradient3205" x1="396.35" x2="378.81" y1="-224.9" y2="-368.21" gradientTransform="translate(-3.6333562,-1.8175159)" gradientUnits="userSpaceOnUse" spreadMethod="pad" xlink:href="#linearGradient3800-7-2"/><linearGradient id="linearGradient3207" x1="450.11" x2="433.41" y1="-143.3" y2="-242.45" gradientTransform="translate(-3.6333562,-1.8175159)" gradientUnits="userSpaceOnUse" spreadMethod="pad" xlink:href="#linearGradient3800-7-2"/><linearGradient id="linearGradient3210" x1="489.51" x2="442.5" y1="-113.46" y2="-202.21" gradientTransform="translate(-3.6333562,-1.8175159)" gradientUnits="userSpaceOnUse" spreadMethod="pad" xlink:href="#linearGradient3800-7-2"/><linearGradient id="linearGradient3212" x1="446.69" x2="425.42" y1="-139.8" y2="-267.9" gradientTransform="translate(-3.6333562,-1.8175159)" gradientUnits="userSpaceOnUse" spreadMethod="pad" xlink:href="#linearGradient3800-7-2"/><linearGradient id="linearGradient3214" x1="457.97" x2="442.5" y1="-51.711" y2="-202.21" gradientUnits="userSpaceOnUse" spreadMethod="pad" xlink:href="#linearGradient3800-7-2"/></defs><g><path d="m 36.31,5 c 5.859,4.062 9.688,10.831 9.688,18.5 0,12.426 -10.07,22.5 -22.5,22.5 -7.669,0 -14.438,-3.828 -18.5,-9.688 1.037,1.822 2.306,3.499 3.781,4.969 4.085,3.712 9.514,5.969 15.469,5.969 12.703,0 23,-10.298 23,-23 0,-5.954 -2.256,-11.384 -5.969,-15.469 C 39.81,7.306 38.132,6.037 36.31,5 z m 4.969,3.781 c 3.854,4.113 6.219,9.637 6.219,15.719 0,12.703 -10.297,23 -23,23 -6.081,0 -11.606,-2.364 -15.719,-6.219 4.16,4.144 9.883,6.719 16.219,6.719 12.703,0 23,-10.298 23,-23 0,-6.335 -2.575,-12.06 -6.719,-16.219 z" opacity=".05"/><path d="m 41.28 8.781 c 3.712 4.085 5.969 9.514 5.969 15.469 0 12.703 -10.297 23 -23 23 -5.954 0 -11.384 -2.256 -15.469 -5.969 4.113 3.854 9.637 6.219 15.719 6.219 12.703 0 23 -10.298 23 -23 0 -6.081 -2.364 -11.606 -6.219 -15.719 z" opacity=".1"/><path d="M 31.25,2.375 C 39.865,5.529 46,13.792 46,23.505 c 0,12.426 -10.07,22.5 -22.5,22.5 -9.708,0 -17.971,-6.135 -21.12,-14.75 a 23,23 0 0 0 44.875,-7 23,23 0 0 0 -16,-21.875 z" opacity=".2"/></g><g><path fill="url(#linearGradient3764)" fill-opacity="1" d="M 24,1 C 36.703,1 47,11.297 47,24 47,36.703 36.703,47 24,47 11.297,47 1,36.703 1,24 1,11.297 11.297,1 24,1 z"/></g><g><path d="m 40.03,7.531 c 3.712,4.084 5.969,9.514 5.969,15.469 0,12.703 -10.297,23 -23,23 C 17.045,46 11.615,43.744 7.53,40.031 11.708,44.322 17.54,47 23.999,47 c 12.703,0 23,-10.298 23,-23 0,-6.462 -2.677,-12.291 -6.969,-16.469 z" opacity=".1"/></g><path fill="#000" fill-opacity="1" stroke="none" d="m 26.531 12 -8.625 1.969 1.563 6.906 5.313 3.406 3.313 -5.375 l -1.563 -6.906 z m 9.5 5.938 -6.875 1.563 -3.375 5.344 l 5.344 3.344 6.875 -1.594 -1.969 -8.656 z m -17.16 3.844 -6.875 1.594 l 1.969 8.688 6.875 -1.594 3.375 -5.313 -5.344 -3.375 z m 6.25 3.938 -3.344 5.375 l 1.563 6.906 8.656 -1.969 -1.563 -6.906 -5.313 -3.406 z" opacity=".1"/><g fill="url(#linearGradient3203)" fill-opacity="1" transform="matrix(0.05884019,0,0,0.05911868,9.8162815,35.954388)"><path fill="url(#linearGradient3194)" stroke="none" d="m 267.25 -422.11 26.594 116.7 -56.627 90.997 -90.22 -57.53 -26.594 -116.7 z"/><path fill="url(#linearGradient3194)" stroke="none" d="m 20.12 -229.84 116.7 -26.594 90.997 56.627 -57.53 90.22 -116.7 26.594 z"/><path fill="url(#linearGradient3194)" stroke="none" d="m 213.01 17.687 -26.594 -116.7 56.627 -90.997 90.22 57.53 26.594 116.7 z"/><path fill="url(#linearGradient3194)" stroke="none" d="m 461.99 -175 -116.7 26.594 -90.997 -56.627 57.53 -90.22 116.7 -26.594 z"/></g><g fill="url(#linearGradient3214)" fill-opacity="1" transform="matrix(0.05884019,0,0,0.05911868,10.030069,36.061838)"><path fill="url(#linearGradient3205)" stroke="none" d="m 252.08 -404.43 20.364 89.36 -45.26 70.63 -71.2 -44.08 -20.364 -89.36 z"/><path fill="url(#linearGradient3207)" stroke="none" d="m 35.981 -220.12 89.36 -20.364 70.63 45.26 -44.08 71.2 -89.36 20.364 z"/><path fill="url(#linearGradient3210)" stroke="none" d="m 220.91 -3.628 -20.364 -89.36 45.26 -70.63 71.2 44.08 20.364 89.36 z"/><path fill="url(#linearGradient3212)" stroke="none" d="m 438.86 -188.36 -89.36 20.364 -70.63 -45.26 44.08 -71.2 89.36 -20.364 z"/></g></svg>