<svg xmlns="http://www.w3.org/2000/svg" viewBox="0 0 48 48"><defs><linearGradient id="linearGradient4264" x2="0" y1="46.946" y2="1.014" gradientUnits="userSpaceOnUse"><stop stop-color="#8dcd8b"/><stop offset="1" stop-color="#9bd399"/></linearGradient></defs><g><path d="m36.31 5c5.859 4.062 9.688 10.831 9.688 18.5 0 12.426-10.07 22.5-22.5 22.5-7.669 0-14.438-3.828-18.5-9.688 1.037 1.822 2.306 3.499 3.781 4.969 4.085 3.712 9.514 5.969 15.469 5.969 12.703 0 23-10.298 23-23 0-5.954-2.256-11.384-5.969-15.469-1.469-1.475-3.147-2.744-4.969-3.781zm4.969 3.781c3.854 4.113 6.219 9.637 6.219 15.719 0 12.703-10.297 23-23 23-6.081 0-11.606-2.364-15.719-6.219 4.16 4.144 9.883 6.719 16.219 6.719 12.703 0 23-10.298 23-23 0-6.335-2.575-12.06-6.719-16.219z" opacity=".05"/><path d="m41.28 8.781c3.712 4.085 5.969 9.514 5.969 15.469 0 12.703-10.297 23-23 23-5.954 0-11.384-2.256-15.469-5.969 4.113 3.854 9.637 6.219 15.719 6.219 12.703 0 23-10.298 23-23 0-6.081-2.364-11.606-6.219-15.719z" opacity=".1"/><path d="m31.25 2.375c8.615 3.154 14.75 11.417 14.75 21.13 0 12.426-10.07 22.5-22.5 22.5-9.708 0-17.971-6.135-21.12-14.75a23 23 0 0 0 44.875 -7 23 23 0 0 0 -16 -21.875z" opacity=".2"/></g><path fill="url(#linearGradient4264)" d="m24 1c12.703 0 23 10.297 23 23s-10.297 23-23 23-23-10.297-23-23 10.297-23 23-23z"/><path d="m23 15v2h-6v2h-2v2h-2v10h2v2h2v2h16v-2h2v-2h2v-10h-2v-2h-2v-2h-8v-2h-2z" opacity=".1"/><g><path d="m40.03 7.531c3.712 4.084 5.969 9.514 5.969 15.469 0 12.703-10.297 23-23 23-5.954 0-11.384-2.256-15.469-5.969 4.178 4.291 10.01 6.969 16.469 6.969 12.703 0 23-10.298 23-23 0-6.462-2.677-12.291-6.969-16.469z" opacity=".1"/></g><g transform="matrix(.1 0 0 .1 -13.205 -28.618)"><rect width="20" height="20" x="352.05" y="426.18" fill="#8f4126" rx="0"/><rect width="20" height="20" x="432.05" y="446.18" fill="#fe8d3f" rx="0"/><rect width="20" height="20" x="412.05" y="446.18" fill="#fe7e41" rx="0"/><rect width="20" height="20" x="392.05" y="446.18" fill="#fe7f41" rx="0"/><rect width="20" height="20" x="372.05" y="446.18" fill="#a1502b" rx="0"/><rect width="20" height="20" x="352.05" y="446.18" fill="#8e4328" rx="0"/><rect width="20" height="20" x="332.05" y="446.18" fill="#f97d41" rx="0"/><rect width="20" height="20" x="312.05" y="446.18" fill="#fe7642" rx="0"/><rect width="20" height="20" x="292.05" y="446.18" fill="#fe8a3f" rx="0"/><rect width="20" height="20" x="452.05" y="466.18" fill="#fd8643" rx="0"/><rect width="20" height="20" x="432.05" y="466.18" fill="#feb14b" rx="0"/><rect width="20" height="20" x="412.05" y="466.18" fill="#fec451" rx="0"/><rect width="20" height="20" x="392.05" y="466.18" fill="#fe9443" rx="0"/><rect width="20" height="20" x="372.05" y="466.18" fill="#ab532e" rx="0"/><rect width="20" height="20" x="352.05" y="466.18" fill="#b4542d" rx="0"/><rect width="20" height="20" x="332.05" y="466.18" fill="#fe9443" rx="0"/><rect width="20" height="20" x="312.05" y="466.18" fill="#fea848" rx="0"/><rect width="20" height="20" x="292.05" y="466.18" fill="#fea748" rx="0"/><rect width="20" height="20" x="272.05" y="466.18" fill="#fd9a44" rx="0"/><rect width="20" height="20" x="472.05" y="486.18" fill="#e75d41" rx="0"/><rect width="20" height="20" x="452.05" y="486.18" fill="#fe9040" rx="0"/><rect width="20" height="20" x="432.05" y="486.18" fill="#fe9341" rx="0"/><rect width="20" height="20" x="412.05" y="486.18" fill="#fe9b44" rx="0"/><rect width="20" height="20" x="392.05" y="486.18" fill="#feb14b" rx="0"/><rect width="20" height="20" x="372.05" y="486.18" fill="#feb84d" rx="0"/><rect width="20" height="20" x="352.05" y="486.18" fill="#fea748" rx="0"/><rect width="20" height="20" x="332.05" y="486.18" fill="#fea648" rx="0"/><rect width="20" height="20" x="312.05" y="486.18" fill="#feb34c" rx="0"/><rect width="20" height="20" x="292.05" y="486.18" fill="#fe9943" rx="0"/><rect width="20" height="20" x="272.05" y="486.18" fill="#fea246" rx="0"/><rect width="20" height="20" x="252.05" y="486.18" fill="#fe5f42" rx="0"/><rect width="20" height="20" x="472.05" y="506.18" fill="#d75f41" rx="0"/><rect width="20" height="20" x="452.05" y="506.18" fill="#fe873d" rx="0"/><rect width="20" height="20" x="432.05" y="506.18" fill="#fe8b3f" rx="0"/><rect width="20" height="20" x="412.05" y="506.18" fill="#fe8e40" rx="0"/><rect width="20" height="20" x="392.05" y="506.18" fill="#fe7b39" rx="0"/><rect width="20" height="20" x="372.05" y="506.18" fill="#fe9040" rx="0"/><rect width="20" height="20" x="352.05" y="506.18" fill="#fea045" rx="0"/><rect width="20" height="20" x="332.05" y="506.18" fill="#fe7f3b" rx="0"/><rect width="20" height="20" x="312.05" y="506.18" fill="#fe9040" rx="0"/><rect width="20" height="20" x="292.05" y="506.18" fill="#fe833c" rx="0"/><rect width="20" height="20" x="272.05" y="506.18" fill="#fe863d" rx="0"/><rect width="20" height="20" x="252.05" y="506.18" fill="#fe683d" rx="0"/><rect width="20" height="20" x="472.05" y="526.18" fill="#d75d40" rx="0"/><rect width="20" height="20" x="452.05" y="526.18" fill="#fe723b" rx="0"/><rect width="20" height="20" x="432.05" y="526.18" fill="#fe823b" rx="0"/><rect width="20" height="20" x="412.05" y="526.18" fill="#fe843c" rx="0"/><rect width="20" height="20" x="392.05" y="526.18" fill="#fe7a39" rx="0"/><rect width="20" height="20" x="372.05" y="526.18" fill="#fe7f3a" rx="0"/><rect width="20" height="20" x="352.05" y="526.18" fill="#fe7f3a" rx="0"/><rect width="20" height="20" x="332.05" y="526.18" fill="#fe7a39" rx="0"/><rect width="20" height="20" x="312.05" y="526.18" fill="#fe843c" rx="0"/><rect width="20" height="20" x="292.05" y="526.18" fill="#fe833c" rx="0"/><rect width="20" height="20" x="272.05" y="526.18" fill="#fe723b" rx="0"/><rect width="20" height="20" x="252.05" y="526.18" fill="#fe663d" rx="0"/><rect width="20" height="20" x="472.05" y="546.18" fill="#ca5244" rx="0"/><rect width="20" height="20" x="452.05" y="546.18" fill="#fe673c" rx="0"/><rect width="20" height="20" x="432.05" y="546.18" fill="#fe7839" rx="0"/><rect width="20" height="20" x="412.05" y="546.18" fill="#fe7639" rx="0"/><rect width="20" height="20" x="392.05" y="546.18" fill="#fe733a" rx="0"/><rect width="20" height="20" x="372.05" y="546.18" fill="#fe7f3b" rx="0"/><rect width="20" height="20" x="352.05" y="546.18" fill="#fe7f3b" rx="0"/><rect width="20" height="20" x="332.05" y="546.18" fill="#fe733a" rx="0"/><rect width="20" height="20" x="312.05" y="546.18" fill="#fe7639" rx="0"/><rect width="20" height="20" x="292.05" y="546.18" fill="#fe813b" rx="0"/><rect width="20" height="20" x="272.05" y="546.18" fill="#fe6a3d" rx="0"/><rect width="20" height="20" x="252.05" y="546.18" fill="#fe653d" rx="0"/><rect width="20" height="20" x="472.05" y="566.18" fill="#ca5244" rx="0"/><rect width="20" height="20" x="452.05" y="566.18" fill="#f95341" rx="0"/><rect width="20" height="20" x="432.05" y="566.18" fill="#fe5d3e" rx="0"/><rect width="20" height="20" x="412.05" y="566.18" fill="#fe7539" rx="0"/><rect width="20" height="20" x="392.05" y="566.18" fill="#fe693c" rx="0"/><rect width="20" height="20" x="372.05" y="566.18" fill="#fe7e3a" rx="0"/><rect width="20" height="20" x="352.05" y="566.18" fill="#fe7e3a" rx="0"/><rect width="20" height="20" x="332.05" y="566.18" fill="#fe6c3b" rx="0"/><rect width="20" height="20" x="312.05" y="566.18" fill="#fe723a" rx="0"/><rect width="20" height="20" x="292.05" y="566.18" fill="#fe703b" rx="0"/><rect width="20" height="20" x="272.05" y="566.18" fill="#fe6e3b" rx="0"/><rect width="20" height="20" x="252.05" y="566.18" fill="#fe603e" rx="0"/><rect width="20" height="20" x="452.05" y="586.18" fill="#d44945" rx="0"/><rect width="20" height="20" x="432.05" y="586.18" fill="#e84e43" rx="0"/><rect width="20" height="20" x="412.05" y="586.18" fill="#fe5b3f" rx="0"/><rect width="20" height="20" x="392.05" y="586.18" fill="#fb5d3f" rx="0"/><rect width="20" height="20" x="372.05" y="586.18" fill="#fa6e3b" rx="0"/><rect width="20" height="20" x="352.05" y="586.18" fill="#fe6f3b" rx="0"/><rect width="20" height="20" x="332.05" y="586.18" fill="#f7623e" rx="0"/><rect width="20" height="20" x="312.05" y="586.18" fill="#f95d3f" rx="0"/><rect width="20" height="20" x="292.05" y="586.18" fill="#fc593f" rx="0"/><rect width="20" height="20" x="272.05" y="586.18" fill="#e55442" rx="0"/><rect width="20" height="20" x="432.05" y="606.18" fill="#bd4447" rx="0"/><rect width="20" height="20" x="412.05" y="606.18" fill="#df4c43" rx="0"/><rect width="20" height="20" x="392.05" y="606.18" fill="#e04c43" rx="0"/><rect width="20" height="20" x="372.05" y="606.18" fill="#db4b44" rx="0"/><rect width="20" height="20" x="352.05" y="606.18" fill="#e24c43" rx="0"/><rect width="20" height="20" x="332.05" y="606.18" fill="#d94a44" rx="0"/><rect width="20" height="20" x="312.05" y="606.18" fill="#d14945" rx="0"/><rect width="20" height="20" x="292.05" y="606.18" fill="#ca4746" rx="0"/></g></svg>