<svg xmlns="http://www.w3.org/2000/svg" viewBox="0 0 48 48"><defs><linearGradient id="linearGradient3764" x1="1" x2="47" gradientTransform="matrix(0,-1,1,0,-1.5e-6,47.999998)" gradientUnits="userSpaceOnUse"><stop stop-color="#e7e7e7" stop-opacity="1"/><stop offset="1" stop-color="#f1f1f1" stop-opacity="1"/></linearGradient></defs><g><path d="m 36.31 5 c 5.859 4.062 9.688 10.831 9.688 18.5 c 0 12.426 -10.07 22.5 -22.5 22.5 c -7.669 0 -14.438 -3.828 -18.5 -9.688 c 1.037 1.822 2.306 3.499 3.781 4.969 c 4.085 3.712 9.514 5.969 15.469 5.969 c 12.703 0 23 -10.298 23 -23 c 0 -5.954 -2.256 -11.384 -5.969 -15.469 c -1.469 -1.475 -3.147 -2.744 -4.969 -3.781 z m 4.969 3.781 c 3.854 4.113 6.219 9.637 6.219 15.719 c 0 12.703 -10.297 23 -23 23 c -6.081 0 -11.606 -2.364 -15.719 -6.219 c 4.16 4.144 9.883 6.719 16.219 6.719 c 12.703 0 23 -10.298 23 -23 c 0 -6.335 -2.575 -12.06 -6.719 -16.219 z" opacity=".05"/><path d="m 41.28 8.781 c 3.712 4.085 5.969 9.514 5.969 15.469 c 0 12.703 -10.297 23 -23 23 c -5.954 0 -11.384 -2.256 -15.469 -5.969 c 4.113 3.854 9.637 6.219 15.719 6.219 c 12.703 0 23 -10.298 23 -23 c 0 -6.081 -2.364 -11.606 -6.219 -15.719 z" opacity=".1"/><path d="m 31.25 2.375 c 8.615 3.154 14.75 11.417 14.75 21.13 c 0 12.426 -10.07 22.5 -22.5 22.5 c -9.708 0 -17.971 -6.135 -21.12 -14.75 a 23 23 0 0 0 44.875 -7 a 23 23 0 0 0 -16 -21.875 z" opacity=".2"/></g><g><path fill="url(#linearGradient3764)" fill-opacity="1" d="m 24 1 c 12.703 0 23 10.297 23 23 c 0 12.703 -10.297 23 -23 23 -12.703 0 -23 -10.297 -23 -23 0 -12.703 10.297 -23 23 -23 z"/></g><g><path d="m 40.03 7.531 c 3.712 4.084 5.969 9.514 5.969 15.469 0 12.703 -10.297 23 -23 23 c -5.954 0 -11.384 -2.256 -15.469 -5.969 4.178 4.291 10.01 6.969 16.469 6.969 c 12.703 0 23 -10.298 23 -23 0 -6.462 -2.677 -12.291 -6.969 -16.469 z" opacity=".1"/></g><g transform="matrix(3.543307,0,0,3.543307,-0.00118111,0.00157624)"><rect width=".564" height=".564" x="3.387" y="3.387" fill="#ff9f00" fill-opacity="1" stroke="none"/><rect width=".564" height=".564" x="4.516" y="3.387" fill="#ff9f00" fill-opacity="1" stroke="none"/><rect width=".564" height=".564" x="5.644" y="3.387" fill="#ff9f00" fill-opacity="1" stroke="none"/><rect width=".564" height=".564" x="6.773" y="3.387" fill="#51bb50" fill-opacity="1" stroke="none"/><rect width=".564" height=".564" x="7.902" y="3.387" fill="#51bb50" fill-opacity="1" stroke="none"/><rect width=".564" height=".564" x="9.03" y="3.387" fill="#51bb50" fill-opacity="1" stroke="none"/><rect width=".564" height=".564" x="3.951" y="3.951" fill="#ff9f00" fill-opacity="1" stroke="none"/><rect width=".564" height=".564" x="5.08" y="3.951" fill="#ff9f00" fill-opacity="1" stroke="none"/><rect width=".564" height=".564" x="6.209" y="3.951" fill="#ff9f00" fill-opacity="1" stroke="none"/><rect width=".564" height=".564" x="7.338" y="3.951" fill="#51bb50" fill-opacity="1" stroke="none"/><rect width=".564" height=".564" x="8.467" y="3.951" fill="#51bb50" fill-opacity="1" stroke="none"/><rect width=".564" height=".564" x="9.596" y="3.951" fill="#51bb50" fill-opacity="1" stroke="none"/><rect width=".564" height=".564" x="3.387" y="4.516" fill="#ff9f00" fill-opacity="1" stroke="none"/><rect width=".564" height=".564" x="5.644" y="4.516" fill="#ff9f00" fill-opacity="1" stroke="none"/><rect width=".564" height=".564" x="6.773" y="4.516" fill="#51bb50" fill-opacity="1" stroke="none"/><rect width=".564" height=".564" x="7.902" y="4.516" fill="#51bb50" fill-opacity="1" stroke="none"/><rect width=".564" height=".564" x="9.03" y="4.516" fill="#51bb50" fill-opacity="1" stroke="none"/><rect width=".564" height=".564" x="3.951" y="5.08" fill="#ff9f00" fill-opacity="1" stroke="none"/><rect width=".564" height=".564" x="6.209" y="5.08" fill="#ff9f00" fill-opacity="1" stroke="none"/><rect width=".564" height=".564" x="7.338" y="5.08" fill="#51bb50" fill-opacity="1" stroke="none"/><rect width=".564" height=".564" x="8.467" y="5.08" fill="#51bb50" fill-opacity="1" stroke="none"/><rect width=".564" height=".564" x="9.596" y="5.08" fill="#51bb50" fill-opacity="1" stroke="none"/><rect width=".564" height=".564" x="3.387" y="5.644" fill="#ff9f00" fill-opacity="1" stroke="none"/><rect width=".564" height=".564" x="6.773" y="5.644" fill="#51bb50" fill-opacity="1" stroke="none"/><rect width=".564" height=".564" x="7.902" y="5.644" fill="#51bb50" fill-opacity="1" stroke="none"/><rect width=".564" height=".564" x="9.03" y="5.644" fill="#51bb50" fill-opacity="1" stroke="none"/><rect width=".564" height=".564" x="3.951" y="6.209" fill="#ff9f00" fill-opacity="1" stroke="none"/><rect width=".564" height=".564" x="5.08" y="6.209" fill="#ff9f00" fill-opacity="1" stroke="none"/><rect width=".564" height=".564" x="7.338" y="6.209" fill="#51bb50" fill-opacity="1" stroke="none"/><rect width=".564" height=".564" x="8.467" y="6.209" fill="#51bb50" fill-opacity="1" stroke="none"/><rect width=".564" height=".564" x="9.596" y="6.209" fill="#51bb50" fill-opacity="1" stroke="none"/><rect width=".564" height=".564" x="3.387" y="6.773" fill="#ff9f00" fill-opacity="1" stroke="none"/><rect width=".564" height=".564" x="7.902" y="6.773" fill="#51bb50" fill-opacity="1" stroke="none"/><rect width=".564" height=".564" x="9.03" y="6.773" fill="#51bb50" fill-opacity="1" stroke="none"/><rect width=".564" height=".564" x="3.951" y="7.338" fill="#ff9f00" fill-opacity="1" stroke="none"/><rect width=".564" height=".564" x="6.209" y="7.338" fill="#ff9f00" fill-opacity="1" stroke="none"/><rect width=".564" height=".564" x="7.338" y="7.338" fill="#51bb50" fill-opacity="1" stroke="none"/><rect width=".564" height=".564" x="8.467" y="7.338" fill="#51bb50" fill-opacity="1" stroke="none"/><rect width=".564" height=".564" x="9.596" y="7.338" fill="#51bb50" fill-opacity="1" stroke="none"/><rect width=".564" height=".564" x="3.387" y="7.902" fill="#ff9f00" fill-opacity="1" stroke="none"/><rect width=".564" height=".564" x="6.773" y="7.902" fill="#51bb50" fill-opacity="1" stroke="none"/><rect width=".564" height=".564" x="7.902" y="7.902" fill="#51bb50" fill-opacity="1" stroke="none"/><rect width=".564" height=".564" x="9.03" y="7.902" fill="#51bb50" fill-opacity="1" stroke="none"/><rect width=".564" height=".564" x="3.951" y="8.467" fill="#ff9f00" fill-opacity="1" stroke="none"/><rect width=".564" height=".564" x="5.08" y="8.467" fill="#ff9f00" fill-opacity="1" stroke="none"/><rect width=".564" height=".564" x="7.338" y="8.467" fill="#51bb50" fill-opacity="1" stroke="none"/><rect width=".564" height=".564" x="8.467" y="8.467" fill="#51bb50" fill-opacity="1" stroke="none"/><rect width=".564" height=".564" x="9.596" y="8.467" fill="#51bb50" fill-opacity="1" stroke="none"/><rect width=".564" height=".564" x="3.387" y="9.03" fill="#ff9f00" fill-opacity="1" stroke="none"/><rect width=".564" height=".564" x="5.644" y="9.03" fill="#ff9f00" fill-opacity="1" stroke="none"/><rect width=".564" height=".564" x="7.902" y="9.03" fill="#51bb50" fill-opacity="1" stroke="none"/><rect width=".564" height=".564" x="9.03" y="9.03" fill="#51bb50" fill-opacity="1" stroke="none"/><rect width=".564" height=".564" x="3.951" y="9.596" fill="#ff9f00" fill-opacity="1" stroke="none"/><rect width=".564" height=".564" x="5.08" y="9.596" fill="#ff9f00" fill-opacity="1" stroke="none"/><rect width=".564" height=".564" x="6.209" y="9.596" fill="#ff9f00" fill-opacity="1" stroke="none"/><rect width=".564" height=".564" x="7.338" y="9.596" fill="#51bb50" fill-opacity="1" stroke="none"/><rect width=".564" height=".564" x="8.467" y="9.596" fill="#51bb50" fill-opacity="1" stroke="none"/><rect width=".564" height=".564" x="9.596" y="9.596" fill="#51bb50" fill-opacity="1" stroke="none"/><rect width=".564" height=".564" x="5.08" y="7.338" fill="#ff9f00" fill-opacity="1" stroke="none"/><rect width=".564" height=".564" x="4.516" y="7.902" fill="#ff9f00" fill-opacity="1" stroke="none"/><rect width=".564" height=".564" x="5.644" y="7.902" fill="#ff9f00" fill-opacity="1" stroke="none"/><rect width=".564" height=".564" x="6.209" y="8.467" fill="#ff9f00" fill-opacity="1" stroke="none"/><rect width=".564" height=".564" x="6.773" y="9.03" fill="#51bb50" fill-opacity="1" stroke="none"/><rect width=".564" height=".564" x="4.516" y="9.03" fill="#ff9f00" fill-opacity="1" stroke="none"/><rect width=".564" height=".564" x="4.516" y="6.773" fill="#ff9f00" fill-opacity="1" stroke="none"/><rect width=".564" height=".564" x="4.516" y="5.644" fill="#ff9f00" fill-opacity="1" stroke="none"/><rect width=".564" height=".564" x="4.516" y="4.516" fill="#ff9f00" fill-opacity="1" stroke="none"/><rect width=".564" height=".564" x="5.08" y="5.08" fill="#ff9f00" fill-opacity="1" stroke="none"/><rect width=".564" height=".564" x="5.644" y="5.644" fill="#ff9f00" fill-opacity="1" stroke="none"/><rect width=".564" height=".564" x="5.644" y="6.773" fill="#ff9f00" fill-opacity="1" stroke="none"/><rect width=".564" height=".564" x="6.773" y="6.773" fill="#51bb50" fill-opacity="1" stroke="none"/><rect width=".564" height=".564" x="6.209" y="6.209" fill="#ff9f00" fill-opacity="1" stroke="none"/><rect width=".564" height=".564" x="5.644" y="4.516" fill="#447299" fill-opacity="1" stroke="none"/><rect width=".564" height=".564" x="6.209" y="5.08" fill="#447299" fill-opacity="1" stroke="none"/><rect width=".564" height=".564" x="5.644" y="5.644" fill="#447299" fill-opacity="1" stroke="none"/><rect width=".564" height=".564" x="6.773" y="5.644" fill="#447299" fill-opacity="1" stroke="none"/><rect width=".564" height=".564" x="7.338" y="6.209" fill="#447299" fill-opacity="1" stroke="none"/><rect width=".564" height=".564" x="5.644" y="6.773" fill="#447299" fill-opacity="1" stroke="none"/><rect width=".564" height=".564" x="6.209" y="7.338" fill="#447299" fill-opacity="1" stroke="none"/><rect width=".564" height=".564" x="5.644" y="7.902" fill="#447299" fill-opacity="1" stroke="none"/><rect width=".564" height=".564" x="6.773" y="7.902" fill="#447299" fill-opacity="1" stroke="none"/><rect width=".564" height=".564" x="7.338" y="8.467" fill="#447299" fill-opacity="1" stroke="none"/><rect width=".564" height=".564" x="5.644" y="9.03" fill="#447299" fill-opacity="1" stroke="none"/><rect width=".564" height=".564" x="7.902" y="9.03" fill="#447299" fill-opacity="1" stroke="none"/><rect width=".564" height=".564" x="6.773" y="6.773" fill="#447299" fill-opacity="1" stroke="none"/><rect width=".564" height=".564" x="10.16" y="4.516" fill="#000" fill-opacity="1" stroke="none" opacity=".1"/><rect width=".564" height=".564" x="10.16" y="5.644" fill="#000" fill-opacity="1" stroke="none" opacity=".1"/><rect width=".564" height=".564" x="10.16" y="6.773" fill="#000" fill-opacity="1" stroke="none" opacity=".1"/><rect width=".564" height=".564" x="10.16" y="7.902" fill="#000" fill-opacity="1" stroke="none" opacity=".1"/><rect width=".564" height=".564" x="10.16" y="9.03" fill="#000" fill-opacity="1" stroke="none" opacity=".1"/><rect width=".564" height=".564" x="4.516" y="10.16" fill="#000" fill-opacity="1" stroke="none" opacity=".1"/><rect width=".564" height=".564" x="5.644" y="10.16" fill="#000" fill-opacity="1" stroke="none" opacity=".1"/><rect width=".564" height=".564" x="6.773" y="10.16" fill="#000" fill-opacity="1" stroke="none" opacity=".1"/><rect width=".564" height=".564" x="7.902" y="10.16" fill="#000" fill-opacity="1" stroke="none" opacity=".1"/><rect width=".564" height=".564" x="9.03" y="10.16" fill="#000" fill-opacity="1" stroke="none" opacity=".1"/><rect width=".564" height=".564" x="10.16" y="10.16" fill="#000" fill-opacity="1" stroke="none" opacity=".1"/></g></svg>