<svg xmlns="http://www.w3.org/2000/svg" xmlns:xlink="http://www.w3.org/1999/xlink" version="1.1" viewBox="0 0 48 48"><defs><linearGradient id="linearGradient896" x2="0" y1="47" y2="1" gradientUnits="userSpaceOnUse"><stop offset="0" stop-color="#d35f5f"/><stop offset="1" stop-color="#d76f6f"/></linearGradient></defs><path d="m36.31 5c5.859 4.062 9.688 10.831 9.688 18.5 0 12.426-10.07 22.5-22.5 22.5-7.669 0-14.438-3.828-18.5-9.688 1.037 1.822 2.306 3.499 3.781 4.969 4.085 3.712 9.514 5.969 15.469 5.969 12.703 0 23-10.298 23-23 0-5.954-2.256-11.384-5.969-15.469-1.469-1.475-3.147-2.744-4.969-3.781zm4.969 3.781c3.854 4.113 6.219 9.637 6.219 15.719 0 12.703-10.297 23-23 23-6.081 0-11.606-2.364-15.719-6.219 4.16 4.144 9.883 6.719 16.219 6.719 12.703 0 23-10.298 23-23 0-6.335-2.575-12.06-6.719-16.219z" opacity=".05"/><path d="m41.28 8.781c3.712 4.085 5.969 9.514 5.969 15.469 0 12.703-10.297 23-23 23-5.954 0-11.384-2.256-15.469-5.969 4.113 3.854 9.637 6.219 15.719 6.219 12.703 0 23-10.298 23-23 0-6.081-2.364-11.606-6.219-15.719z" opacity=".1"/><path d="m31.25 2.375c8.615 3.154 14.75 11.417 14.75 21.13 0 12.426-10.07 22.5-22.5 22.5-9.708 0-17.971-6.135-21.12-14.75a23 23 0 0 0 44.875 -7 23 23 0 0 0 -16 -21.875z" opacity=".2"/><g fill="#d35f5f"><path fill="url(#linearGradient896)" d="m24 1c12.703 0 23 10.297 23 23s-10.297 23-23 23-23-10.297-23-23 10.297-23 23-23z"/></g><path d="m40.03 7.531c3.712 4.084 5.969 9.514 5.969 15.469 0 12.703-10.297 23-23 23-5.954 0-11.384-2.256-15.469-5.969 4.178 4.291 10.01 6.969 16.469 6.969 12.703 0 23-10.298 23-23 0-6.462-2.677-12.291-6.969-16.469z" opacity=".1"/><g opacity=".1"><g><path fill-rule="evenodd" d="m15 12v25l1 1h20v-25l-1-1h-20z" transform="translate(1,1) translate(1) translate(-2,-1)"/></g></g><g transform="translate(1)"><path fill="#e9ddaf" fill-rule="evenodd" d="m34 12-1-1v1zm-20 25-1-1h1zm0-25h20v25h-20z"/><rect width="20" height="25" x="13" y="11" fill="#483737"/></g><path fill="#a00" fill-rule="evenodd" d="m16 18 7 7v1l1 1 1-1v-1l7-7h-5l-1 1v1.459h-1.25l-0.046-0.754 0.593-0.539-0.417-7e-3 -0.391 0.33-0.108-0.269 0.842-0.694-0.539-0.377-0.851 0.658-0.597 0.164 0.013 1.487h-1.25v-1.459l-1-1"/><path fill="#666" fill-rule="evenodd" d="m15 18 2 2h-2z"/><path fill="#666" fill-rule="evenodd" d="m15 21h3l2 2h-5z"/><path fill="#666" fill-rule="evenodd" d="m15 24h6l1 1v1h-7z"/><path fill="#666" fill-rule="evenodd" d="m33 18-2 2h2z"/><path fill="#666" fill-rule="evenodd" d="m33 21h-3l-2 2h5z"/><path fill="#666" fill-rule="evenodd" d="m33 24h-6l-1 1v1h7z"/><path fill="#483737" d="m23.03 21h2v2l-1 1-1-1z"/><rect width=".5" height="2" x="-32.923" y=".311" fill="#a00" transform="matrix(-.70711 -.70711 .70711 -.70711 0 0)"/></svg>