<svg xmlns="http://www.w3.org/2000/svg" xmlns:xlink="http://www.w3.org/1999/xlink" version="1.1" viewBox="0 0 48 48"><defs><linearGradient id="linearGradient872" x2="0" y1="47" y2="1" gradientUnits="userSpaceOnUse"><stop offset="0" stop-color="#f6d8a3"/><stop offset="1" stop-color="#f8e0b6"/></linearGradient></defs><path d="m36.31 5c5.859 4.062 9.688 10.831 9.688 18.5 0 12.426-10.07 22.5-22.5 22.5-7.669 0-14.438-3.828-18.5-9.688 1.037 1.822 2.306 3.499 3.781 4.969 4.085 3.712 9.514 5.969 15.469 5.969 12.703 0 23-10.298 23-23 0-5.954-2.256-11.384-5.969-15.469-1.469-1.475-3.147-2.744-4.969-3.781zm4.969 3.781c3.854 4.113 6.219 9.637 6.219 15.719 0 12.703-10.297 23-23 23-6.081 0-11.606-2.364-15.719-6.219 4.16 4.144 9.883 6.719 16.219 6.719 12.703 0 23-10.298 23-23 0-6.335-2.575-12.06-6.719-16.219z" opacity=".05"/><path d="m41.28 8.781c3.712 4.085 5.969 9.514 5.969 15.469 0 12.703-10.297 23-23 23-5.954 0-11.384-2.256-15.469-5.969 4.113 3.854 9.637 6.219 15.719 6.219 12.703 0 23-10.298 23-23 0-6.081-2.364-11.606-6.219-15.719z" opacity=".1"/><path d="m31.25 2.375c8.615 3.154 14.75 11.417 14.75 21.13 0 12.426-10.07 22.5-22.5 22.5-9.708 0-17.971-6.135-21.12-14.75a23 23 0 0 0 44.875 -7 23 23 0 0 0 -16 -21.875z" opacity=".2"/><g fill="#f6d8a3"><path fill="url(#linearGradient872)" d="m24 1c12.703 0 23 10.297 23 23s-10.297 23-23 23-23-10.297-23-23 10.297-23 23-23z"/></g><path fill-rule="evenodd" d="m41.1 14.674l-11.48 4.824-0.641-1.053-2.104 1.279v-2e-3l-5.447-0.5v-1e-3l-12.328 0.037 12.03 2.482v4e-3l0.031 2e-3 0.033 8e-3v-4e-3l2.057 0.189-2.676 1.627c-2.88-0.926-4.954 1-6.186 2.916 1.779-0.678 2.957-1.284 4.881-0.852l-0.172 0.275 1.922 3.156 0.307-0.025c-0.511 1.841-1.578 2.605-2.975 3.854 2.243-0.212 4.875-1.148 5.416-4.059l2.674-1.627-0.791 1.945-2e-3 -2e-3 -2e-3 0.012-4e-3 1e-3h2e-3l-1.809 10.297 4.168-9.363-8e-3 -4e-3 2.076-5.104 2.107-1.283-0.639-1.051 9.561-7.98z" opacity=".1"/><path d="m40.03 7.531c3.712 4.084 5.969 9.514 5.969 15.469 0 12.703-10.297 23-23 23-5.954 0-11.384-2.256-15.469-5.969 4.178 4.291 10.01 6.969 16.469 6.969 12.703 0 23-10.298 23-23 0-6.462-2.677-12.291-6.969-16.469z" opacity=".1"/><path fill="#fba295" fill-rule="evenodd" d="m40.1 13.675-11.481 4.823 1.92 3.156z"/><path fill="#a78d9b" fill-rule="evenodd" d="m13.391 25.474c2.175-0.828 3.431-1.577 6.279-0.412l0.799-2.142c-3.351-1.688-5.722 0.447-7.078 2.554z"/><path fill="#a78d9b" fill-rule="evenodd" d="m17.353 31.882c1.735-1.551 2.977-2.322 3.253-5.387l2.27 0.275c-0.041 3.752-3.03 4.876-5.522 5.112z"/><rect width="2.531" height="5.541" x="-35.969" y="11.262" fill="#a8bb8d" transform="matrix(-.92632 -.37673 -.37673 .92632 0 0)"/><rect width="2.531" height="5.541" x="16.282" y="-27.48" fill="#a8bb8d" transform="matrix(-.091275 .99583 -.99583 -.091275 0 0)"/><path fill="#dc765f" d="m27.981 17.445-8.417 5.121-1.052 0.64 0.32 0.526-0.732 1.166 1.92 3.156 1.372-0.114 0.32 0.526 1.052-0.64 8.417-5.121-3.2-5.261z"/><path fill="#a78d9b" fill-rule="evenodd" d="m22.837 38.459 1.812-10.318 2.357 0.955z"/><path fill="#a78d9b" fill-rule="evenodd" d="m8.103 18.251 12.09 2.495 0.235-2.532z"/></svg>