<svg xmlns="http://www.w3.org/2000/svg" viewBox="0 0 48 48"><defs><linearGradient id="linearGradient3764" x1="1" x2="47" gradientTransform="matrix(0 -1 1 0 -.0000015 48)" gradientUnits="userSpaceOnUse"><stop offset="0" stop-color="#b2dcf6"/><stop offset="1" stop-color="#c3e4f8"/></linearGradient></defs><g><path d="m36.31 5c5.859 4.062 9.688 10.831 9.688 18.5 0 12.426-10.07 22.5-22.5 22.5-7.669 0-14.438-3.828-18.5-9.688 1.037 1.822 2.306 3.499 3.781 4.969 4.085 3.712 9.514 5.969 15.469 5.969 12.703 0 23-10.298 23-23 0-5.954-2.256-11.384-5.969-15.469-1.469-1.475-3.147-2.744-4.969-3.781zm4.969 3.781c3.854 4.113 6.219 9.637 6.219 15.719 0 12.703-10.297 23-23 23-6.081 0-11.606-2.364-15.719-6.219 4.16 4.144 9.883 6.719 16.219 6.719 12.703 0 23-10.298 23-23 0-6.335-2.575-12.06-6.719-16.219z" opacity=".05"/><path d="m41.28 8.781c3.712 4.085 5.969 9.514 5.969 15.469 0 12.703-10.297 23-23 23-5.954 0-11.384-2.256-15.469-5.969 4.113 3.854 9.637 6.219 15.719 6.219 12.703 0 23-10.298 23-23 0-6.081-2.364-11.606-6.219-15.719z" opacity=".1"/><path d="m31.25 2.375c8.615 3.154 14.75 11.417 14.75 21.13 0 12.426-10.07 22.5-22.5 22.5-9.708 0-17.971-6.135-21.12-14.75a23 23 0 0 0 44.875 -7 23 23 0 0 0 -16 -21.875z" opacity=".2"/></g><g><circle cx="24" cy="24" r="21" fill="url(#linearGradient3764)"/></g><path d="m24 3a21 21 0 0 0 -21 21 21 21 0 0 0 21 21 21 21 0 0 0 4.861 -0.596l0.139-0.404 10-29-2-2-16 12h-7l2 3.668-3 2.332-6-1 2 4 3.168 6.3379a20 20 0 0 1 -7.168 -15.338 20 20 0 0 1 20 -20 20 20 0 0 1 19.979 19.416 21 21 0 0 0 0.021 -0.416 21 21 0 0 0 -21 -21zm1 23c1.1046 0 2 0.89543 2 2s-0.89543 2-2 2-2-0.89543-2-2 0.89543-2 2-2zm-5 4c1.1046 0 2 0.89543 2 2s-0.89543 2-2 2-2-0.89543-2-2 0.89543-2 2-2z" opacity=".1"/><g><path fill="#224255" d="m25 0a23 23 0 0 0 -23 23 23 23 0 0 0 23 23 23 23 0 0 0 23 -23 23 23 0 0 0 -23 -23zm0 3a20 20 0 0 1 20 20 20 20 0 0 1 -16.215 19.623l0.215-0.623 10-29-2-2-16 12h-8l3 3.668-3 2.332-6-1 2 4 3.168 6.3379a20 20 0 0 1 -7.168 -15.338 20 20 0 0 1 20 -20zm0 21c1.1046 0 2 0.89543 2 2s-0.89543 2-2 2-2-0.89543-2-2 0.89543-2 2-2zm-5 4c1.1046 0 2 0.89543 2 2s-0.89543 2-2 2-2-0.89543-2-2 0.89543-2 2-2z" transform="translate(-1,1)"/></g><g><path d="m 40.03 7.531 c 3.712 4.084 5.969 9.514 5.969 15.469 0 12.703 -10.297 23 -23 23 c -5.954 0 -11.384 -2.256 -15.469 -5.969 4.178 4.291 10.01 6.969 16.469 6.969 c 12.703 0 23 -10.298 23 -23 0 -6.462 -2.677 -12.291 -6.969 -16.469 z" opacity=".1"/></g></svg>