<svg xmlns="http://www.w3.org/2000/svg" xmlns:svg="http://www.w3.org/2000/svg" id="svg45" version="1.1" viewBox="0 0 48 48"><metadata id="metadata49"/><defs id="defs7"><linearGradient id="linearGradient3764" x1="1" x2="47" gradientTransform="matrix(0,-1,1,0,-1.5e-6,47.999998)" gradientUnits="userSpaceOnUse"><stop id="stop2" stop-color="#5d4b33" stop-opacity="1"/><stop id="stop4" offset="1" stop-color="#69553a" stop-opacity="1"/></linearGradient><style id="current-color-scheme" type="text/css">.ColorScheme-Text{color:#d3dae3}</style></defs><g id="g15"><path id="path9" d="m 36.31 5 c 5.859 4.062 9.688 10.831 9.688 18.5 c 0 12.426 -10.07 22.5 -22.5 22.5 c -7.669 0 -14.438 -3.828 -18.5 -9.688 c 1.037 1.822 2.306 3.499 3.781 4.969 c 4.085 3.712 9.514 5.969 15.469 5.969 c 12.703 0 23 -10.298 23 -23 c 0 -5.954 -2.256 -11.384 -5.969 -15.469 c -1.469 -1.475 -3.147 -2.744 -4.969 -3.781 z m 4.969 3.781 c 3.854 4.113 6.219 9.637 6.219 15.719 c 0 12.703 -10.297 23 -23 23 c -6.081 0 -11.606 -2.364 -15.719 -6.219 c 4.16 4.144 9.883 6.719 16.219 6.719 c 12.703 0 23 -10.298 23 -23 c 0 -6.335 -2.575 -12.06 -6.719 -16.219 z" opacity=".05"/><path id="path11" d="m 41.28 8.781 c 3.712 4.085 5.969 9.514 5.969 15.469 c 0 12.703 -10.297 23 -23 23 c -5.954 0 -11.384 -2.256 -15.469 -5.969 c 4.113 3.854 9.637 6.219 15.719 6.219 c 12.703 0 23 -10.298 23 -23 c 0 -6.081 -2.364 -11.606 -6.219 -15.719 z" opacity=".1"/><path id="path13" d="m 31.25 2.375 c 8.615 3.154 14.75 11.417 14.75 21.13 c 0 12.426 -10.07 22.5 -22.5 22.5 c -9.708 0 -17.971 -6.135 -21.12 -14.75 a 23 23 0 0 0 44.875 -7 a 23 23 0 0 0 -16 -21.875 z" opacity=".2"/></g><g id="g19"><path id="path17" fill="url(#linearGradient3764)" fill-opacity="1" d="m 24 1 c 12.703 0 23 10.297 23 23 c 0 12.703 -10.297 23 -23 23 -12.703 0 -23 -10.297 -23 -23 0 -12.703 10.297 -23 23 -23 z"/></g><g id="g43"><path id="path41" d="m 40.03 7.531 c 3.712 4.084 5.969 9.514 5.969 15.469 0 12.703 -10.297 23 -23 23 c -5.954 0 -11.384 -2.256 -15.469 -5.969 4.178 4.291 10.01 6.969 16.469 6.969 c 12.703 0 23 -10.298 23 -23 0 -6.462 -2.677 -12.291 -6.969 -16.469 z" opacity=".1"/></g><path id="path54" fill="currentColor" stroke-width="2.02" d="m 9.4235382,10.688591 c -2.8764252,-0.04966 -2.9060455,3.843063 -0.02913,3.828733 v 21.058035 c -0.040595,2.578938 4.2650638,2.585379 4.2577518,0.02617 h -0.0083 V 12.546875 c -0.03495,-1.029817 -0.963683,-1.858179 -2.118464,-1.858284 z m 6.3512508,1.914366 v 21.058035 h 2.143443 v 2.437827 c 0,1.391364 1.548274,1.390906 1.548274,1.390906 h 0.582682 2.130957 v -3.828733 h 4.261912 v 3.821256 h 4.261914 v -3.821256 h 4.261913 v 3.824994 h 2.130957 0.582685 c 0,0 1.548272,4.58e-4 1.548272,-1.390907 v -2.434087 h 0.640954 c 0.826385,0 1.490003,-0.586462 1.490003,-1.316127 v -18.42578 c 0,-0.729665 -0.663618,-1.316128 -1.490003,-1.316128 z m 4.274399,3.828734 h 8.523826 c 1.787593,-6.68e-4 2.781766,1.85703 1.66481,3.110846 l -5.751917,6.460987 h 4.087107 c 2.881742,-0.03662 2.881742,3.865347 0,3.828735 h -8.523826 c -1.787593,6.69e-4 -2.781766,-1.857031 -1.66481,-3.110847 l 5.75192,-6.460988 h -4.08711 c -2.881739,0.0366 -2.881739,-3.865345 0,-3.828733 z m 13.867867,0 h 4.245265 c 0.850878,1.64e-4 1.35835,0.852022 0.886512,1.488122 l -3.146492,4.254978 h 2.25998 c 1.440821,-0.01819 1.440821,1.932626 0,1.914367 h -4.245265 c -0.852762,0.0029 -1.363567,-0.85061 -0.890674,-1.488121 l 3.146492,-4.25498 h -2.255818 c -1.44087,0.01838 -1.44087,-1.932671 0,-1.914366 z" class="ColorScheme-Text" color="#d3dae3"/></svg>