<svg xmlns="http://www.w3.org/2000/svg" xmlns:svg="http://www.w3.org/2000/svg" id="svg53" version="1.1" viewBox="0 0 48 48"><metadata id="metadata57"/><defs id="defs7"><linearGradient id="linearGradient3764" x1="1" x2="47" gradientTransform="matrix(0,-1,1,0,-1.5e-6,47.999998)" gradientUnits="userSpaceOnUse"><stop id="stop2" stop-color="#e4e4e4" stop-opacity="1"/><stop id="stop4" offset="1" stop-color="#eee" stop-opacity="1"/></linearGradient></defs><g id="g15"><path id="path9" d="m 36.31 5 c 5.859 4.062 9.688 10.831 9.688 18.5 c 0 12.426 -10.07 22.5 -22.5 22.5 c -7.669 0 -14.438 -3.828 -18.5 -9.688 c 1.037 1.822 2.306 3.499 3.781 4.969 c 4.085 3.712 9.514 5.969 15.469 5.969 c 12.703 0 23 -10.298 23 -23 c 0 -5.954 -2.256 -11.384 -5.969 -15.469 c -1.469 -1.475 -3.147 -2.744 -4.969 -3.781 z m 4.969 3.781 c 3.854 4.113 6.219 9.637 6.219 15.719 c 0 12.703 -10.297 23 -23 23 c -6.081 0 -11.606 -2.364 -15.719 -6.219 c 4.16 4.144 9.883 6.719 16.219 6.719 c 12.703 0 23 -10.298 23 -23 c 0 -6.335 -2.575 -12.06 -6.719 -16.219 z" opacity=".05"/><path id="path11" d="m 41.28 8.781 c 3.712 4.085 5.969 9.514 5.969 15.469 c 0 12.703 -10.297 23 -23 23 c -5.954 0 -11.384 -2.256 -15.469 -5.969 c 4.113 3.854 9.637 6.219 15.719 6.219 c 12.703 0 23 -10.298 23 -23 c 0 -6.081 -2.364 -11.606 -6.219 -15.719 z" opacity=".1"/><path id="path13" d="m 31.25 2.375 c 8.615 3.154 14.75 11.417 14.75 21.13 c 0 12.426 -10.07 22.5 -22.5 22.5 c -9.708 0 -17.971 -6.135 -21.12 -14.75 a 23 23 0 0 0 44.875 -7 a 23 23 0 0 0 -16 -21.875 z" opacity=".2"/></g><g id="g19" fill="#333"><path id="path17" fill="#333" fill-opacity="1" d="m 24 1 c 12.703 0 23 10.297 23 23 c 0 12.703 -10.297 23 -23 23 -12.703 0 -23 -10.297 -23 -23 0 -12.703 10.297 -23 23 -23 z"/></g><g id="g35" transform="matrix(1.5718833,0,0,1.6805682,-13.674398,-17.462042)"><g id="g33"><g id="g31" transform="translate(1,1)"><g id="g29" opacity=".1"><g id="g27"><path id="path21" fill="#000" fill-opacity="1" fill-rule="nonzero" stroke="none" d="m 12,19 h 2 l 2.5,7 h 1 l 2.504,-7 H 22 L 18,29 H 16 M 12,19"/><path id="path23" fill="#000" fill-opacity="1" fill-rule="nonzero" stroke="none" d="m 18,29 h 2 l 2.5,-7 h 1 l 2.5,7 h 2 L 24,19 h -2.063 m -3.938,10"/><path id="path25" fill="#000" fill-opacity="1" fill-rule="nonzero" stroke="none" d="m 26,29 h 2 l 2.5,-7 h 1 l 2.5,7 h 2 L 32,19 h -2 m -4,10"/></g></g></g></g></g><g id="g47" transform="matrix(1.6471825,0,0,1.86291,-15.532379,-23.082842)"><g id="g45" transform="matrix(0.95428607,0,0,0.90211992,1.2907168,2.9791347)"><g id="g43" stroke="none" stroke-dasharray="none" stroke-miterlimit="4" stroke-opacity="1" stroke-width=".1"><path id="path37" fill="#c83737" fill-opacity="1" fill-rule="nonzero" stroke="none" stroke-dasharray="none" stroke-miterlimit="4" stroke-opacity="1" stroke-width=".1" d="m 12,19 h 2 l 2.5,7 h 1 l 2.504,-7 H 22 L 18,29 H 16 M 12,19"/><path id="path39" fill="#999" fill-opacity="1" fill-rule="nonzero" stroke="none" stroke-dasharray="none" stroke-miterlimit="4" stroke-opacity="1" stroke-width=".1" d="m 18,29 h 2 l 2.5,-7 h 1 l 2.5,7 h 2 L 24,19 h -2.063 m -3.938,10"/><path id="path41" fill="#999" fill-opacity="1" fill-rule="nonzero" stroke="none" stroke-dasharray="none" stroke-miterlimit="4" stroke-opacity="1" stroke-width=".1" d="m 26,29 h 2 l 2.5,-7 h 1 l 2.5,7 h 2 L 32,19 h -2 m -4,10"/></g></g></g><g id="g51"><path id="path49" d="m 40.03 7.531 c 3.712 4.084 5.969 9.514 5.969 15.469 0 12.703 -10.297 23 -23 23 c -5.954 0 -11.384 -2.256 -15.469 -5.969 4.178 4.291 10.01 6.969 16.469 6.969 c 12.703 0 23 -10.298 23 -23 0 -6.462 -2.677 -12.291 -6.969 -16.469 z" opacity=".1"/></g></svg>