<svg xmlns="http://www.w3.org/2000/svg" width="48" height="48" version="1.1" viewBox="0 0 48 48"><defs><linearGradient id="linearGradient844" x1="-47" x2="-1" y1="24" y2="24" gradientTransform="translate(0,1.47e-6)" gradientUnits="userSpaceOnUse"><stop offset="0" stop-color="#373277"/><stop offset="1" stop-color="#3d3884"/></linearGradient></defs><path d="m36.31 5c5.859 4.062 9.688 10.831 9.688 18.5 0 12.426-10.07 22.5-22.5 22.5-7.669 0-14.438-3.828-18.5-9.688 1.037 1.822 2.306 3.499 3.781 4.969 4.085 3.712 9.514 5.969 15.469 5.969 12.703 0 23-10.298 23-23 0-5.954-2.256-11.384-5.969-15.469-1.469-1.475-3.147-2.744-4.969-3.781zm4.969 3.781c3.854 4.113 6.219 9.637 6.219 15.719 0 12.703-10.297 23-23 23-6.081 0-11.606-2.364-15.719-6.219 4.16 4.144 9.883 6.719 16.219 6.719 12.703 0 23-10.298 23-23 0-6.335-2.575-12.06-6.719-16.219z" opacity=".05"/><path d="m41.28 8.781c3.712 4.085 5.969 9.514 5.969 15.469 0 12.703-10.297 23-23 23-5.954 0-11.384-2.256-15.469-5.969 4.113 3.854 9.637 6.219 15.719 6.219 12.703 0 23-10.298 23-23 0-6.081-2.364-11.606-6.219-15.719z" opacity=".1"/><path d="m31.25 2.375c8.615 3.154 14.75 11.417 14.75 21.13 0 12.426-10.07 22.5-22.5 22.5-9.708 0-17.971-6.135-21.12-14.75a23 23 0 0 0 44.875 -7 23 23 0 0 0 -16 -21.875z" opacity=".2"/><circle cx="-24" cy="24" r="23" fill="url(#linearGradient844)" transform="rotate(-90)"/><path d="m40.03 7.531c3.712 4.084 5.969 9.514 5.969 15.469 0 12.703-10.297 23-23 23-5.954 0-11.384-2.256-15.469-5.969 4.178 4.291 10.01 6.969 16.469 6.969 12.703 0 23-10.298 23-23 0-6.462-2.677-12.291-6.969-16.469z" opacity=".1"/><g opacity=".12"><path style="isolation:auto;mix-blend-mode:normal;solid-color:#000;white-space:normal" d="m17.77 25.295-6.524-5.02-1.414 0.754v11.555l1.414 0.754 6.523-5.02 10.914 10.55 4.961-2.01v-20.1l-4.961-2.01s-7.282 7.03-10.914 10.55zm10.914 6.03-5.953-4.522 5.953-4.522zm-15.875-7.285 2.977 2.763-2.977 2.763z" color-rendering="auto" image-rendering="auto" isolation="auto" mix-blend-mode="normal" opacity="1" shape-rendering="auto" transform="matrix(.055385 0 0 .05469 11.061 -.66341) matrix(18.198,0,0,18.198,-161.97,-18.473)"/></g><g fill="#62b3e7"><path style="isolation:auto;mix-blend-mode:normal;solid-color:#000;white-space:normal" fill="#62b3e7" d="m17.77 25.295-6.524-5.02-1.414 0.754v11.555l1.414 0.754 6.523-5.02 10.914 10.55 4.961-2.01v-20.1l-4.961-2.01s-7.282 7.03-10.914 10.55zm10.914 6.03-5.953-4.522 5.953-4.522zm-15.875-7.285 2.977 2.763-2.977 2.763z" color-rendering="auto" image-rendering="auto" isolation="auto" mix-blend-mode="normal" shape-rendering="auto" transform="matrix(.055385 0 0 .05469 10.061 -1.6634) matrix(18.198,0,0,18.198,-161.97,-18.473)"/></g></svg>