<svg xmlns="http://www.w3.org/2000/svg" viewBox="0 0 48 48"><defs><linearGradient id="linearGradient3764" x1="1" x2="47" gradientTransform="matrix(0,-1,1,0,-1.5e-6,47.999998)" gradientUnits="userSpaceOnUse"><stop stop-color="#dbdbdb" stop-opacity="1"/><stop offset="1" stop-color="#e5e5e5" stop-opacity="1"/></linearGradient></defs><g><path d="m 36.31 5 c 5.859 4.062 9.688 10.831 9.688 18.5 c 0 12.426 -10.07 22.5 -22.5 22.5 c -7.669 0 -14.438 -3.828 -18.5 -9.688 c 1.037 1.822 2.306 3.499 3.781 4.969 c 4.085 3.712 9.514 5.969 15.469 5.969 c 12.703 0 23 -10.298 23 -23 c 0 -5.954 -2.256 -11.384 -5.969 -15.469 c -1.469 -1.475 -3.147 -2.744 -4.969 -3.781 z m 4.969 3.781 c 3.854 4.113 6.219 9.637 6.219 15.719 c 0 12.703 -10.297 23 -23 23 c -6.081 0 -11.606 -2.364 -15.719 -6.219 c 4.16 4.144 9.883 6.719 16.219 6.719 c 12.703 0 23 -10.298 23 -23 c 0 -6.335 -2.575 -12.06 -6.719 -16.219 z" opacity=".05"/><path d="m 41.28 8.781 c 3.712 4.085 5.969 9.514 5.969 15.469 c 0 12.703 -10.297 23 -23 23 c -5.954 0 -11.384 -2.256 -15.469 -5.969 c 4.113 3.854 9.637 6.219 15.719 6.219 c 12.703 0 23 -10.298 23 -23 c 0 -6.081 -2.364 -11.606 -6.219 -15.719 z" opacity=".1"/><path d="m 31.25 2.375 c 8.615 3.154 14.75 11.417 14.75 21.13 c 0 12.426 -10.07 22.5 -22.5 22.5 c -9.708 0 -17.971 -6.135 -21.12 -14.75 a 23 23 0 0 0 44.875 -7 a 23 23 0 0 0 -16 -21.875 z" opacity=".2"/></g><g><path fill="url(#linearGradient3764)" fill-opacity="1" d="m 24 1 c 12.703 0 23 10.297 23 23 c 0 12.703 -10.297 23 -23 23 -12.703 0 -23 -10.297 -23 -23 0 -12.703 10.297 -23 23 -23 z"/></g><g><g><path fill="#000" fill-opacity="1" fill-rule="nonzero" stroke="none" d="m 25 17 c -5.01 -0.023 -9.641 3.645 -12.727 7.254 -0.359 0.469 -0.359 1.023 0 1.492 3.34 3.951 7.857 7.268 12.727 7.254 5.15 -0.015 9.813 -3.521 12.732 -7.254 0.359 -0.469 0.359 -1.023 0 -1.492 -3.36 -3.99 -7.723 -7.231 -12.732 -7.254 z m 1 3.102 a 5 5 0 0 1 3.789 3.473 c 0.014 0.056 0.035 0.108 0.047 0.164 a 5 5 0 0 1 0.059 0.262 l -0.895 0 c -0.554 0 -1 0.446 -1 1 0 0.554 0.446 1 1 1 l 0.896 0 c -0.001 0.007 -0.001 0.014 -0.002 0.021 a 5 5 0 0 1 -0.102 0.396 c -0.007 0.028 -0.016 0.054 -0.023 0.082 a 5 5 0 0 1 -3.77 3.395 l 0 -0.895 c 0 -0.554 -0.446 -1 -1 -1 -0.554 0 -1 0.446 -1 1 l 0 0.898 a 5 5 0 0 1 -3.894 -3.898 l 0.895 0 c 0.554 0 1 -0.446 1 -1 0 -0.554 -0.446 -1 -1 -1 l -0.898 0 a 5 5 0 0 1 3.898 -3.895 l 0 0.895 c 0 0.554 0.446 1 1 1 0.554 0 1 -0.446 1 -1 l 0 -0.898 z m -1 2.898 a 2 2 0 0 0 -2 2 2 2 0 0 0 2 2 2 2 0 0 0 2 -2 2 2 0 0 0 -2 -2 z" opacity=".1" transform="translate(2.5e-4,0)"/><path fill="#2f93b7" fill-opacity="1" fill-rule="nonzero" stroke="none" d="m 24 16 c -5.01 -0.023 -9.641 3.645 -12.727 7.254 -0.359 0.469 -0.359 1.023 0 1.492 3.34 3.951 7.857 7.268 12.727 7.254 5.15 -0.015 9.813 -3.521 12.732 -7.254 0.359 -0.469 0.359 -1.023 0 -1.492 -3.36 -3.99 -7.723 -7.231 -12.732 -7.254 z m -0.008 2.555 c 2.785 0 4.99 2.441 4.99 5.449 0 3 -2.209 5.446 -4.99 5.445 -2.762 0 -4.992 -2.441 -4.992 -5.445 0 -3.01 2.234 -5.449 4.992 -5.449 z" transform="translate(2.5e-4,0)"/></g></g><g><path d="m 40.03 7.531 c 3.712 4.084 5.969 9.514 5.969 15.469 0 12.703 -10.297 23 -23 23 c -5.954 0 -11.384 -2.256 -15.469 -5.969 4.178 4.291 10.01 6.969 16.469 6.969 c 12.703 0 23 -10.298 23 -23 0 -6.462 -2.677 -12.291 -6.969 -16.469 z" opacity=".1"/></g><rect width="5" height="2" x="16" y="23" fill="#e34445" fill-opacity="1" stroke="none" opacity="1" rx="1"/><rect width="5" height="2" x="27" y="23" fill="#e34445" fill-opacity="1" stroke="none" opacity="1" rx="1"/><rect width="2" height="5" x="23" y="27" fill="#e34445" fill-opacity="1" stroke="none" opacity="1" rx="1"/><rect width="2" height="5" x="23" y="16" fill="#e34445" fill-opacity="1" stroke="none" opacity="1" rx="1"/><path fill="#e34445" fill-opacity="1" stroke="none" d="m 24 17 a 7 7 0 0 0 -7 7 7 7 0 0 0 7 7 7 7 0 0 0 7 -7 7 7 0 0 0 -7 -7 z m 0 2 a 5 5 0 0 1 5 5 5 5 0 0 1 -5 5 5 5 0 0 1 -5 -5 5 5 0 0 1 5 -5 z m 0 3 a 2 2 0 0 0 -2 2 2 2 0 0 0 2 2 2 2 0 0 0 2 -2 2 2 0 0 0 -2 -2 z" opacity="1"/></svg>