<svg xmlns="http://www.w3.org/2000/svg" width="22" height="22" version="1.1"><defs><style id="current-color-scheme" type="text/css">.ColorScheme-Text{color:#d3dae3}</style></defs><path fill="currentColor" d="M 11 3.7207031 L 8.8105469 6 L 6 6 L 6 8.8105469 L 3.7207031 11 L 7 11 C 7 8.7900001 8.7900001 7 11 7 C 13.21 7 15 8.7900001 15 11 L 18.279297 11 L 16 9 L 16 6 L 13.220703 6 L 11 3.7207031 z M 11 8 C 9.3431001 8 8 9.3431001 8 11 L 11 11 L 11 8 z" class="ColorScheme-Text" opacity=".3"/><path fill="currentColor" fill-rule="evenodd" d="m 18,13 c 0,-0.554 -0.446,-1 -1,-1 H 4 c -0.554,0 -1,0.446 -1,1 v 5 c 0,0.554 0.446,1 1,1 h 13 c 0.554,0 1,-0.446 1,-1 z m -3,0 v 1 h -1 v -1 z m 0,2 v 1 h -1 v -1 z m -1,2 v 1 H 7.0000002 v -1 z m -1,-4 v 1 h -1 v -1 z m 0,2 v 1 h -1 v -1 z m -2,-2 v 1 h -1 v -1 z m 0,2 v 1 H 10 V 15 Z M 9.0000002,13 v 1 h -1 v -1 z m 0,2 v 1 h -1 v -1 z m -2,-2 v 1 h -1 v -1 z m 0,2 v 1 h -1 v -1 z" class="ColorScheme-Text" opacity=".3"/></svg>