<svg xmlns="http://www.w3.org/2000/svg" xmlns:svg="http://www.w3.org/2000/svg" id="svg9" width="24" height="24" version="1.1"><metadata id="metadata13"/><defs id="defs3"><style id="current-color-scheme" type="text/css">.ColorScheme-Text{color:#d3dae3}.ColorScheme-Highlight{color:#16a085}</style></defs><path id="path5" fill="red" d="m5.5 4c-0.277 0-0.5 0.223-0.5 0.5v0.5l-2-0.002v-0.00026l-0.00002 14.502c0 0.277 0.223 0.5 0.5 0.5h6c0.277 0 0.5-0.223 0.5-0.5l0.00002-14.501-0.50002 0.002h-1.5v-0.5c0-0.277-0.223-0.50001-0.5-0.50001z" class="ColorScheme-Highlight" opacity=".35"/><path id="path7" fill="currentColor" d="m17 4c-2.77 0-5 2.676-5 6h5zm1 0v6h5c0-3.324-2.23-6-5-6zm-6 7v3c0 3.324 2.23 6 5 6h1c2.77 0 5-2.676 5-6v-3h-5z" class="ColorScheme-Text"/></svg>