<svg xmlns="http://www.w3.org/2000/svg" width="24" height="24" version="1.1"><defs><style id="current-color-scheme" type="text/css">.ColorScheme-Text{color:#d3dae3}</style></defs><g><path fill="currentColor" d="m195 601.37-14 14h9v-5h5v-9z" class="ColorScheme-Text" opacity=".35" transform="translate(-176 -596.36)"/><path fill="currentColor" d="m191 611.37v1c0 0.27614 0.10029 0.53779 0.28125 0.71875l0.78125 0.78125-0.78125 0.78125c-0.18096 0.18096-0.28125 0.44261-0.28125 0.71875v1h1c0.27614 0 0.53779-0.10029 0.71875-0.28125l0.78125-0.78125 0.78125 0.78125c0.18096 0.18096 0.44261 0.28125 0.71875 0.28125h1v-1c0-0.27614-0.10029-0.53779-0.28125-0.71875l-0.78125-0.78125 0.78125-0.78125c0.18096-0.18096 0.28125-0.44261 0.28125-0.71875v-1h-1c-0.27614 0-0.53779 0.10029-0.71875 0.28125l-0.78125 0.78125-0.78125-0.78125c-0.18096-0.18096-0.44261-0.28125-0.71875-0.28125h-1z" class="ColorScheme-Text" transform="translate(-176 -596.36)"/></g></svg>