<svg xmlns="http://www.w3.org/2000/svg" xmlns:svg="http://www.w3.org/2000/svg" id="svg9" width="24" height="24" version="1.1"><metadata id="metadata13"/><defs id="defs3"><style id="current-color-scheme" type="text/css">.ColorScheme-Text{color:#d3dae3}.ColorScheme-Highlight{color:#16a085}</style></defs><path id="path5" fill="currentColor" d="M 6,6 C 4.892,6 4,6.892 4,8 l 0,8 c 0,1.108 0.892,2 2,2 l 11,0 c -1.645,0 -3,-1.355 -3,-3 0,-1.645 1.355,-3 3,-3 1.645,0 3,1.355 3,3 L 20,8 C 20,6.892 19.108,6 18,6 L 6,6 Z m 0,2 6,3 6,-3 0,2 -6,3 -6,-3 0,-2 z" class="ColorScheme-Text"/><path id="path7" fill="red" d="m 17,13 a 2,2 0 0 0 -2,2 2,2 0 0 0 2,2 2,2 0 0 0 2,-2 2,2 0 0 0 -2,-2 z" class="ColorScheme-Highlight"/></svg>