<svg xmlns="http://www.w3.org/2000/svg" xmlns:svg="http://www.w3.org/2000/svg" id="svg9" width="24" height="24" version="1.1"><metadata id="metadata13"/><defs id="defs3"><style id="current-color-scheme" type="text/css">.ColorScheme-Text{color:#d3dae3}.ColorScheme-Highlight{color:#16a085}</style></defs><path id="path5" fill="currentColor" d="m13 4c-1 0-1 1-1 1v14s0 1 1 1h8c1 0 1-1 1-1v-14s0-1-1-1zm0.9998 2.0034h6v11h-6z" class="ColorScheme-Text"/><path id="path7" fill="red" d="m5.5 4c-0.277 0-0.5 0.223-0.5 0.5v0.5l-2-0.002v-0.00026l-0.00002 14.502c0 0.277 0.223 0.5 0.5 0.5h6c0.277 0 0.5-0.223 0.5-0.5l0.00002-14.501-0.50002 0.002h-1.5v-0.5c0-0.277-0.223-0.50001-0.5-0.50001z" class="ColorScheme-Highlight" opacity=".35"/></svg>