<svg xmlns="http://www.w3.org/2000/svg" xmlns:svg="http://www.w3.org/2000/svg" id="svg2" width="64" height="64" version="1.1" viewBox="0 0 64 64"><metadata id="metadata14"/><defs id="defs12"><clipPath id="clipPath4157" clipPathUnits="userSpaceOnUse"><path id="path4159" fill="#f9f8f2" fill-opacity="1" stroke-width="1.007" d="m 27.642964,3.2951379 13.085584,13.0855841 -11.072418,0 c -0.977824,0 -2.013166,-1.035372 -2.013166,-2.013167 l 0,-11.0724171 z"/></clipPath></defs><g id="g4174" transform="matrix(0.13425926,0,0,0.13425926,-1.8703707,-2.3703705)"><path id="path4172" fill="#00c796" fill-opacity="1" fill-rule="evenodd" stroke="none" stroke-linecap="butt" stroke-linejoin="miter" stroke-opacity="1" stroke-width="1.193" d="m 111.68966,39.999999 200.17241,2e-6 107.99807,111.724139 0,293.27586 c 0,14.958 -12.042,27 -27,27 l -281.17048,0 C 96.731656,472 84.689656,459.958 84.689656,445 l 0,-378.000001 c 0,-14.958 12.042,-27 27.000004,-27 z"/><path id="rect4167" fill="#000" fill-opacity=".176" fill-rule="evenodd" stroke="none" stroke-linecap="butt" stroke-linejoin="miter" stroke-opacity="1" stroke-width="1.193" d="M 419.86014,151.72414 311.86207,40.000001 l -0.002,84.724139 c -3.4e-4,14.958 12.042,27 27,27 z"/></g><path id="rect4173" fill="#000" fill-opacity=".588" stroke="none" d="m 32,23 a 11,11 0 0 0 -7.921875,3.371094 l -1.724609,-1.72461 c -0.09421,-0.09737 -0.223892,-0.152343 -0.359375,-0.152343 -0.449403,9.1e-5 -0.670588,0.54684 -0.347657,0.859375 l 1.769532,1.769531 A 11,11 0 0 0 21,34 l 0,11 22,0 0,-11 a 11,11 0 0 0 -2.421875,-6.869141 l 1.777344,-1.777343 c 0.322931,-0.312535 0.101746,-0.859284 -0.347657,-0.859375 -0.135483,0 -0.265165,0.05497 -0.359374,0.152343 l -1.732422,1.732422 A 11,11 0 0 0 32,23 Z m 0,1 a 10,10 0 0 1 10,10 l 0,2 -20,0 0,-2 A 10,10 0 0 1 32,24 Z m -5.5,5 A 1.5,1.5 0 0 0 25,30.5 1.5,1.5 0 0 0 26.5,32 1.5,1.5 0 0 0 28,30.5 1.5,1.5 0 0 0 26.5,29 Z m 11,0 A 1.5,1.5 0 0 0 36,30.5 1.5,1.5 0 0 0 37.5,32 1.5,1.5 0 0 0 39,30.5 1.5,1.5 0 0 0 37.5,29 Z m -15.5,8 8,0 0,1 2,0 0,-1 10,0 0,7 -20,0 0,-7 z m 10,1 0,2 2,0 0,-2 -2,0 z m 0,2 -2,0 0,1 0,2 4,0 0,-2 -2,0 0,-1 z" opacity="1"/></svg>