<svg xmlns="http://www.w3.org/2000/svg" xmlns:svg="http://www.w3.org/2000/svg" id="svg2" width="64" height="64" version="1.1" viewBox="0 0 64 64"><metadata id="metadata14"/><defs id="defs12"><clipPath id="clipPath4157" clipPathUnits="userSpaceOnUse"><path id="path4159" fill="#f9f8f2" fill-opacity="1" stroke-width="1.007" d="m 27.642964,3.2951379 13.085584,13.0855841 -11.072418,0 c -0.977824,0 -2.013166,-1.035372 -2.013166,-2.013167 l 0,-11.0724171 z"/></clipPath></defs><g id="g4174" transform="matrix(0.13425926,0,0,0.13425926,-1.8702411,-2.3703705)"><path id="path4172" fill="#9b59b6" fill-opacity="1" fill-rule="evenodd" stroke="none" stroke-linecap="butt" stroke-linejoin="miter" stroke-opacity="1" stroke-width="1.193" d="m 111.68966,39.999999 200.17241,2e-6 107.99807,111.724139 0,293.27586 c 0,14.958 -12.042,27 -27,27 l -281.17048,0 C 96.731656,472 84.689656,459.958 84.689656,445 l 0,-378.000001 c 0,-14.958 12.042,-27 27.000004,-27 z"/><path id="rect4167" fill="#000" fill-opacity=".176" fill-rule="evenodd" stroke="none" stroke-linecap="butt" stroke-linejoin="miter" stroke-opacity="1" stroke-width="1.193" d="M 419.86014,151.72414 311.86207,40.000001 l -0.002,84.724139 c -3.4e-4,14.958 12.042,27 27,27 z"/></g><path color="#000" style="text-decoration-line:none;text-decoration-style:solid;text-decoration-color:#000;isolation:auto;mix-blend-mode:normal;solid-color:#000;solid-opacity:1" id="rect4204" fill="#f7f7f7" fill-opacity="1" fill-rule="nonzero" stroke="none" stroke-dasharray="none" stroke-dashoffset="0" stroke-linecap="butt" stroke-linejoin="miter" stroke-miterlimit="4" stroke-opacity="1" stroke-width="1" d="m 26.5,22.90039 c -0.831,0 -1.5,0.669 -1.5,1.5 0,0.830999 0.669,1.5 1.5,1.5 0.831,0 1.5,-0.669001 1.5,-1.5 0,-0.831 -0.669,-1.5 -1.5,-1.5 z M 35,23 l -3,3 5,5 -5,5 3,3 8,-8 -8,-8 z M 23.5,31 C 22.115,31 21,32.115 21,33.5 21,34.885 22.115,36 23.5,36 24.885,36 26,34.885 26,33.5 26,32.115 24.885,31 23.5,31 Z m 5.5,8 c -1.662,0 -3,1.338 -3,3 0,1.662 1.338,3 3,3 1.662,0 3,-1.338 3,-3 0,-1.662 -1.338,-3 -3,-3 z" clip-rule="nonzero" color-interpolation="sRGB" color-interpolation-filters="linearRGB" color-rendering="auto" display="inline" enable-background="accumulate" image-rendering="auto" opacity="1" overflow="visible" shape-rendering="auto" text-decoration="none" text-rendering="auto" visibility="visible"/></svg>