<svg xmlns="http://www.w3.org/2000/svg" xmlns:svg="http://www.w3.org/2000/svg" id="svg2" width="64" height="64" version="1.1" viewBox="0 0 64 64"><metadata id="metadata14"/><defs id="defs12"><clipPath id="clipPath4157" clipPathUnits="userSpaceOnUse"><path id="path4159" fill="#f9f8f2" fill-opacity="1" stroke-width="1.007" d="m 27.642964,3.2951379 13.085584,13.0855841 -11.072418,0 c -0.977824,0 -2.013166,-1.035372 -2.013166,-2.013167 l 0,-11.0724171 z"/></clipPath></defs><g id="g4174" transform="matrix(0.13425926,0,0,0.13425926,-1.8702411,-2.3703705)"><path id="path4172" fill="#d91e18" fill-opacity="1" fill-rule="evenodd" stroke="none" stroke-linecap="butt" stroke-linejoin="miter" stroke-opacity="1" stroke-width="1.193" d="m 111.68966,39.999999 200.17241,2e-6 107.99807,111.724139 0,293.27586 c 0,14.958 -12.042,27 -27,27 l -281.17048,0 C 96.731656,472 84.689656,459.958 84.689656,445 l 0,-378.000001 c 0,-14.958 12.042,-27 27.000004,-27 z"/><path id="rect4167" fill="#000" fill-opacity=".176" fill-rule="evenodd" stroke="none" stroke-linecap="butt" stroke-linejoin="miter" stroke-opacity="1" stroke-width="1.193" d="M 419.86014,151.72414 311.86207,40.000001 l -0.002,84.724139 c -3.4e-4,14.958 12.042,27 27,27 z"/></g><path id="path4165" fill="#f7f7f7" fill-opacity="1" stroke="none" stroke-opacity="1" d="M 32,23 A 11,11 0 0 0 21,34 11,11 0 0 0 32,45 11,11 0 0 0 43,34 11,11 0 0 0 32,23 Z m 0,1 A 10,10 0 0 1 42,34 10,10 0 0 1 32,44 10,10 0 0 1 22,34 10,10 0 0 1 32,24 Z m 0,1 a 9,9 0 0 0 -2.392578,0.333984 l 0.242187,0.972657 A 8,8 0 0 1 32,26 a 8,8 0 0 1 8,8 8,8 0 0 1 -0.07031,1 l 1.003906,0 A 9,9 0 0 0 41,34 9,9 0 0 0 32,25 Z m -4.921875,1.476562 a 9,9 0 0 0 -3.4375,4.195313 l 0.898437,0.464844 a 8,8 0 0 1 3.041016,-3.792969 l -0.501953,-0.867188 z m 7.0625,1.582032 L 32.011719,36 A 2,2 0 0 0 32,36 a 2,2 0 0 0 -2,2 2,2 0 0 0 2,2 2,2 0 0 0 2,-2 2,2 0 0 0 -1.0625,-1.765625 2,2 0 0 1 0.04102,0.02148 l 2.128906,-7.939453 -0.966797,-0.257812 z m -11.083984,5.02539 A 9,9 0 0 0 23,34 a 9,9 0 0 0 0.06055,1 l 1.011719,0 A 8,8 0 0 1 24,34 8,8 0 0 1 24.03516,33.292969 l -0.978515,-0.208985 z m 9.113281,2.925782 a 2,2 0 0 1 0.09961,0.01172 2,2 0 0 0 -0.09961,-0.01172 z M 32.75,36.148438 a 2,2 0 0 1 0.101562,0.04492 A 2,2 0 0 0 32.75,36.148438 Z M 32,37 a 1,1 0 0 1 1,1 1,1 0 0 1 -1,1 1,1 0 0 1 -1,-1 1,1 0 0 1 1,-1 z" opacity="1"/></svg>