<svg xmlns="http://www.w3.org/2000/svg" xmlns:svg="http://www.w3.org/2000/svg" id="svg2" width="64" height="64" version="1.1" viewBox="0 0 64 64"><metadata id="metadata14"/><defs id="defs12"><clipPath id="clipPath4157" clipPathUnits="userSpaceOnUse"><path id="path4159" fill="#f9f8f2" fill-opacity="1" stroke-width="1.007" d="m 27.642964,3.2951379 13.085584,13.0855841 -11.072418,0 c -0.977824,0 -2.013166,-1.035372 -2.013166,-2.013167 l 0,-11.0724171 z"/></clipPath></defs><g id="g4174" transform="matrix(0.13425926,0,0,0.13425926,-1.8702411,-2.3703705)"><path id="path4172" fill="#2abb9b" fill-opacity="1" fill-rule="evenodd" stroke="none" stroke-linecap="butt" stroke-linejoin="miter" stroke-opacity="1" stroke-width="1.193" d="m 111.68966,39.999999 200.17241,2e-6 107.99807,111.724139 0,293.27586 c 0,14.958 -12.042,27 -27,27 l -281.17048,0 C 96.731656,472 84.689656,459.958 84.689656,445 l 0,-378.000001 c 0,-14.958 12.042,-27 27.000004,-27 z"/><path id="rect4167" fill="#000" fill-opacity=".176" fill-rule="evenodd" stroke="none" stroke-linecap="butt" stroke-linejoin="miter" stroke-opacity="1" stroke-width="1.193" d="M 419.86014,151.72414 311.86207,40.000001 l -0.002,84.724139 c -3.4e-4,14.958 12.042,27 27,27 z"/></g><path id="rect4172" fill="#000" fill-opacity=".588" fill-rule="nonzero" stroke="#0f0" stroke-dasharray="none" stroke-miterlimit="4" stroke-opacity="1" stroke-width="0" d="m 27,22.999995 0,3 -5,0 -1,0 0,1 0,2 0,1 2,0 0,14 0,1 1,0 17,0 0,-1 0,-14 2,0 0,-1 0,-3 -6,0 0,-3 -1,0 -8,0 -1,0 z m 1,1 8,0 0,2 -8,0 0,-2 z m -6,3 20,0 0,2 -19,0 -1,0 0,-2 z m 2,3 16,0 0,14 -16,0 0,-14 z m 3.039062,2 0,10 0.960938,0 0,-10 -0.960938,0 z m 2.960938,0 -0.03906,10 1,0 0.03906,-10 -1,0 z m 3,0 0,10 1,0 0,-10 -1,0 z m 2.960938,0 -0.03906,10 1.039063,0 0.03906,-10 -1.039062,0 z"/></svg>