<svg xmlns="http://www.w3.org/2000/svg" xmlns:svg="http://www.w3.org/2000/svg" id="svg2" width="64" height="64" version="1.1" viewBox="0 0 64 64"><metadata id="metadata14"/><defs id="defs12"><clipPath id="clipPath4157" clipPathUnits="userSpaceOnUse"><path id="path4159" fill="#f9f8f2" fill-opacity="1" stroke-width="1.007" d="m 27.642964,3.2951379 13.085584,13.0855841 -11.072418,0 c -0.977824,0 -2.013166,-1.035372 -2.013166,-2.013167 l 0,-11.0724171 z"/></clipPath></defs><g id="g4174" transform="matrix(0.13425926,0,0,0.13425926,-1.8702411,-2.3703705)"><path id="path4172" fill="#19b5fe" fill-opacity="1" fill-rule="evenodd" stroke="none" stroke-linecap="butt" stroke-linejoin="miter" stroke-opacity="1" stroke-width="1.193" d="m 111.68966,39.999999 200.17241,2e-6 107.99807,111.724139 0,293.27586 c 0,14.958 -12.042,27 -27,27 l -281.17048,0 C 96.731656,472 84.689656,459.958 84.689656,445 l 0,-378.000001 c 0,-14.958 12.042,-27 27.000004,-27 z"/><path id="rect4167" fill="#000" fill-opacity=".176" fill-rule="evenodd" stroke="none" stroke-linecap="butt" stroke-linejoin="miter" stroke-opacity="1" stroke-width="1.193" d="M 419.86014,151.72414 311.86207,40.000001 l -0.002,84.724139 c -3.4e-4,14.958 12.042,27 27,27 z"/></g><path id="rect4132" fill="#f7f7f7" fill-opacity="1" stroke="none" d="M 38.996094,23 27.003906,34.992188 27,34.992188 27,39 l 1,0 2,0 1.007812,0 0,-0.0039 L 43,27.003906 42.998,27.001906 43,27 39,23 38.998,23.002 38.996,23 Z m -1.998047,3.412109 2.589844,2.589844 L 32,36.589844 32,35 l -1,0 -1,0 0,-1 0,-0.589844 6.998047,-6.998047 z M 29,34.410156 29,36 l 1,0 1,0 0,1 0,0.589844 L 30.589844,38 29,38 l -1,-1 0,-1.589844 1,-1 z M 21,38 l 0,1 0,5 0,1 21,0 1,0 0,-6 0,-1 -10,0 0,1 9,0 0,5 -3,0 0,-1 -1,0 0,1 -3,0 0,-2 -1,0 0,2 -4,0 0,-1 -1,0 0,1 -3,0 0,-2 -1,0 0,2 -3,0 0,-5 4,0 0,-1 -5,0 z" opacity="1"/></svg>