<svg xmlns="http://www.w3.org/2000/svg" xmlns:svg="http://www.w3.org/2000/svg" id="svg2" width="64" height="64" version="1.1" viewBox="0 0 64 64"><metadata id="metadata14"/><defs id="defs12"><clipPath id="clipPath4157" clipPathUnits="userSpaceOnUse"><path id="path4159" fill="#f9f8f2" fill-opacity="1" stroke-width="1.007" d="m 27.642964,3.2951379 13.085584,13.0855841 -11.072418,0 c -0.977824,0 -2.013166,-1.035372 -2.013166,-2.013167 l 0,-11.0724171 z"/></clipPath></defs><g id="g4174" transform="matrix(0.13425926,0,0,0.13425926,-1.8703707,-2.3703705)"><path id="path4172" fill="#f1c40f" fill-opacity="1" fill-rule="evenodd" stroke="none" stroke-linecap="butt" stroke-linejoin="miter" stroke-opacity="1" stroke-width="1.193" d="m 111.68966,39.999999 200.17241,2e-6 107.99807,111.724139 0,293.27586 c 0,14.958 -12.042,27 -27,27 l -281.17048,0 C 96.731656,472 84.689656,459.958 84.689656,445 l 0,-378.000001 c 0,-14.958 12.042,-27 27.000004,-27 z"/><path id="rect4167" fill="#000" fill-opacity=".176" fill-rule="evenodd" stroke="none" stroke-linecap="butt" stroke-linejoin="miter" stroke-opacity="1" stroke-width="1.193" d="M 419.86014,151.72414 311.86207,40.000001 l -0.002,84.724139 c -3.4e-4,14.958 12.042,27 27,27 z"/></g><g id="g4144" fill="#fff" transform="matrix(0.24691081,0,0,0.24691081,19.654336,21.654583)"><path id="path4" fill="#fff" fill-opacity="1" d="M 50,94.55 C 31.954,94.55 17.273,79.869 17.273,61.824 17.273,44.434 46.83,7.905 48.088,6.358 48.556,5.783 49.258,5.449 50,5.449 c 0.742,0 1.444,0.334 1.912,0.909 C 53.17,7.904 82.728,44.434 82.728,61.824 82.727,79.869 68.046,94.55 50,94.55 Z"/><path id="path6" fill="#f1c40f" fill-opacity="1" d="m 52.365,81.14 c -11.955,0 -21.681,-9.726 -21.681,-21.681 0,-1.361 1.103,-2.464 2.464,-2.464 1.361,0 2.464,1.103 2.464,2.464 0,9.238 7.515,16.752 16.752,16.752 1.361,0 2.464,1.103 2.464,2.464 0,1.361 -1.102,2.465 -2.463,2.465 z"/></g></svg>