<svg xmlns="http://www.w3.org/2000/svg" xmlns:svg="http://www.w3.org/2000/svg" id="svg2" width="64" height="64" version="1.1" viewBox="0 0 64 64"><metadata id="metadata14"/><defs id="defs12"><clipPath id="clipPath4157" clipPathUnits="userSpaceOnUse"><path id="path4159" fill="#f9f8f2" fill-opacity="1" stroke-width="1.007" d="m 27.642964,3.2951379 13.085584,13.0855841 -11.072418,0 c -0.977824,0 -2.013166,-1.035372 -2.013166,-2.013167 l 0,-11.0724171 z"/></clipPath></defs><g id="g4174" transform="matrix(0.13425926,0,0,0.13425926,-1.8702411,-2.3703705)"><path id="path4172" fill="#6bb9f0" fill-opacity="1" fill-rule="evenodd" stroke="none" stroke-linecap="butt" stroke-linejoin="miter" stroke-opacity="1" stroke-width="1.193" d="m 111.68966,39.999999 200.17241,2e-6 107.99807,111.724139 0,293.27586 c 0,14.958 -12.042,27 -27,27 l -281.17048,0 C 96.731656,472 84.689656,459.958 84.689656,445 l 0,-378.000001 c 0,-14.958 12.042,-27 27.000004,-27 z"/><path id="rect4167" fill="#000" fill-opacity=".176" fill-rule="evenodd" stroke="none" stroke-linecap="butt" stroke-linejoin="miter" stroke-opacity="1" stroke-width="1.193" d="M 419.86014,151.72414 311.86207,40.000001 l -0.002,84.724139 c -3.4e-4,14.958 12.042,27 27,27 z"/></g><path id="path4166" fill="#000" fill-opacity=".588" fill-rule="evenodd" stroke="none" stroke-linecap="butt" stroke-linejoin="miter" stroke-opacity="1" stroke-width="1" d="m 30,23 0,4 4,0 0,-4 -4,0 z m 1,1 2,0 0,2 -2,0 0,-2 z m -1.664062,1.257812 -1.931641,0.517579 0.259765,0.966797 1.931641,-0.517579 -0.259765,-0.966797 z m -3,1 -1.931641,0.517579 0.259765,0.966797 1.931641,-0.517579 -0.259765,-0.966797 z M 35,26.533203 35,27.568359 41.142578,29.212891 35,30.966797 35,32 l 0,7.433594 0,1.035156 0,3.498047 L 35,45 35.029297,45 43,42.722656 l 0,-0.05664 0,-0.05469 0,-0.927734 0,-11.960938 0,-0.01172 0,-1.050782 -8,-2.126953 z M 23,27 a 1,1 0 0 0 -1,1 1,1 0 0 0 1,1 1,1 0 0 0 1,-1 1,1 0 0 0 -1,-1 z m -2,2 0,14 12,2 0,-14 -12,-2 z m 21,1.007812 0,11.302735 -6,-1.609375 0,-7.978516 6,-1.714844 z M 36,40.736328 41.322266,42.162109 36,43.681641 36,40.736328 Z"/></svg>