<svg xmlns="http://www.w3.org/2000/svg" xmlns:svg="http://www.w3.org/2000/svg" id="svg2" width="64" height="64" version="1.1" viewBox="0 0 64 64"><metadata id="metadata14"/><defs id="defs12"><clipPath id="clipPath4157" clipPathUnits="userSpaceOnUse"><path id="path4159" fill="#f9f8f2" fill-opacity="1" stroke-width="1.007" d="m 27.642964,3.2951379 13.085584,13.0855841 -11.072418,0 c -0.977824,0 -2.013166,-1.035372 -2.013166,-2.013167 l 0,-11.0724171 z"/></clipPath></defs><g id="g4174" transform="matrix(0.13425926,0,0,0.13425926,-1.8702411,-2.3703705)"><path id="path4172" fill="#9b59b6" fill-opacity="1" fill-rule="evenodd" stroke="none" stroke-linecap="butt" stroke-linejoin="miter" stroke-opacity="1" stroke-width="1.193" d="m 111.68966,39.999999 200.17241,2e-6 107.99807,111.724139 0,293.27586 c 0,14.958 -12.042,27 -27,27 l -281.17048,0 C 96.731656,472 84.689656,459.958 84.689656,445 l 0,-378.000001 c 0,-14.958 12.042,-27 27.000004,-27 z"/><path id="rect4167" fill="#000" fill-opacity=".176" fill-rule="evenodd" stroke="none" stroke-linecap="butt" stroke-linejoin="miter" stroke-opacity="1" stroke-width="1.193" d="M 419.86014,151.72414 311.86207,40.000001 l -0.002,84.724139 c -3.4e-4,14.958 12.042,27 27,27 z"/></g><path id="path88" fill="#f7f7f7" fill-opacity="1" d="m 42.330745,23.010268 a 2.7502436,12.3761 44.989453 0 0 -10.236495,7.011056 2.7502436,12.3761 44.989453 0 0 -4.871212,5.657209 c 1.479458,0.471276 2.632592,1.624712 3.103746,3.104558 a 2.7502436,12.3761 44.989453 0 0 5.655325,-4.872818 2.7502436,12.3761 44.989453 0 0 6.804647,-10.696605 2.7502436,12.3761 44.989453 0 0 -0.456524,-0.204134 M 26.499845,37.664955 C 21,39.139299 25.124884,42.621612 21,45 c 5.499845,0 8.249767,-2.752476 8.249767,-4.588071 0,-0.915047 0.0935,-2.59844 -2.749922,-2.750642"/></svg>