<svg xmlns="http://www.w3.org/2000/svg" xmlns:svg="http://www.w3.org/2000/svg" id="svg2" width="64" height="64" version="1.1" viewBox="0 0 64 64"><metadata id="metadata14"/><defs id="defs12"><clipPath id="clipPath4157" clipPathUnits="userSpaceOnUse"><path id="path4159" fill="#f9f8f2" fill-opacity="1" stroke-width="1.007" d="m 27.642964,3.2951379 13.085584,13.0855841 -11.072418,0 c -0.977824,0 -2.013166,-1.035372 -2.013166,-2.013167 l 0,-11.0724171 z"/></clipPath></defs><g id="g4174" transform="matrix(0.13425926,0,0,0.13425926,-1.8703707,-2.3703705)"><path id="path4172" fill="#006ab9" fill-opacity="1" fill-rule="evenodd" stroke="none" stroke-linecap="butt" stroke-linejoin="miter" stroke-opacity="1" stroke-width="1.193" d="m 111.68966,39.999999 200.17241,2e-6 107.99807,111.724139 0,293.27586 c 0,14.958 -12.042,27 -27,27 l -281.17048,0 C 96.731656,472 84.689656,459.958 84.689656,445 l 0,-378.000001 c 0,-14.958 12.042,-27 27.000004,-27 z"/><path id="rect4167" fill="#000" fill-opacity=".176" fill-rule="evenodd" stroke="none" stroke-linecap="butt" stroke-linejoin="miter" stroke-opacity="1" stroke-width="1.193" d="M 419.86014,151.72414 311.86207,40.000001 l -0.002,84.724139 c -3.4e-4,14.958 12.042,27 27,27 z"/></g><path id="rect4317" fill="#f7f7f7" fill-opacity="1" d="M 21 23 L 21 23.517578 L 21 24 L 21 32 L 21 33 L 31 33 L 31 32 L 31 24 L 31 23 L 30 23 L 21 23 z M 32 23 L 32 24 L 43 24 L 43 23 L 32 23 z M 22 24 L 30 24 L 30 32 L 22 32 L 22 24 z M 32 26 L 32 27 L 43 27 L 43 26 L 32 26 z M 32 29 L 32 30 L 43 30 L 43 29 L 32 29 z M 35 31.5625 L 35 32.5625 L 43 32.5625 L 43 31.5625 L 35 31.5625 z M 21 35 L 21 36 L 38 36 L 38 35 L 21 35 z M 21 38 L 21 39 L 43 39 L 43 38 L 21 38 z M 21 41 L 21 42 L 35 42 L 35 41 L 21 41 z M 21 44 L 21 45 L 40 45 L 40 44 L 21 44 z"/></svg>