<svg xmlns="http://www.w3.org/2000/svg" xmlns:svg="http://www.w3.org/2000/svg" id="svg2" width="256" height="256" version="1.1" viewBox="0 0 256 256"><defs id="defs4"><filter id="filter4301" color-interpolation-filters="sRGB"><feFlood id="feFlood4303" flood-color="#000" flood-opacity=".498" result="flood"/><feComposite id="feComposite4305" in="flood" in2="SourceGraphic" operator="in" result="composite1"/><feGaussianBlur id="feGaussianBlur4307" in="composite1" result="blur" stdDeviation="3.7"/><feOffset id="feOffset4309" dx="3.8" dy="3.7" result="offset"/><feComposite id="feComposite4311" in="SourceGraphic" in2="offset" operator="over" result="composite2"/></filter><clipPath id="clipPath4403" clipPathUnits="userSpaceOnUse"><path id="path4405" fill="#d7875f" fill-opacity="1" d="m 151.20117,796.84847 -105.78125,0 c -7.804357,0 -14.087891,6.28158 -14.087891,14.08594 l 0,227.33989 c 0,7.8043 6.283534,14.0878 14.087891,14.0878 l 165.16211,0 c 7.80436,0 14.08594,-6.2835 14.08594,-14.0878 l 0,-154.82232 -73.4668,-86.60351 z"/></clipPath><clipPath id="clipPath4632" clipPathUnits="userSpaceOnUse"><path id="path4634" fill="#f4b400" fill-opacity="1" d="m 151.20117,796.60532 -105.78125,0 c -7.804357,0 -14.087891,6.28158 -14.087891,14.08594 l 0,227.33994 c 0,7.8043 6.283534,14.0878 14.087891,14.0878 l 165.16211,0 c 7.80436,0 14.08594,-6.2835 14.08594,-14.0878 l 0,-154.82237 -73.4668,-86.60351 z" opacity=".93"/></clipPath><clipPath id="clipPath4288" clipPathUnits="userSpaceOnUse"><path id="path4290" fill="#d8d8d8" fill-opacity="1" d="m 151.20117,0.48637 -105.78125,0 c -7.804357,0 -14.087891,6.28158 -14.087891,14.08594 l 0,227.33985 c 0,7.8043 6.283534,14.0878 14.087891,14.0878 l 165.16211,0 c 7.80436,0 14.08594,-6.2835 14.08594,-14.0878 l 0,-154.82228 -73.4668,-86.60351 z"/></clipPath><clipPath id="clipPath4440" clipPathUnits="userSpaceOnUse"><path id="path4442" fill="#d8d8d8" fill-opacity="1" d="m 151.20117,0.48637 -105.78125,0 c -7.804357,0 -14.087891,6.28158 -14.087891,14.08594 l 0,227.33985 c 0,7.8043 6.283534,14.0878 14.087891,14.0878 l 165.16211,0 c 7.80436,0 14.08594,-6.2835 14.08594,-14.0878 l 0,-154.82228 -73.4668,-86.60351 z"/></clipPath><clipPath id="clipPath4985" clipPathUnits="userSpaceOnUse"><path id="path4987" fill="#d8d8d8" fill-opacity="1" d="m 151.20117,796.84851 -105.78125,0 c -7.804357,0 -14.087891,6.28158 -14.087891,14.08594 l 0,227.33985 c 0,7.8043 6.283534,14.0878 14.087891,14.0878 l 165.16211,0 c 7.80436,0 14.08594,-6.2835 14.08594,-14.0878 l 0,-154.82228 -73.4668,-86.60351 z"/></clipPath></defs><metadata id="metadata7"/><g id="layer1" transform="translate(0,-796.36214)"><path id="path4141" fill="#d8d8d8" fill-opacity="1" d="m 151.20117,796.84851 -105.78125,0 c -7.804357,0 -14.087891,6.28158 -14.087891,14.08594 l 0,227.33985 c 0,7.8043 6.283534,14.0878 14.087891,14.0878 l 165.16211,0 c 7.80436,0 14.08594,-6.2835 14.08594,-14.0878 l 0,-154.82228 -73.4668,-86.60351 z"/><path id="rect4136" fill="#eaeaea" fill-opacity="1" d="m 224.85352,883.45199 -73.4668,-86.60352 0,72.51758 c 0,7.80436 6.28158,14.08594 14.08594,14.08594 l 59.38086,0 z" filter="url(#filter4301)"/><g id="g4989" transform="translate(0,3.8854978)"><g id="g4197" fill="#7c7c7c" fill-opacity="1" stroke="#7c7c7c" stroke-opacity="1" clip-path="url(#clipPath4985)" transform="translate(0,-3.8854578)"><g id="g4244" fill="#7c7c7c" fill-opacity="1" stroke="#7c7c7c" stroke-opacity="1" transform="translate(0,796.36214)"><g id="g4246" fill="#7c7c7c" fill-opacity="1" stroke="#7c7c7c" stroke-dasharray="none" stroke-linejoin="round" stroke-miterlimit="4" stroke-opacity="1" stroke-width="12"><path id="path4248" fill="#7c7c7c" fill-opacity="1" stroke="#7c7c7c" stroke-opacity="1" d="m 128.35156,109.4707 c -14.40948,0 -27.45489,5.84067 -36.897931,15.28371 L -262.09976,478.3078 c 9.44304,-9.44304 22.48845,-15.28371 36.89793,-15.28371 z"/><path id="path4250" fill="#7c7c7c" fill-opacity="1" stroke="#7c7c7c" stroke-opacity="1" d="m 91.453629,124.75441 c -9.443038,9.44303 -15.283707,22.48844 -15.283707,36.89793 L -277.38347,515.20573 c 0,-14.40948 5.84067,-27.45489 15.28371,-36.89793 z"/><path id="path4252" fill="#7c7c7c" fill-opacity="1" stroke="#7c7c7c" stroke-opacity="1" d="m 76.169922,161.65234 c -2.7e-5,28.81899 23.362652,52.18164 52.181638,52.18164 l -353.55339,353.55339 c -28.81899,0 -52.18167,-23.36265 -52.18164,-52.18164 z"/><path id="path4254" fill="#7c7c7c" fill-opacity="1" stroke="#7c7c7c" stroke-opacity="1" d="m 128.35156,213.83398 c 12.76263,-0.38792 23.61075,-5.81565 31.8116,-14.01651 l -353.55339,353.55339 c -8.20085,8.20086 -19.04897,13.62859 -31.8116,14.01651 z"/><path id="path4256" fill="#7c7c7c" fill-opacity="1" stroke="#7c7c7c" stroke-opacity="1" d="m 160.16316,199.81747 c 27.09151,-27.09151 25.29319,-84.44635 -31.8116,-90.34677 l -353.55339,353.55339 c 57.10478,5.90042 58.90311,63.25526 31.8116,90.34677 z"/></g><path id="path4172" fill="#7c7c7c" fill-opacity="1" stroke="#7c7c7c" stroke-dasharray="none" stroke-linejoin="round" stroke-miterlimit="4" stroke-opacity="1" stroke-width="12" d="m 128.35156,109.4707 c -28.818966,0 -52.181637,23.36267 -52.181638,52.18164 -2.7e-5,28.81899 23.362652,52.18164 52.181638,52.18164 54.92396,-1.6694 74.39094,-96.67675 0,-104.36328 z"/></g></g><g id="g4202" transform="translate(-0.3510437,-3.8861482)"><circle id="circle4204" cx="128.351" cy="958.015" r="52.181" fill="none" fill-opacity="1" stroke="#fff" stroke-dasharray="none" stroke-linejoin="round" stroke-miterlimit="4" stroke-opacity="1" stroke-width="12"/><text id="text4206" x="91.365" y="990.233" fill="#fff" fill-opacity="1" stroke="#fff" stroke-linecap="butt" stroke-linejoin="miter" stroke-opacity="1" stroke-width="1.264" font-family="sans-serif" font-size="88.507" font-stretch="normal" font-style="normal" font-variant="normal" font-weight="normal" letter-spacing="0" word-spacing="0" xml:space="preserve" style="line-height:125%;-inkscape-font-specification:sans-serif"><tspan id="tspan4208" x="91.365" y="990.233" stroke-width="1.264">C</tspan></text></g></g></g></svg>