<svg xmlns="http://www.w3.org/2000/svg" xmlns:svg="http://www.w3.org/2000/svg" id="svg2" width="64" height="64" version="1.1" viewBox="0 0 64 64"><metadata id="metadata14"/><defs id="defs12"><clipPath id="clipPath4157" clipPathUnits="userSpaceOnUse"><path id="path4159" fill="#f9f8f2" fill-opacity="1" stroke-width="1.007" d="m 27.642964,3.2951379 13.085584,13.0855841 -11.072418,0 c -0.977824,0 -2.013166,-1.035372 -2.013166,-2.013167 l 0,-11.0724171 z"/></clipPath></defs><g id="g4174" transform="matrix(0.13425926,0,0,0.13425926,-1.8703707,-2.3703705)"><path id="path4172" fill="#9b59b6" fill-opacity="1" fill-rule="evenodd" stroke="none" stroke-linecap="butt" stroke-linejoin="miter" stroke-opacity="1" stroke-width="1.193" d="m 111.68966,39.999999 200.17241,2e-6 107.99807,111.724139 0,293.27586 c 0,14.958 -12.042,27 -27,27 l -281.17048,0 C 96.731656,472 84.689656,459.958 84.689656,445 l 0,-378.000001 c 0,-14.958 12.042,-27 27.000004,-27 z"/><path id="rect4167" fill="#000" fill-opacity=".176" fill-rule="evenodd" stroke="none" stroke-linecap="butt" stroke-linejoin="miter" stroke-opacity="1" stroke-width="1.193" d="M 419.86014,151.72414 311.86207,40.000001 l -0.002,84.724139 c -3.4e-4,14.958 12.042,27 27,27 z"/></g><path id="rect4185" fill="#f7f7f7" fill-opacity="1" stroke="none" stroke-opacity="1" d="m 32,23 a 11,3 0 0 0 -11,3 l 0,5 0,6 0,5 a 11,3 0 0 0 11,3 11,3 0 0 0 11,-3 l 0,-5 0,-6 0,-5 A 11,3 0 0 0 32,23 Z m 0,1 A 10,2 0 0 1 42,26 10,2 0 0 1 32,28 10,2 0 0 1 22,26 10,2 0 0 1 32,24 Z M 22,27.242188 A 11,3 0 0 0 32,29 11,3 0 0 0 42,27.242188 L 42,31 A 10,2 0 0 1 32,33 10,2 0 0 1 22,31 l 0,-3.757812 z m 0,5 A 11,3 0 0 0 32,34 11,3 0 0 0 42,32.242188 L 42,37 A 10,2 0 0 1 32,39 10,2 0 0 1 22,37 l 0,-4.757812 z m 0,6 A 11,3 0 0 0 32,40 11,3 0 0 0 42,38.242188 L 42,41 42,42 A 10,2 0 0 1 32,44 10,2 0 0 1 22,42 l 0,-1 0,-2.757812 z" opacity="1"/></svg>