<svg xmlns="http://www.w3.org/2000/svg" xmlns:svg="http://www.w3.org/2000/svg" id="svg2" width="64" height="64" version="1.1" viewBox="0 0 64 64"><metadata id="metadata14"/><defs id="defs12"><clipPath id="clipPath4157" clipPathUnits="userSpaceOnUse"><path id="path4159" fill="#f9f8f2" fill-opacity="1" stroke-width="1.007" d="m 27.642964,3.2951379 13.085584,13.0855841 -11.072418,0 c -0.977824,0 -2.013166,-1.035372 -2.013166,-2.013167 l 0,-11.0724171 z"/></clipPath></defs><g id="g4174" transform="matrix(0.13425926,0,0,0.13425926,-1.8703707,-2.3703705)"><path id="path4172" fill="#19b5fe" fill-opacity="1" fill-rule="evenodd" stroke="none" stroke-linecap="butt" stroke-linejoin="miter" stroke-opacity="1" stroke-width="1.193" d="m 111.68966,39.999999 200.17241,2e-6 107.99807,111.724139 0,293.27586 c 0,14.958 -12.042,27 -27,27 l -281.17048,0 C 96.731656,472 84.689656,459.958 84.689656,445 l 0,-378.000001 c 0,-14.958 12.042,-27 27.000004,-27 z"/><path id="rect4167" fill="#000" fill-opacity=".176" fill-rule="evenodd" stroke="none" stroke-linecap="butt" stroke-linejoin="miter" stroke-opacity="1" stroke-width="1.193" d="M 419.86014,151.72414 311.86207,40.000001 l -0.002,84.724139 c -3.4e-4,14.958 12.042,27 27,27 z"/></g><path color="#000" style="text-decoration-line:none;text-decoration-style:solid;text-decoration-color:#000;isolation:auto;mix-blend-mode:normal;solid-color:#000;solid-opacity:1" id="rect4170" fill="#f7f7f7" fill-opacity="1" fill-rule="nonzero" stroke="none" stroke-dasharray="none" stroke-dashoffset="0" stroke-linecap="butt" stroke-linejoin="miter" stroke-miterlimit="4" stroke-opacity="1" stroke-width="1" d="M 28.5,23 C 26.007,23 24,25.007 24,27.5 24,29.993 26.007,32 28.5,32 30.993,32 33,29.993 33,27.5 33,25.007 30.993,23 28.5,23 Z m 0,1 C 30.439,24 32,25.561 32,27.5 32,29.439 30.439,31 28.5,31 26.561,31 25,29.439 25,27.5 25,25.561 26.561,24 28.5,24 Z M 39,24.09961 c -1.662,0 -3,1.338 -3,3 0,1.662001 1.338,3 3,3 1.662,0 3,-1.337999 3,-3 0,-1.662 -1.338,-3 -3,-3 z m 0,1 c 1.108,0 2,0.892 2,2 0,1.108001 -0.892,2 -2,2 -1.108,0 -2,-0.891999 -2,-2 0,-1.108 0.892,-2 2,-2 z M 39,32 c -1.185799,0 -2.235553,0.521432 -2.966797,1.335938 a 9,9 0 0 1 0.703125,0.71289 C 37.285649,33.411429 38.088684,33 39,33 c 1.662,0 3,1.338 3,3 l 0,4 -3,0 a 9,9 0 0 1 -0.06055,1 L 42,41 c 0.352917,0 0.68601,0.07069 1,0.181641 L 43,41 l 0,-1 0,-4 c 0,-2.216 -1.784,-4 -4,-4 z M 28.5,33 C 24.345,33 21,36.345 21,40.5 l 0,3.5 0,1 1,0 13,0 1,0 0,-1 0,-3.5 C 36,36.345 32.655,33 28.5,33 Z m 0,1.101562 c 3.601,0 6.5,2.899001 6.5,6.5 L 35,44 22,44 22,40.601562 c 0,-3.600999 2.899,-6.5 6.5,-6.5 z" clip-rule="nonzero" color-interpolation="sRGB" color-interpolation-filters="linearRGB" color-rendering="auto" display="inline" enable-background="accumulate" image-rendering="auto" opacity="1" overflow="visible" shape-rendering="auto" text-decoration="none" text-rendering="auto" visibility="visible"/></svg>