<svg xmlns="http://www.w3.org/2000/svg" xmlns:svg="http://www.w3.org/2000/svg" id="svg2" width="64" height="64" version="1.1" viewBox="0 0 64 64"><metadata id="metadata14"/><defs id="defs12"><clipPath id="clipPath4157" clipPathUnits="userSpaceOnUse"><path id="path4159" fill="#f9f8f2" fill-opacity="1" stroke-width="1.007" d="m 27.642964,3.2951379 13.085584,13.0855841 -11.072418,0 c -0.977824,0 -2.013166,-1.035372 -2.013166,-2.013167 l 0,-11.0724171 z"/></clipPath></defs><g id="g4174" transform="matrix(0.13425926,0,0,0.13425926,-1.8702411,-2.3703705)"><path id="path4172" fill="#8575b5" fill-opacity="1" fill-rule="evenodd" stroke="none" stroke-linecap="butt" stroke-linejoin="miter" stroke-opacity="1" stroke-width="1.193" d="m 111.68966,39.999999 200.17241,2e-6 107.99807,111.724139 0,293.27586 c 0,14.958 -12.042,27 -27,27 l -281.17048,0 C 96.731656,472 84.689656,459.958 84.689656,445 l 0,-378.000001 c 0,-14.958 12.042,-27 27.000004,-27 z"/><path id="rect4167" fill="#000" fill-opacity=".176" fill-rule="evenodd" stroke="none" stroke-linecap="butt" stroke-linejoin="miter" stroke-opacity="1" stroke-width="1.193" d="M 419.86014,151.72414 311.86207,40.000001 l -0.002,84.724139 c -3.4e-4,14.958 12.042,27 27,27 z"/></g><path id="rect4274" fill="#f7f7f7" fill-opacity="1" stroke="none" d="m 21,23 0,1 0,1 22,0 0,-1 0,-1 z m 8.46875,4 0.03125,0.875 6,8.125 -6.5,8 0,1 14,0 0,-5 -1,0 c 0,1 0.259312,1.620032 -0.59375,2.21875 C 40.47102,42.87512 39.239383,43 38.15625,43 L 33,43 l 5,-7 -5,-8 2.9375,0 c 2.084094,0 5.050355,-0.192414 5.875,2.3125 C 41.95347,30.740691 41.96451,31.550399 42,32 l 1,0 0,-5 z M 21,28 l 0,1 7,0 0,-1 z m 0,3 0,1 9,0 0,-1 z m 0,3 0,1 11,0 0,-1 z m 0,3 0,1 11,0 0,-1 z m 0,3 0,1 9,0 0,-1 z m 0,3 0,1 6,0 0,-1 z" opacity="1"/></svg>