<svg xmlns="http://www.w3.org/2000/svg" xmlns:svg="http://www.w3.org/2000/svg" id="svg2" width="64" height="64" version="1.1" viewBox="0 0 64 64"><metadata id="metadata14"/><defs id="defs12"><clipPath id="clipPath4157" clipPathUnits="userSpaceOnUse"><path id="path4159" fill="#f9f8f2" fill-opacity="1" stroke-width="1.007" d="m 27.642964,3.2951379 13.085584,13.0855841 -11.072418,0 c -0.977824,0 -2.013166,-1.035372 -2.013166,-2.013167 l 0,-11.0724171 z"/></clipPath></defs><g id="g4174" transform="matrix(0.13425926,0,0,0.13425926,-1.8703707,-2.3703705)"><path id="path4172" fill="#f5ab35" fill-opacity="1" fill-rule="evenodd" stroke="none" stroke-linecap="butt" stroke-linejoin="miter" stroke-opacity="1" stroke-width="1.193" d="m 111.68966,39.999999 200.17241,2e-6 107.99807,111.724139 0,293.27586 c 0,14.958 -12.042,27 -27,27 l -281.17048,0 C 96.731656,472 84.689656,459.958 84.689656,445 l 0,-378.000001 c 0,-14.958 12.042,-27 27.000004,-27 z"/><path id="rect4167" fill="#000" fill-opacity=".176" fill-rule="evenodd" stroke="none" stroke-linecap="butt" stroke-linejoin="miter" stroke-opacity="1" stroke-width="1.193" d="M 419.86014,151.72414 311.86207,40.000001 l -0.002,84.724139 c -3.4e-4,14.958 12.042,27 27,27 z"/></g><path id="rect4270" fill="#f7f7f7" fill-opacity="1" stroke="none" d="m 30,23 c -1.662,0 -3,1.338 -3,3 l 0,2 5,0 0,1 -5,0 -2,0 c -2.216,0 -4,1.784 -4,4 l 0,2 c 0,2.216 1.784,4 4,4 l 0,-2 c 0,-1.841158 1.23819,-3.368585 2.925781,-3.837891 0.146842,-0.04084 0.29738,-0.0723 0.449219,-0.09961 C 28.57984,33.030406 28.785873,33 29,33 l 4,0 3.224609,0 C 36.70179,32.469123 37,31.773297 37,31 l 0,-5 c 0,-1.662 -1.338,-3 -3,-3 l -4,0 z m -1,2 c 0.554,0 1,0.446 1,1 0,0.554 -0.446,1 -1,1 -0.554,0 -1,-0.446 -1,-1 0,-0.554 0.446,-1 1,-1 z m 10,4 0,2 c 0,1.841158 -1.23819,3.368585 -2.925781,3.837891 -0.146842,0.04084 -0.29738,0.0723 -0.449219,0.09961 C 35.42016,34.969593 35.214127,35 35,35 l -4,0 -3.224609,0 C 27.29821,35.530877 27,36.226703 27,37 l 0,5 c 0,1.662 1.338,3 3,3 l 4,0 c 1.662,0 3,-1.338 3,-3 l 0,-2 -5,0 0,-1 5,0 2,0 c 2.216,0 4,-1.784 4,-4 l 0,-2 c 0,-2.216 -1.784,-4 -4,-4 z m -4,12 c 0.554,0 1,0.446 1,1 0,0.554 -0.446,1 -1,1 -0.554,0 -1,-0.446 -1,-1 0,-0.554 0.446,-1 1,-1 z" opacity="1"/></svg>