<svg xmlns="http://www.w3.org/2000/svg" xmlns:svg="http://www.w3.org/2000/svg" id="svg2" width="64" height="64" version="1.1" viewBox="0 0 64 64"><metadata id="metadata14"/><defs id="defs12"><clipPath id="clipPath4157" clipPathUnits="userSpaceOnUse"><path id="path4159" fill="#f9f8f2" fill-opacity="1" stroke-width="1.007" d="m 27.642964,3.2951379 13.085584,13.0855841 -11.072418,0 c -0.977824,0 -2.013166,-1.035372 -2.013166,-2.013167 l 0,-11.0724171 z"/></clipPath></defs><g id="g4174" transform="matrix(0.13425926,0,0,0.13425926,-1.8702411,-2.3703705)"><path id="path4172" fill="#9b59b6" fill-opacity="1" fill-rule="evenodd" stroke="none" stroke-linecap="butt" stroke-linejoin="miter" stroke-opacity="1" stroke-width="1.193" d="m 111.68966,39.999999 200.17241,2e-6 107.99807,111.724139 0,293.27586 c 0,14.958 -12.042,27 -27,27 l -281.17048,0 C 96.731656,472 84.689656,459.958 84.689656,445 l 0,-378.000001 c 0,-14.958 12.042,-27 27.000004,-27 z"/><path id="rect4167" fill="#000" fill-opacity=".176" fill-rule="evenodd" stroke="none" stroke-linecap="butt" stroke-linejoin="miter" stroke-opacity="1" stroke-width="1.193" d="M 419.86014,151.72414 311.86207,40.000001 l -0.002,84.724139 c -3.4e-4,14.958 12.042,27 27,27 z"/></g><path color="#000" style="text-decoration-line:none;text-decoration-style:solid;text-decoration-color:#000;white-space:normal;isolation:auto;mix-blend-mode:normal;solid-color:#000;solid-opacity:1" id="rect4232" fill="#f7f7f7" fill-opacity="1" fill-rule="nonzero" stroke="none" stroke-dasharray="none" stroke-dashoffset="0" stroke-linecap="butt" stroke-linejoin="miter" stroke-miterlimit="4" stroke-opacity="1" stroke-width="1" d="m 32,24 c -2.77,0 -5,2.23 -5,5 l 0,5 c 0,2.77 2.23,5 5,5 2.77,0 5,-2.23 5,-5 l 0,-5 c 0,-2.77 -2.23,-5 -5,-5 z m -4,4 3,0 0,1 -3,0 0,-1 z m 5,0 3,0 0,1 -3,0 0,-1 z m -5,3 3,0 0,1 -3,0 0,-1 z m 5,0 3,0 0,1 -3,0 0,-1 z m -5,3 3,0 0,1 -3,0 0,-1 z m 5,0 3,0 0,1 -3,0 0,-1 z m -7.921875,1 C 25.515375,38.072181 27.928844,40.484536 31,40.921875 L 31,42 l 0.5,0 0,2 -1.5,0 0,1 1.5,0 1,0 1.5,0 0,-1 -1.5,0 0,-2 0.5,0 0,-1.078125 C 36.071156,40.484536 38.484625,38.072181 38.921875,35 l -1.011719,0 C 37.435959,37.843774 34.982464,40 32,40 29.017536,40 26.564041,37.843774 26.089844,35 l -1.011719,0 z" clip-rule="nonzero" color-interpolation="sRGB" color-interpolation-filters="linearRGB" color-rendering="auto" display="inline" enable-background="accumulate" image-rendering="auto" opacity="1" overflow="visible" shape-rendering="auto" text-decoration="none" text-rendering="auto" visibility="visible"/></svg>