<svg xmlns="http://www.w3.org/2000/svg" xmlns:svg="http://www.w3.org/2000/svg" id="svg3022" width="48" height="48" version="1.1"><metadata id="metadata3027"/><g id="layer1" transform="translate(0,-1004.3622)"><path id="path3265" fill="none" fill-opacity="1" fill-rule="evenodd" stroke="none" d="m 27.500001,1048.8622 c 0,1.933 -1.568089,3.5001 -3.502425,3.5001 -1.934336,0 -3.502425,-1.5671 -3.502425,-3.5001 0,-1.9331 1.568089,-3.5001 3.502425,-3.5001 1.934336,0 3.502425,1.567 3.502425,3.5001 z"/><path id="path3267" fill="none" fill-opacity="1" fill-rule="evenodd" stroke="none" d="m 27.500001,1007.8622 c 0,1.933 -1.568089,3.5001 -3.502425,3.5001 -1.934336,0 -3.502425,-1.5671 -3.502425,-3.5001 0,-1.9331 1.568089,-3.5001 3.502425,-3.5001 1.934336,0 3.502425,1.567 3.502425,3.5001 z"/><path id="path3269" fill="none" fill-opacity="1" fill-rule="evenodd" stroke="none" d="m 11,1028.3622 c 0,3.0376 -2.4641401,5.5002 -5.5038109,5.5002 -3.0396708,0 -5.50381087,-2.4626 -5.50381087,-5.5002 0,-3.0377 2.46414007,-5.5002 5.50381087,-5.5002 3.0396708,0 5.5038109,2.4625 5.5038109,5.5002 z"/><path id="path3271" fill="none" fill-opacity="1" fill-rule="evenodd" stroke="none" d="m 48,1028.3622 c 0,3.0376 -2.46414,5.5002 -5.503811,5.5002 -3.039671,0 -5.503811,-2.4626 -5.503811,-5.5002 0,-3.0377 2.46414,-5.5002 5.503811,-5.5002 3.039671,0 5.503811,2.4625 5.503811,5.5002 z"/><path id="path3291" fill="#e74c3c" fill-opacity="1" stroke="none" d="M 24 7 L 24 34 L 37 41 L 37 7 L 24 7 z" transform="translate(0,1004.3622)"/><path id="rect3283" fill="#c0392b" fill-opacity="1" stroke="none" d="M 11 7 L 11 41 L 24 34 L 24 7 L 11 7 z" transform="translate(0,1004.3622)"/><path id="path3293" fill="none" fill-opacity="1" fill-rule="evenodd" stroke="none" d="m 27.500001,1048.8622 c 0,1.933 -1.568089,3.5001 -3.502425,3.5001 -1.934336,0 -3.502425,-1.5671 -3.502425,-3.5001 0,-1.9331 1.568089,-3.5001 3.502425,-3.5001 1.934336,0 3.502425,1.567 3.502425,3.5001 z"/><path id="path3295" fill="none" fill-opacity="1" fill-rule="evenodd" stroke="none" d="m 27.500001,1007.8622 c 0,1.933 -1.568089,3.5001 -3.502425,3.5001 -1.934336,0 -3.502425,-1.5671 -3.502425,-3.5001 0,-1.9331 1.568089,-3.5001 3.502425,-3.5001 1.934336,0 3.502425,1.567 3.502425,3.5001 z"/><path id="path3297" fill="none" fill-opacity="1" fill-rule="evenodd" stroke="none" d="m 11,1028.3622 c 0,3.0376 -2.4641401,5.5002 -5.5038109,5.5002 -3.0396708,0 -5.50381087,-2.4626 -5.50381087,-5.5002 0,-3.0377 2.46414007,-5.5002 5.50381087,-5.5002 3.0396708,0 5.5038109,2.4625 5.5038109,5.5002 z"/><path id="path3299" fill="none" fill-opacity="1" fill-rule="evenodd" stroke="none" d="m 48,1028.3622 c 0,3.0376 -2.46414,5.5002 -5.503811,5.5002 -3.039671,0 -5.503811,-2.4626 -5.503811,-5.5002 0,-3.0377 2.46414,-5.5002 5.503811,-5.5002 3.039671,0 5.503811,2.4625 5.503811,5.5002 z"/><path id="path3333" fill="#27ff60" fill-opacity="1" stroke="none" d="M 24 7 L 24 34 L 37 41 L 37 7 L 24 7 z" transform="translate(0,1004.3622)"/><path id="path3335" fill="#27ae60" fill-opacity="1" stroke="none" d="M 11 7 L 11 41 L 24 34 L 24 7 L 11 7 z" transform="translate(0,1004.3622)"/></g></svg>