<svg xmlns="http://www.w3.org/2000/svg" xmlns:svg="http://www.w3.org/2000/svg" id="svg3022" width="48" height="48" version="1.1"><metadata id="metadata3027"/><g id="layer1" transform="translate(0,-1004.3622)"><path id="path3265" fill="none" stroke="none" d="m 27.500001,1048.8622 c 0,1.933 -1.568089,3.5001 -3.502425,3.5001 -1.934336,0 -3.502425,-1.5671 -3.502425,-3.5001 0,-1.9331 1.568089,-3.5001 3.502425,-3.5001 1.934336,0 3.502425,1.567 3.502425,3.5001 z" transform="matrix(1,0,0,1.0444472,0,-46.77459)"/><path id="path3267" fill="none" stroke="none" d="m 27.500001,1007.8622 c 0,1.933 -1.568089,3.5001 -3.502425,3.5001 -1.934336,0 -3.502425,-1.5671 -3.502425,-3.5001 0,-1.9331 1.568089,-3.5001 3.502425,-3.5001 1.934336,0 3.502425,1.567 3.502425,3.5001 z" transform="matrix(1,0,0,1.2420366,0,-243.09243)"/><path id="path3269" fill="none" fill-opacity="1" fill-rule="evenodd" stroke="none" d="m 11,1028.3622 c 0,3.0376 -2.4641401,5.5002 -5.5038109,5.5002 -3.0396708,0 -5.50381087,-2.4626 -5.50381087,-5.5002 0,-3.0377 2.46414007,-5.5002 5.50381087,-5.5002 3.0396708,0 5.5038109,2.4625 5.5038109,5.5002 z"/><path id="path3271" fill="none" fill-opacity="1" fill-rule="evenodd" stroke="none" d="m 48,1028.3622 c 0,3.0376 -2.46414,5.5002 -5.503811,5.5002 -3.039671,0 -5.503811,-2.4626 -5.503811,-5.5002 0,-3.0377 2.46414,-5.5002 5.503811,-5.5002 3.039671,0 5.503811,2.4625 5.503811,5.5002 z"/><path id="path3293" fill="none" stroke="none" d="m 27.500001,1048.8622 c 0,1.933 -1.568089,3.5001 -3.502425,3.5001 -1.934336,0 -3.502425,-1.5671 -3.502425,-3.5001 0,-1.9331 1.568089,-3.5001 3.502425,-3.5001 1.934336,0 3.502425,1.567 3.502425,3.5001 z" transform="matrix(1,0,0,1.0444472,0,-46.77459)"/><path id="path3295" fill="none" stroke="none" d="m 27.500001,1007.8622 c 0,1.933 -1.568089,3.5001 -3.502425,3.5001 -1.934336,0 -3.502425,-1.5671 -3.502425,-3.5001 0,-1.9331 1.568089,-3.5001 3.502425,-3.5001 1.934336,0 3.502425,1.567 3.502425,3.5001 z" transform="matrix(1,0,0,1.2420366,0,-243.09243)"/><path id="path3297" fill="none" fill-opacity="1" fill-rule="evenodd" stroke="none" d="m 11,1028.3622 c 0,3.0376 -2.4641401,5.5002 -5.5038109,5.5002 -3.0396708,0 -5.50381087,-2.4626 -5.50381087,-5.5002 0,-3.0377 2.46414007,-5.5002 5.50381087,-5.5002 3.0396708,0 5.5038109,2.4625 5.5038109,5.5002 z"/><path id="path3299" fill="none" fill-opacity="1" fill-rule="evenodd" stroke="none" d="m 48,1028.3622 c 0,3.0376 -2.46414,5.5002 -5.503811,5.5002 -3.039671,0 -5.503811,-2.4626 -5.503811,-5.5002 0,-3.0377 2.46414,-5.5002 5.503811,-5.5002 3.039671,0 5.503811,2.4625 5.503811,5.5002 z"/><rect id="shape11" width="13.15" height="10.31" x="23.947" y="1011.416" fill="#278a49" fill-opacity="1" fill-rule="evenodd" stroke="#003bc3" stroke-linecap="square" stroke-linejoin="miter" stroke-miterlimit="2" stroke-width="0"/><rect id="shape21" width="13.15" height="10.31" x="23.947" y="1023.014" fill="#2980b9" fill-rule="evenodd" stroke="#003bc3" stroke-linecap="square" stroke-linejoin="miter" stroke-miterlimit="2" stroke-width="0"/><rect id="shape3" width="13.15" height="10.165" x="23.947" y="1033.639" fill="#2980b9" fill-rule="evenodd" stroke="#003bc3" stroke-linecap="square" stroke-linejoin="miter" stroke-miterlimit="2" stroke-width="0"/><rect id="rect15" width="13.129" height="10.31" x="10.86" y="1011.416" fill="#27ae60" fill-opacity="1" fill-rule="evenodd" stroke="#003bc3" stroke-linecap="square" stroke-linejoin="miter" stroke-miterlimit="2" stroke-width="0"/><rect id="rect17" width="13.129" height="10.31" x="10.86" y="1023.015" fill="#27ae60" fill-opacity="1" fill-rule="evenodd" stroke="#003bc3" stroke-linecap="square" stroke-linejoin="miter" stroke-miterlimit="2" stroke-width="0"/><rect id="shape31" width="13.129" height="10.31" x="10.86" y="1034.613" fill="#27ae60" fill-opacity="1" fill-rule="evenodd" stroke="#003bc3" stroke-linecap="square" stroke-linejoin="miter" stroke-miterlimit="2" stroke-width="0"/><rect id="shape4" width="2.096" height="6.176" x="11.766" y="1012.962" fill="#ecf0f1" fill-opacity=".875" fill-rule="evenodd" stroke="#003bc3" stroke-linecap="square" stroke-linejoin="miter" stroke-miterlimit="2" stroke-width="0"/><rect id="shape5" width="2.096" height="6.176" x="11.766" y="1024.561" fill="#ecf0f1" fill-opacity=".875" fill-rule="evenodd" stroke="#003bc3" stroke-linecap="square" stroke-linejoin="miter" stroke-miterlimit="2" stroke-width="0"/><rect id="shape6" width="2.096" height="6.176" x="11.823" y="1036.159" fill="#ecf0f1" fill-opacity=".875" fill-rule="evenodd" stroke="#003bc3" stroke-linecap="square" stroke-linejoin="miter" stroke-miterlimit="2" stroke-width="0"/><rect id="rect3003" width="24.644" height="22.374" x="18.296" y="1022.74" fill="#e6e6e6" fill-opacity="1" fill-rule="evenodd" stroke="none" stroke-width="1.2" color="#000" display="inline" enable-background="accumulate" overflow="visible" visibility="visible" style="marker:none"/><g id="g3862" transform="matrix(0.95855917,0,0,0.98594101,0.66503318,13.571836)"><g id="g3796" transform="translate(-2.4390361,-1.756106)"><g id="g3786"><path id="path3782" fill="none" stroke="#b31d1d" stroke-dasharray="none" stroke-linecap="butt" stroke-linejoin="miter" stroke-miterlimit="4" stroke-opacity="1" stroke-width=".3" d="m 23.085795,23.121208 0.87726,-1.562138 0.854174,1.531357" transform="translate(0,1004.3622)"/><path id="path3784" fill="none" stroke="#b31d1d" stroke-dasharray="none" stroke-linecap="butt" stroke-linejoin="miter" stroke-miterlimit="4" stroke-opacity="1" stroke-width=".3" d="m 24.842294,1027.4834 0.87726,-1.5621 0.854174,1.5313"/></g><g id="g3790" transform="translate(3.5504592,-0.02497449)"><path id="path3792" fill="none" stroke="#b31d1d" stroke-dasharray="none" stroke-linecap="butt" stroke-linejoin="miter" stroke-miterlimit="4" stroke-opacity="1" stroke-width=".3" d="m 23.085795,23.121208 0.87726,-1.562138 0.854174,1.531357" transform="translate(0,1004.3622)"/><path id="path3794" fill="none" stroke="#b31d1d" stroke-dasharray="none" stroke-linecap="butt" stroke-linejoin="miter" stroke-miterlimit="4" stroke-opacity="1" stroke-width=".3" d="m 24.842294,1027.4834 0.87726,-1.5621 0.854174,1.5313"/></g></g><g id="g3804" transform="translate(4.6160664,-1.8067255)"><g id="g3806"><path id="path3808" fill="none" stroke="#b31d1d" stroke-dasharray="none" stroke-linecap="butt" stroke-linejoin="miter" stroke-miterlimit="4" stroke-opacity="1" stroke-width=".3" d="m 23.085795,23.121208 0.87726,-1.562138 0.854174,1.531357" transform="translate(0,1004.3622)"/><path id="path3810" fill="none" stroke="#b31d1d" stroke-dasharray="none" stroke-linecap="butt" stroke-linejoin="miter" stroke-miterlimit="4" stroke-opacity="1" stroke-width=".3" d="m 24.842294,1027.4834 0.87726,-1.5621 0.854174,1.5313"/></g><g id="g3812" transform="translate(3.5504592,-0.02497449)"><path id="path3814" fill="none" stroke="#b31d1d" stroke-dasharray="none" stroke-linecap="butt" stroke-linejoin="miter" stroke-miterlimit="4" stroke-opacity="1" stroke-width=".3" d="m 23.085795,23.121208 0.87726,-1.562138 0.854174,1.531357" transform="translate(0,1004.3622)"/><path id="path3816" fill="none" stroke="#b31d1d" stroke-dasharray="none" stroke-linecap="butt" stroke-linejoin="miter" stroke-miterlimit="4" stroke-opacity="1" stroke-width=".3" d="m 24.842294,1027.4834 0.87726,-1.5621 0.854174,1.5313"/></g></g><g id="g3848" transform="translate(11.671792,-1.854713)"><g id="g3850"><path id="path3852" fill="none" stroke="#b31d1d" stroke-dasharray="none" stroke-linecap="butt" stroke-linejoin="miter" stroke-miterlimit="4" stroke-opacity="1" stroke-width=".3" d="m 23.085795,23.121208 0.87726,-1.562138 0.854174,1.531357" transform="translate(0,1004.3622)"/><path id="path3854" fill="none" stroke="#b31d1d" stroke-dasharray="none" stroke-linecap="butt" stroke-linejoin="miter" stroke-miterlimit="4" stroke-opacity="1" stroke-width=".3" d="m 24.842294,1027.4834 0.87726,-1.5621 0.854174,1.5313"/></g><g id="g3856" transform="translate(3.5504592,-0.02497449)"><path id="path3858" fill="none" stroke="#b31d1d" stroke-dasharray="none" stroke-linecap="butt" stroke-linejoin="miter" stroke-miterlimit="4" stroke-opacity="1" stroke-width=".3" d="m 23.085795,23.121208 0.87726,-1.562138 0.854174,1.531357" transform="translate(0,1004.3622)"/><path id="path3860" fill="none" stroke="#b31d1d" stroke-dasharray="none" stroke-linecap="butt" stroke-linejoin="miter" stroke-miterlimit="4" stroke-opacity="1" stroke-width=".3" d="m 24.842294,1027.4834 0.87726,-1.5621 0.854174,1.5313"/></g></g></g><g id="g3885" transform="matrix(0,-0.85251874,1,0,-1005.1266,1060.5369)"><g id="g3887" transform="translate(-2.4390361,-1.756106)"><g id="g3889"><path id="path3891" fill="none" stroke="#b31d1d" stroke-dasharray="none" stroke-linecap="butt" stroke-linejoin="miter" stroke-miterlimit="4" stroke-opacity="1" stroke-width=".3" d="m 23.085795,23.121208 0.87726,-1.562138 0.854174,1.531357" transform="translate(0,1004.3622)"/><path id="path3893" fill="none" stroke="#b31d1d" stroke-dasharray="none" stroke-linecap="butt" stroke-linejoin="miter" stroke-miterlimit="4" stroke-opacity="1" stroke-width=".3" d="m 24.842294,1027.4834 0.87726,-1.5621 0.854174,1.5313"/></g><g id="g3895" transform="translate(3.5504592,-0.02497449)"><path id="path3897" fill="none" stroke="#b31d1d" stroke-dasharray="none" stroke-linecap="butt" stroke-linejoin="miter" stroke-miterlimit="4" stroke-opacity="1" stroke-width=".3" d="m 23.085795,23.121208 0.87726,-1.562138 0.854174,1.531357" transform="translate(0,1004.3622)"/><path id="path3899" fill="none" stroke="#b31d1d" stroke-dasharray="none" stroke-linecap="butt" stroke-linejoin="miter" stroke-miterlimit="4" stroke-opacity="1" stroke-width=".3" d="m 24.842294,1027.4834 0.87726,-1.5621 0.854174,1.5313"/></g></g><g id="g3901" transform="translate(4.6160664,-1.8067255)"><g id="g3903"><path id="path3905" fill="none" stroke="#b31d1d" stroke-dasharray="none" stroke-linecap="butt" stroke-linejoin="miter" stroke-miterlimit="4" stroke-opacity="1" stroke-width=".3" d="m 23.085795,23.121208 0.87726,-1.562138 0.854174,1.531357" transform="translate(0,1004.3622)"/><path id="path3907" fill="none" stroke="#b31d1d" stroke-dasharray="none" stroke-linecap="butt" stroke-linejoin="miter" stroke-miterlimit="4" stroke-opacity="1" stroke-width=".3" d="m 24.842294,1027.4834 0.87726,-1.5621 0.854174,1.5313"/></g><g id="g3909" transform="translate(3.5504592,-0.02497449)"><path id="path3911" fill="none" stroke="#b31d1d" stroke-dasharray="none" stroke-linecap="butt" stroke-linejoin="miter" stroke-miterlimit="4" stroke-opacity="1" stroke-width=".3" d="m 23.085795,23.121208 0.87726,-1.562138 0.854174,1.531357" transform="translate(0,1004.3622)"/><path id="path3913" fill="none" stroke="#b31d1d" stroke-dasharray="none" stroke-linecap="butt" stroke-linejoin="miter" stroke-miterlimit="4" stroke-opacity="1" stroke-width=".3" d="m 24.842294,1027.4834 0.87726,-1.5621 0.854174,1.5313"/></g></g><g id="g3915" transform="translate(11.671792,-1.854713)"><g id="g3917"><path id="path3919" fill="none" stroke="#b31d1d" stroke-dasharray="none" stroke-linecap="butt" stroke-linejoin="miter" stroke-miterlimit="4" stroke-opacity="1" stroke-width=".3" d="m 23.085795,23.121208 0.87726,-1.562138 0.854174,1.531357" transform="translate(0,1004.3622)"/><path id="path3921" fill="none" stroke="#b31d1d" stroke-dasharray="none" stroke-linecap="butt" stroke-linejoin="miter" stroke-miterlimit="4" stroke-opacity="1" stroke-width=".3" d="m 24.842294,1027.4834 0.87726,-1.5621 0.854174,1.5313"/></g><g id="g3923" transform="translate(3.5504592,-0.02497449)"><path id="path3925" fill="none" stroke="#b31d1d" stroke-dasharray="none" stroke-linecap="butt" stroke-linejoin="miter" stroke-miterlimit="4" stroke-opacity="1" stroke-width=".3" d="m 23.085795,23.121208 0.87726,-1.562138 0.854174,1.531357" transform="translate(0,1004.3622)"/><path id="path3927" fill="none" stroke="#b31d1d" stroke-dasharray="none" stroke-linecap="butt" stroke-linejoin="miter" stroke-miterlimit="4" stroke-opacity="1" stroke-width=".3" d="m 24.842294,1027.4834 0.87726,-1.5621 0.854174,1.5313"/></g></g></g><g id="g3929" transform="matrix(0.95855917,0,0,-0.98594101,0.66503318,2054.2419)"><g id="g3931" transform="translate(-2.4390361,-1.756106)"><g id="g3933"><path id="path3935" fill="none" stroke="#b31d1d" stroke-dasharray="none" stroke-linecap="butt" stroke-linejoin="miter" stroke-miterlimit="4" stroke-opacity="1" stroke-width=".3" d="m 23.085795,23.121208 0.87726,-1.562138 0.854174,1.531357" transform="translate(0,1004.3622)"/><path id="path3937" fill="none" stroke="#b31d1d" stroke-dasharray="none" stroke-linecap="butt" stroke-linejoin="miter" stroke-miterlimit="4" stroke-opacity="1" stroke-width=".3" d="m 24.842294,1027.4834 0.87726,-1.5621 0.854174,1.5313"/></g><g id="g3939" transform="translate(3.5504592,-0.02497449)"><path id="path3941" fill="none" stroke="#b31d1d" stroke-dasharray="none" stroke-linecap="butt" stroke-linejoin="miter" stroke-miterlimit="4" stroke-opacity="1" stroke-width=".3" d="m 23.085795,23.121208 0.87726,-1.562138 0.854174,1.531357" transform="translate(0,1004.3622)"/><path id="path3943" fill="none" stroke="#b31d1d" stroke-dasharray="none" stroke-linecap="butt" stroke-linejoin="miter" stroke-miterlimit="4" stroke-opacity="1" stroke-width=".3" d="m 24.842294,1027.4834 0.87726,-1.5621 0.854174,1.5313"/></g></g><g id="g3945" transform="translate(4.6160664,-1.8067255)"><g id="g3947"><path id="path3949" fill="none" stroke="#b31d1d" stroke-dasharray="none" stroke-linecap="butt" stroke-linejoin="miter" stroke-miterlimit="4" stroke-opacity="1" stroke-width=".3" d="m 23.085795,23.121208 0.87726,-1.562138 0.854174,1.531357" transform="translate(0,1004.3622)"/><path id="path3951" fill="none" stroke="#b31d1d" stroke-dasharray="none" stroke-linecap="butt" stroke-linejoin="miter" stroke-miterlimit="4" stroke-opacity="1" stroke-width=".3" d="m 24.842294,1027.4834 0.87726,-1.5621 0.854174,1.5313"/></g><g id="g3953" transform="translate(3.5504592,-0.02497449)"><path id="path3955" fill="none" stroke="#b31d1d" stroke-dasharray="none" stroke-linecap="butt" stroke-linejoin="miter" stroke-miterlimit="4" stroke-opacity="1" stroke-width=".3" d="m 23.085795,23.121208 0.87726,-1.562138 0.854174,1.531357" transform="translate(0,1004.3622)"/><path id="path3957" fill="none" stroke="#b31d1d" stroke-dasharray="none" stroke-linecap="butt" stroke-linejoin="miter" stroke-miterlimit="4" stroke-opacity="1" stroke-width=".3" d="m 24.842294,1027.4834 0.87726,-1.5621 0.854174,1.5313"/></g></g><g id="g3959" transform="translate(11.671792,-1.854713)"><g id="g3961"><path id="path3963" fill="none" stroke="#b31d1d" stroke-dasharray="none" stroke-linecap="butt" stroke-linejoin="miter" stroke-miterlimit="4" stroke-opacity="1" stroke-width=".3" d="m 23.085795,23.121208 0.87726,-1.562138 0.854174,1.531357" transform="translate(0,1004.3622)"/><path id="path3965" fill="none" stroke="#b31d1d" stroke-dasharray="none" stroke-linecap="butt" stroke-linejoin="miter" stroke-miterlimit="4" stroke-opacity="1" stroke-width=".3" d="m 24.842294,1027.4834 0.87726,-1.5621 0.854174,1.5313"/></g><g id="g3967" transform="translate(3.5504592,-0.02497449)"><path id="path3969" fill="none" stroke="#b31d1d" stroke-dasharray="none" stroke-linecap="butt" stroke-linejoin="miter" stroke-miterlimit="4" stroke-opacity="1" stroke-width=".3" d="m 23.085795,23.121208 0.87726,-1.562138 0.854174,1.531357" transform="translate(0,1004.3622)"/><path id="path3971" fill="none" stroke="#b31d1d" stroke-dasharray="none" stroke-linecap="butt" stroke-linejoin="miter" stroke-miterlimit="4" stroke-opacity="1" stroke-width=".3" d="m 24.842294,1027.4834 0.87726,-1.5621 0.854174,1.5313"/></g></g></g><g id="g3973" transform="matrix(0,-0.8666944,-1,0,1066.3336,1060.9795)"><g id="g3975" transform="translate(-2.4390361,-1.756106)"><g id="g3977"><path id="path3979" fill="none" stroke="#b31d1d" stroke-dasharray="none" stroke-linecap="butt" stroke-linejoin="miter" stroke-miterlimit="4" stroke-opacity="1" stroke-width=".3" d="m 23.085795,23.121208 0.87726,-1.562138 0.854174,1.531357" transform="translate(0,1004.3622)"/><path id="path3981" fill="none" stroke="#b31d1d" stroke-dasharray="none" stroke-linecap="butt" stroke-linejoin="miter" stroke-miterlimit="4" stroke-opacity="1" stroke-width=".3" d="m 24.842294,1027.4834 0.87726,-1.5621 0.854174,1.5313"/></g><g id="g3983" transform="translate(3.5504592,-0.02497449)"><path id="path3985" fill="none" stroke="#b31d1d" stroke-dasharray="none" stroke-linecap="butt" stroke-linejoin="miter" stroke-miterlimit="4" stroke-opacity="1" stroke-width=".3" d="m 23.085795,23.121208 0.87726,-1.562138 0.854174,1.531357" transform="translate(0,1004.3622)"/><path id="path3987" fill="none" stroke="#b31d1d" stroke-dasharray="none" stroke-linecap="butt" stroke-linejoin="miter" stroke-miterlimit="4" stroke-opacity="1" stroke-width=".3" d="m 24.842294,1027.4834 0.87726,-1.5621 0.854174,1.5313"/></g></g><g id="g3989" transform="translate(4.6160664,-1.8067255)"><g id="g3991"><path id="path3993" fill="none" stroke="#b31d1d" stroke-dasharray="none" stroke-linecap="butt" stroke-linejoin="miter" stroke-miterlimit="4" stroke-opacity="1" stroke-width=".3" d="m 23.085795,23.121208 0.87726,-1.562138 0.854174,1.531357" transform="translate(0,1004.3622)"/><path id="path3995" fill="none" stroke="#b31d1d" stroke-dasharray="none" stroke-linecap="butt" stroke-linejoin="miter" stroke-miterlimit="4" stroke-opacity="1" stroke-width=".3" d="m 24.842294,1027.4834 0.87726,-1.5621 0.854174,1.5313"/></g><g id="g3997" transform="translate(3.5504592,-0.02497449)"><path id="path3999" fill="none" stroke="#b31d1d" stroke-dasharray="none" stroke-linecap="butt" stroke-linejoin="miter" stroke-miterlimit="4" stroke-opacity="1" stroke-width=".3" d="m 23.085795,23.121208 0.87726,-1.562138 0.854174,1.531357" transform="translate(0,1004.3622)"/><path id="path4001" fill="none" stroke="#b31d1d" stroke-dasharray="none" stroke-linecap="butt" stroke-linejoin="miter" stroke-miterlimit="4" stroke-opacity="1" stroke-width=".3" d="m 24.842294,1027.4834 0.87726,-1.5621 0.854174,1.5313"/></g></g><g id="g4003" transform="translate(11.671792,-1.854713)"><g id="g4005"><path id="path4007" fill="none" stroke="#b31d1d" stroke-dasharray="none" stroke-linecap="butt" stroke-linejoin="miter" stroke-miterlimit="4" stroke-opacity="1" stroke-width=".3" d="m 23.085795,23.121208 0.87726,-1.562138 0.854174,1.531357" transform="translate(0,1004.3622)"/><path id="path4009" fill="none" stroke="#b31d1d" stroke-dasharray="none" stroke-linecap="butt" stroke-linejoin="miter" stroke-miterlimit="4" stroke-opacity="1" stroke-width=".3" d="m 24.842294,1027.4834 0.87726,-1.5621 0.854174,1.5313"/></g><g id="g4011" transform="translate(3.5504592,-0.02497449)"><path id="path4013" fill="none" stroke="#b31d1d" stroke-dasharray="none" stroke-linecap="butt" stroke-linejoin="miter" stroke-miterlimit="4" stroke-opacity="1" stroke-width=".3" d="m 23.085795,23.121208 0.87726,-1.562138 0.854174,1.531357" transform="translate(0,1004.3622)"/><path id="path4015" fill="none" stroke="#b31d1d" stroke-dasharray="none" stroke-linecap="butt" stroke-linejoin="miter" stroke-miterlimit="4" stroke-opacity="1" stroke-width=".3" d="m 24.842294,1027.4834 0.87726,-1.5621 0.854174,1.5313"/></g></g></g><rect id="rect4017" width="10.496" height=".72" x="22.124" y="23.817" fill="#1a1a1a" stroke="none" stroke-dasharray="none" stroke-dashoffset="0" stroke-linecap="butt" stroke-linejoin="miter" stroke-miterlimit="4" stroke-opacity="1" stroke-width=".3" color="#000" display="inline" enable-background="accumulate" overflow="visible" transform="translate(0,1004.3622)" visibility="visible" style="marker:none"/><rect stroke-width=".3" style="marker:none" id="rect4019" width="6.38" height=".72" x="22.124" y="1030.18" fill="#1a1a1a" stroke="none" color="#000" display="inline" enable-background="accumulate" overflow="visible" visibility="visible"/><rect id="rect4021" width="9.056" height=".72" x="22.124" y="1032.18" fill="#1a1a1a" stroke="none" stroke-width=".3" color="#000" display="inline" enable-background="accumulate" overflow="visible" visibility="visible" style="marker:none"/><rect stroke-width=".3" style="marker:none" id="rect4023" width="11.834" height=".72" x="22.124" y="1034.18" fill="#1a1a1a" stroke="none" color="#000" display="inline" enable-background="accumulate" overflow="visible" visibility="visible"/><path id="path4025" fill="#3498db" fill-opacity="1" fill-rule="evenodd" stroke="none" stroke-width=".3" d="M 35.75 31.53125 C 33.789274 31.53125 32.21875 33.062023 32.21875 34.9375 C 32.21875 36.812977 33.789274 38.3125 35.75 38.3125 C 37.710726 38.3125 39.3125 36.812977 39.3125 34.9375 C 39.3125 33.062023 37.710726 31.53125 35.75 31.53125 z M 35.75 32.21875 C 37.312897 32.21875 38.59375 33.442555 38.59375 34.9375 C 38.59375 36.432445 37.312897 37.625 35.75 37.625 C 34.187103 37.625 32.9375 36.432445 32.9375 34.9375 C 32.9375 33.442555 34.187103 32.21875 35.75 32.21875 z" color="#000" display="inline" enable-background="accumulate" overflow="visible" transform="translate(0,1004.3622)" visibility="visible" style="marker:none"/></g></svg>