<svg xmlns="http://www.w3.org/2000/svg" xmlns:svg="http://www.w3.org/2000/svg" id="svg2" width="512" height="512" version="1.1" viewBox="0 0 512 512"><metadata id="metadata7"/><g id="layer1" transform="translate(-282.28082,-198.8612)"><g id="g4172" transform="matrix(2.460733,0,0,2.460733,-533.36734,-915.42835)"><path id="rect4151" fill="#107662" fill-opacity="1" stroke="none" d="m 65.71875,84.701172 c -4.431995,0 -8,3.568005 -8,8 l 0,9.999998 0,111 0,0.0488 c 0,4.4051 3.546075,7.95117 7.951172,7.95117 l 0.04883,0 61.999998,0 113.04883,0 c 4.40509,0 7.95117,-3.54607 7.95117,-7.95117 l 0,-111.04883 c 0,-4.405095 -3.54608,-7.95117 -7.95117,-7.95117 l -105.04883,0 0,-2.048828 c 0,-4.431995 -3.568,-8 -8,-8 l -61.999998,0 z" transform="translate(282.28082,403.66119)"/><path id="rect4166" fill="#fff" fill-opacity="1" stroke="none" d="m 347.99512,522.17497 14.81747,-14.81277 160.18741,1e-5 0,49.7153 -175.00488,0 z"/><path id="rect4169" fill="#000" fill-opacity=".137" stroke="none" d="m 362.81277,507.3622 0,14.81277 -14.81277,0 z"/><path id="rect4156" fill="#16a085" fill-opacity="1" stroke="none" d="m 144,112.88819 c -4.33969,0.0225 -7.52934,0.36085 -10.39035,3.49916 -2.86101,3.13831 -3.89047,6.50084 -8.89047,6.50084 -5,0 -59.00043,1.6e-4 -59.00043,1.6e-4 -4.432001,1e-5 -8,3.12199 -8,7 l 0,84.81282 c 0,3.87801 3.567999,7 8,7 l 71,0 103,0 1,0 c 4.432,0 8,-3.12199 8,-7 l 0,-1 0,-83.81282 0,-9 c 0,-4.43201 -4.014,-7.99999 -9,-8 z" transform="translate(282.28082,403.66119)"/></g><g id="g23" fill="#fff" fill-opacity="1" transform="matrix(7.236864,0,0,6.0387343,376.43845,335.93384)"><text font-weight="bold" style="line-height:125%" id="text25" x="13.652" y="20.142" fill="#f9f9f9" fill-opacity="1" font-family="TheMixPlain" font-size="10.509" letter-spacing="0" line-height="125%" transform="scale(0.87572745,1.1419078)" word-spacing="0" xml:space="preserve"><tspan id="tspan27" x="13.652" y="20.142" fill="#f9f9f9" fill-opacity="1" dx="0 .876">Aa</tspan></text><path id="path29" fill="#fff" fill-opacity="1" stroke="#f9f9f9" stroke-opacity="1" stroke-width="1.138" d="m 12,26.5 4,0"/><path id="path31" fill="#fff" fill-opacity="1" stroke="#f9f9f9" stroke-opacity="1" stroke-width="1.138" d="m 17,26.5 1,0"/><path id="path33" fill="#fff" fill-opacity="1" stroke="#f9f9f9" stroke-opacity="1" stroke-width="1.138" d="m 19,26.5 5,0"/><path id="path35" fill="#fff" fill-opacity="1" stroke="#f9f9f9" stroke-opacity="1" stroke-width="1.138" d="m 25,26.5 2,0"/><path id="path37" fill="#fff" fill-opacity="1" stroke="#f9f9f9" stroke-opacity="1" stroke-width="1.138" d="m 28.34629,26.5 1.086573,0"/><path id="path39" fill="#fff" fill-opacity="1" stroke="#f9f9f9" stroke-opacity="1" stroke-width="1.138" d="m 30.581768,26.5 2.145442,0"/><path id="path41" fill="#fff" fill-opacity="1" stroke="#f9f9f9" stroke-opacity="1" stroke-width="1.138" d="m 12,28.5 1,0"/><path id="path43" fill="#fff" fill-opacity="1" stroke="#f9f9f9" stroke-opacity="1" stroke-width="1.138" d="m 14,28.5 4,0"/><path id="path45" fill="#fff" fill-opacity="1" stroke="#f9f9f9" stroke-opacity="1" stroke-width="1.138" d="m 19,28.5 3,0"/><path id="path47" fill="#fff" fill-opacity="1" stroke="#f9f9f9" stroke-opacity="1" stroke-width="1.138" d="m 23,28.5 2,0"/><path id="path49" fill="#fff" fill-opacity="1" stroke="#f9f9f9" stroke-opacity="1" stroke-width="1.138" d="m 26.173145,28.5 3.259718,0"/><path id="path51" fill="#fff" fill-opacity="1" stroke="#f9f9f9" stroke-opacity="1" stroke-width="1.138" d="m 30.581768,28.5 2.145442,0"/><path id="path53" fill="#fff" fill-opacity="1" stroke="#f9f9f9" stroke-opacity="1" stroke-width="1.138" d="m 12,30.5 3,0"/><path id="path55" fill="#fff" fill-opacity="1" stroke="#f9f9f9" stroke-opacity="1" stroke-width="1.138" d="m 16,30.5 2,0"/><path id="path57" fill="#fff" fill-opacity="1" stroke="#f9f9f9" stroke-opacity="1" stroke-width="1.138" d="m 19,30.5 7,0"/><path id="path59" fill="#fff" fill-opacity="1" stroke="#f9f9f9" stroke-opacity="1" stroke-width="1.138" d="m 27.259717,30.5 1.086573,0"/><path id="path61" fill="#fff" fill-opacity="1" stroke="#f9f9f9" stroke-opacity="1" stroke-width="1.138" d="m 29.509047,30.5 3.218163,0"/><path id="path63" fill="#fff" fill-opacity="1" stroke="#f9f9f9" stroke-opacity="1" stroke-width="1.138" d="m 12,32.5 4,0"/><path id="path65" fill="#fff" fill-opacity="1" stroke="#f9f9f9" stroke-opacity="1" stroke-width="1.138" d="m 17,32.5 2,0"/><path id="path67" fill="#fff" fill-opacity="1" stroke="#f9f9f9" stroke-opacity="1" stroke-width="1.138" d="m 20,32.5 1,0"/><path id="path69" fill="#fff" fill-opacity="1" stroke="#f9f9f9" stroke-opacity="1" stroke-width="1.138" d="m 22,32.5 1,0"/><path id="path71" fill="#fff" fill-opacity="1" stroke="#f9f9f9" stroke-opacity="1" stroke-width="1.138" d="m 23.999999,32.5 4.346291,0"/><path id="path73" fill="#fff" fill-opacity="1" stroke="#f9f9f9" stroke-opacity="1" stroke-width="1.138" d="m 29.509047,32.5 3.218163,0"/><path id="path75" fill="#fff" fill-opacity="1" stroke="#f9f9f9" stroke-opacity="1" stroke-width="1.138" d="m 12,34.5 3,0"/><path id="path77" fill="#fff" fill-opacity="1" stroke="#f9f9f9" stroke-opacity="1" stroke-width="1.138" d="m 16,34.5 1,0"/><path id="path79" fill="#fff" fill-opacity="1" stroke="#f9f9f9" stroke-opacity="1" stroke-width="1.138" d="m 18,34.5 2,0"/><path id="path81" fill="#fff" fill-opacity="1" stroke="#f9f9f9" stroke-opacity="1" stroke-width="1.138" d="m 21,34.5 6,0"/><path id="path83" fill="#fff" fill-opacity="1" stroke="#f9f9f9" stroke-opacity="1" stroke-width="1.138" d="m 28.34629,34.5 2.173146,0"/><path id="path85" fill="#fff" fill-opacity="1" stroke="#f9f9f9" stroke-opacity="1" stroke-width="1.138" d="m 31.654489,34.5 1.072721,0"/><path id="path87" fill="#fff" fill-opacity="1" stroke="#f9f9f9" stroke-opacity="1" stroke-width="1.138" d="m 12,36.5 2,0"/><path id="path89" fill="#fff" fill-opacity="1" stroke="#f9f9f9" stroke-opacity="1" stroke-width="1.138" d="m 15,36.5 6,0"/><path id="path91" fill="#fff" fill-opacity="1" stroke="#f9f9f9" stroke-opacity="1" stroke-width="1.138" d="m 21.999999,36.5 5.363606,0 5.363605,0"/><path id="path93" fill="#fff" fill-opacity="1" stroke="#f9f9f9" stroke-opacity="1" stroke-width="1.138" d="m 12,38.5 3,0"/><path id="path95" fill="#fff" fill-opacity="1" stroke="#f9f9f9" stroke-opacity="1" stroke-width="1.138" d="m 16,38.5 4,0"/></g></g></svg>