<svg xmlns="http://www.w3.org/2000/svg" xmlns:svg="http://www.w3.org/2000/svg" id="svg2" width="512" height="512" version="1.1" viewBox="0 0 512 512"><metadata id="metadata7"/><g id="layer1" transform="translate(-282.28082,-198.8612)"><g id="g4172" transform="matrix(2.460733,0,0,2.460733,-533.36734,-915.42835)"><path id="rect4151" fill="#107662" fill-opacity="1" stroke="none" d="m 65.71875,84.701172 c -4.431995,0 -8,3.568005 -8,8 l 0,9.999998 0,111 0,0.0488 c 0,4.4051 3.546075,7.95117 7.951172,7.95117 l 0.04883,0 61.999998,0 113.04883,0 c 4.40509,0 7.95117,-3.54607 7.95117,-7.95117 l 0,-111.04883 c 0,-4.405095 -3.54608,-7.95117 -7.95117,-7.95117 l -105.04883,0 0,-2.048828 c 0,-4.431995 -3.568,-8 -8,-8 l -61.999998,0 z" transform="translate(282.28082,403.66119)"/><path id="rect4166" fill="#fff" fill-opacity="1" stroke="none" d="m 347.99512,522.17497 14.81747,-14.81277 160.18741,1e-5 0,49.7153 -175.00488,0 z"/><path id="rect4169" fill="#000" fill-opacity=".137" stroke="none" d="m 362.81277,507.3622 0,14.81277 -14.81277,0 z"/><path id="rect4156" fill="#16a085" fill-opacity="1" stroke="none" d="m 144,112.88819 c -4.33969,0.0225 -7.52934,0.36085 -10.39035,3.49916 -2.86101,3.13831 -3.89047,6.50084 -8.89047,6.50084 -5,0 -59.00043,1.6e-4 -59.00043,1.6e-4 -4.432001,1e-5 -8,3.12199 -8,7 l 0,84.81282 c 0,3.87801 3.567999,7 8,7 l 71,0 103,0 1,0 c 4.432,0 8,-3.12199 8,-7 l 0,-1 0,-83.81282 0,-9 c 0,-4.43201 -4.014,-7.99999 -9,-8 z" transform="translate(282.28082,403.66119)"/></g><path id="path143" fill="#fff" fill-opacity="1" fill-rule="nonzero" stroke="none" stroke-dasharray="none" stroke-dashoffset="0" stroke-linecap="butt" stroke-linejoin="miter" stroke-miterlimit="4" stroke-opacity="1" stroke-width="8.3" d="m 497.45574,421.8612 0,4.33485 0,12.14369 -17.49443,0 0,4.33485 0,24.26699 18.64495,0 0,-26.43543 63.27244,0 32.75717,32.75512 0,61.9669 18.64291,0 0,-65.82849 0,-3.86157 -43.67691,-43.67691 z m -17.49443,56.36321 0,4.33485 0,24.2833 18.64495,0 0,-28.61815 z m 0,41.61047 0,4.33484 0,12.364 -16.68049,0 0,18.62862 16.68049,0 0,16.69886 18.62863,0 0,-16.69886 16.69884,0 0,-18.62862 -16.69884,0 0,-16.69884 z m 48.3361,16.69884 0,4.33485 0,14.3101 28.61815,0 0,-18.64495 z m 39.90099,0 0,4.33485 0,14.3101 28.60183,0 0,-18.64495 z" baseline-shift="baseline" clip-rule="nonzero" color="#000" color-interpolation="sRGB" color-interpolation-filters="linearRGB" color-rendering="auto" direction="ltr" display="inline" enable-background="accumulate" font-family="Sans" font-size="medium" font-stretch="normal" font-style="normal" font-variant="normal" font-weight="normal" image-rendering="auto" letter-spacing="normal" opacity="1" overflow="visible" shape-rendering="auto" text-anchor="start" text-decoration="none" text-rendering="auto" visibility="visible" word-spacing="normal" writing-mode="lr-tb" style="line-height:normal;-inkscape-font-specification:Sans;text-indent:0;text-align:start;text-decoration-line:none;text-decoration-style:solid;text-decoration-color:#000;text-transform:none;block-progression:tb;white-space:normal;isolation:auto;mix-blend-mode:normal;solid-color:#000;solid-opacity:1;marker:none"/></g></svg>