<svg xmlns="http://www.w3.org/2000/svg" xmlns:svg="http://www.w3.org/2000/svg" id="svg2" width="512" height="512" version="1.1" viewBox="0 0 512 512"><metadata id="metadata7"/><g id="layer1" transform="translate(150.3152,-348.39298)"><g id="g4172" transform="matrix(2.460733,0,0,2.460733,-965.96336,-765.89657)"><path id="rect4151" fill="#107662" fill-opacity="1" stroke="none" d="m 65.71875,84.701172 c -4.431995,0 -8,3.568005 -8,8 l 0,9.999998 0,111 0,0.0488 c 0,4.4051 3.546075,7.95117 7.951172,7.95117 l 0.04883,0 61.999998,0 113.04883,0 c 4.40509,0 7.95117,-3.54607 7.95117,-7.95117 l 0,-111.04883 c 0,-4.405095 -3.54608,-7.95117 -7.95117,-7.95117 l -105.04883,0 0,-2.048828 c 0,-4.431995 -3.568,-8 -8,-8 l -61.999998,0 z" transform="translate(282.28082,403.66119)"/><path id="rect4166" fill="#fff" fill-opacity="1" stroke="none" d="m 347.99512,522.17497 14.81747,-14.81277 160.18741,1e-5 0,49.7153 -175.00488,0 z"/><path id="rect4169" fill="#000" fill-opacity=".137" stroke="none" d="m 362.81277,507.3622 0,14.81277 -14.81277,0 z"/><path id="rect4156" fill="#16a085" fill-opacity="1" stroke="none" d="m 144,112.88819 c -4.33969,0.0225 -7.52934,0.36085 -10.39035,3.49916 -2.86101,3.13831 -3.89047,6.50084 -8.89047,6.50084 -5,0 -59.00043,1.6e-4 -59.00043,1.6e-4 -4.432001,1e-5 -8,3.12199 -8,7 l 0,84.81282 c 0,3.87801 3.567999,7 8,7 l 71,0 103,0 1,0 c 4.432,0 8,-3.12199 8,-7 l 0,-1 0,-83.81282 0,-9 c 0,-4.43201 -4.014,-7.99999 -9,-8 z" transform="translate(282.28082,403.66119)"/></g><path id="path4150" fill="#fff" fill-opacity="1" stroke="none" d="m 105.6848,571.39298 a 17.5,17.5 0 0 0 -17.5,17.5 17.5,17.5 0 0 0 17.5,17.5 17.5,17.5 0 0 0 17.5,-17.5 17.5,17.5 0 0 0 -17.5,-17.5 z m -29.486328,17.13281 c -12.20184,6.23193 -22.123787,16.17458 -28.341797,28.38282 a 17.5,17.5 0 0 1 0.328125,-0.0156 17.5,17.5 0 0 1 9.927734,3.11133 c 4.94119,-8.89496 12.27735,-16.2296 21.173828,-21.17188 a 17.5,17.5 0 0 1 -3.101562,-9.9414 17.5,17.5 0 0 1 0.01367,-0.36524 z m 58.968748,0.0293 a 17.5,17.5 0 0 1 0.0176,0.33789 17.5,17.5 0 0 1 -3.11328,9.93164 c 8.89804,4.93853 16.23543,12.27141 21.17969,21.16406 a 17.5,17.5 0 0 1 9.93359,-3.0957 17.5,17.5 0 0 1 0.36328,0.0117 c -6.23382,-12.20103 -16.17051,-22.13212 -28.38086,-28.34961 z M 48.1848,628.89298 a 17.5,17.5 0 0 0 -17.5,17.5 17.5,17.5 0 0 0 17.5,17.5 17.5,17.5 0 0 0 17.5,-17.5 17.5,17.5 0 0 0 -17.5,-17.5 z m 115,0 a 17.5,17.5 0 0 0 -17.5,17.5 17.5,17.5 0 0 0 17.5,17.5 17.5,17.5 0 0 0 17.5,-17.5 17.5,17.5 0 0 0 -17.5,-17.5 z m -9.92773,43.88867 c -4.94068,8.89498 -12.27575,16.23187 -21.17188,21.17383 a 17.5,17.5 0 0 1 3.09961,9.9375 17.5,17.5 0 0 1 -0.0137,0.36914 c 12.20056,-6.2326 22.12355,-16.17702 28.34179,-28.38476 a 17.5,17.5 0 0 1 -0.32809,0.0156 17.5,17.5 0 0 1 -9.92773,-3.11133 z m -95.138676,0.0156 a 17.5,17.5 0 0 1 -9.933594,3.09573 17.5,17.5 0 0 1 -0.363281,-0.0117 c 6.23376,12.2007 16.170419,22.13114 28.380859,28.34766 a 17.5,17.5 0 0 1 -0.01758,-0.33596 17.5,17.5 0 0 1 3.115234,-9.93359 c -8.89836,-4.93832 -16.23697,-12.26999 -21.18164,-21.16211 z m 47.566406,13.59573 a 17.5,17.5 0 0 0 -17.5,17.5 17.5,17.5 0 0 0 17.5,17.5 17.5,17.5 0 0 0 17.5,-17.5 17.5,17.5 0 0 0 -17.5,-17.5 z"/></g></svg>