<svg xmlns="http://www.w3.org/2000/svg" xmlns:svg="http://www.w3.org/2000/svg" id="svg2" width="512" height="512" version="1.1" viewBox="0 0 512 512"><metadata id="metadata7"/><g id="layer1" transform="translate(-282.28082,-198.8612)"><g id="g4172" transform="matrix(2.460733,0,0,2.460733,-533.36734,-915.42835)"><path id="rect4151" fill="#107662" fill-opacity="1" stroke="none" d="m 65.71875,84.701172 c -4.431995,0 -8,3.568005 -8,8 l 0,9.999998 0,111 0,0.0488 c 0,4.4051 3.546075,7.95117 7.951172,7.95117 l 0.04883,0 61.999998,0 113.04883,0 c 4.40509,0 7.95117,-3.54607 7.95117,-7.95117 l 0,-111.04883 c 0,-4.405095 -3.54608,-7.95117 -7.95117,-7.95117 l -105.04883,0 0,-2.048828 c 0,-4.431995 -3.568,-8 -8,-8 l -61.999998,0 z" transform="translate(282.28082,403.66119)"/><path id="rect4166" fill="#fff" fill-opacity="1" stroke="none" d="m 347.99512,522.17497 14.81747,-14.81277 160.18741,1e-5 0,49.7153 -175.00488,0 z"/><path id="rect4169" fill="#000" fill-opacity=".137" stroke="none" d="m 362.81277,507.3622 0,14.81277 -14.81277,0 z"/><path id="rect4156" fill="#16a085" fill-opacity="1" stroke="none" d="m 144,112.88819 c -4.33969,0.0225 -7.52934,0.36085 -10.39035,3.49916 -2.86101,3.13831 -3.89047,6.50084 -8.89047,6.50084 -5,0 -59.00043,1.6e-4 -59.00043,1.6e-4 -4.432001,1e-5 -8,3.12199 -8,7 l 0,84.81282 c 0,3.87801 3.567999,7 8,7 l 71,0 103,0 1,0 c 4.432,0 8,-3.12199 8,-7 l 0,-1 0,-83.81282 0,-9 c 0,-4.43201 -4.014,-7.99999 -9,-8 z" transform="translate(282.28082,403.66119)"/></g><g id="g4146" fill="#fff" transform="matrix(7.5000121,0,0,7.5000121,13750.505,-3278.0602)"><ellipse id="path3023" cx="-1769.127" cy="502.822" fill="#fff" fill-opacity="1" fill-rule="nonzero" stroke="none" stroke-dasharray="none" stroke-linecap="butt" stroke-linejoin="miter" stroke-miterlimit="4" stroke-opacity="1" stroke-width="1.4" color="#000" display="inline" enable-background="accumulate" overflow="visible" rx="2.5" ry="2.5" visibility="visible" style="marker:none"/><ellipse id="path3023-9" cx="-1764.627" cy="510.322" fill="#fff" fill-opacity="1" fill-rule="nonzero" stroke="none" stroke-width="1.4" color="#000" display="inline" enable-background="accumulate" overflow="visible" rx="3" ry="3" visibility="visible" style="marker:none"/><ellipse id="path3023-7" cx="-1767.127" cy="494.822" fill="#fff" fill-opacity="1" fill-rule="nonzero" stroke="none" stroke-width="1.4" color="#000" display="inline" enable-background="accumulate" overflow="visible" rx="1.5" ry="1.5" visibility="visible" style="marker:none"/><path id="path3818" fill="#fff" fill-opacity="1" stroke="none" stroke-width="8" d="m -1758.6271,493.32204 -2.8438,2.84374 4.375,4.375 -4.5312,5.15625 3,2.625 7,-8 0,0 -7,-6.99999 z" baseline-shift="baseline" color="#000" direction="ltr" display="inline" enable-background="accumulate" font-family="Sans" font-size="medium" font-stretch="normal" font-style="normal" font-variant="normal" font-weight="normal" letter-spacing="normal" overflow="visible" text-anchor="start" text-decoration="none" visibility="visible" word-spacing="normal" writing-mode="lr-tb" style="line-height:normal;-inkscape-font-specification:Sans;text-indent:0;text-align:start;text-decoration-line:none;text-transform:none;block-progression:tb;marker:none"/></g></g></svg>