<svg xmlns="http://www.w3.org/2000/svg" xmlns:svg="http://www.w3.org/2000/svg" id="svg3022" width="48" height="48" version="1.1"><metadata id="metadata3027"/><g id="layer1" transform="translate(0,-1004.3622)"><path id="path3265" fill="none" fill-opacity="1" fill-rule="evenodd" stroke="none" d="m 27.500001,1048.8622 c 0,1.933 -1.568089,3.5001 -3.502425,3.5001 -1.934336,0 -3.502425,-1.5671 -3.502425,-3.5001 0,-1.9331 1.568089,-3.5001 3.502425,-3.5001 1.934336,0 3.502425,1.567 3.502425,3.5001 z"/><path id="path3267" fill="none" fill-opacity="1" fill-rule="evenodd" stroke="none" d="m 27.500001,1007.8622 c 0,1.933 -1.568089,3.5001 -3.502425,3.5001 -1.934336,0 -3.502425,-1.5671 -3.502425,-3.5001 0,-1.9331 1.568089,-3.5001 3.502425,-3.5001 1.934336,0 3.502425,1.567 3.502425,3.5001 z"/><path id="path3269" fill="none" fill-opacity="1" fill-rule="evenodd" stroke="none" d="m 11,1028.3622 c 0,3.0376 -2.4641401,5.5002 -5.5038109,5.5002 -3.0396708,0 -5.50381087,-2.4626 -5.50381087,-5.5002 0,-3.0377 2.46414007,-5.5002 5.50381087,-5.5002 3.0396708,0 5.5038109,2.4625 5.5038109,5.5002 z"/><path id="path3271" fill="none" fill-opacity="1" fill-rule="evenodd" stroke="none" d="m 48,1028.3622 c 0,3.0376 -2.46414,5.5002 -5.503811,5.5002 -3.039671,0 -5.503811,-2.4626 -5.503811,-5.5002 0,-3.0377 2.46414,-5.5002 5.503811,-5.5002 3.039671,0 5.503811,2.4625 5.503811,5.5002 z"/><path id="path3293" fill="none" fill-opacity="1" fill-rule="evenodd" stroke="none" d="m 27.500001,1048.8622 c 0,1.933 -1.568089,3.5001 -3.502425,3.5001 -1.934336,0 -3.502425,-1.5671 -3.502425,-3.5001 0,-1.9331 1.568089,-3.5001 3.502425,-3.5001 1.934336,0 3.502425,1.567 3.502425,3.5001 z"/><path id="path3295" fill="none" fill-opacity="1" fill-rule="evenodd" stroke="none" d="m 27.500001,1007.8622 c 0,1.933 -1.568089,3.5001 -3.502425,3.5001 -1.934336,0 -3.502425,-1.5671 -3.502425,-3.5001 0,-1.9331 1.568089,-3.5001 3.502425,-3.5001 1.934336,0 3.502425,1.567 3.502425,3.5001 z"/><path id="path3297" fill="none" fill-opacity="1" fill-rule="evenodd" stroke="none" d="m 11,1028.3622 c 0,3.0376 -2.4641401,5.5002 -5.5038109,5.5002 -3.0396708,0 -5.50381087,-2.4626 -5.50381087,-5.5002 0,-3.0377 2.46414007,-5.5002 5.50381087,-5.5002 3.0396708,0 5.5038109,2.4625 5.5038109,5.5002 z"/><path id="path3299" fill="none" fill-opacity="1" fill-rule="evenodd" stroke="none" d="m 48,1028.3622 c 0,3.0376 -2.46414,5.5002 -5.503811,5.5002 -3.039671,0 -5.503811,-2.4626 -5.503811,-5.5002 0,-3.0377 2.46414,-5.5002 5.503811,-5.5002 3.039671,0 5.503811,2.4625 5.503811,5.5002 z"/><g id="g3015" transform="matrix(1.686369,0,0,1.9525138,-7.7060693,972.74554)"><rect id="shape1" width="16.32" height="1.718" x="10.58" y="35.465" fill="#4d4d4d" fill-rule="evenodd" stroke="#003bc3" stroke-linecap="square" stroke-linejoin="miter" stroke-miterlimit="2" stroke-width="0"/><rect id="shape2" width="7.264" height="2.141" x="29.893" y="-19.854" fill="#4d4d4d" fill-rule="evenodd" stroke="#003bc3" stroke-linecap="square" stroke-linejoin="miter" stroke-miterlimit="2" stroke-width="0" transform="matrix(0,1,-1,0,0,0)"/><rect id="shape11" width="7.798" height="4.07" x="18.77" y="19.82" fill="#278a49" fill-opacity="1" fill-rule="evenodd" stroke="#003bc3" stroke-linecap="square" stroke-linejoin="miter" stroke-miterlimit="2" stroke-width="0"/><rect id="shape21" width="7.798" height="4.07" x="18.77" y="24.399" fill="#278a49" fill-opacity="1" fill-rule="evenodd" stroke="#003bc3" stroke-linecap="square" stroke-linejoin="miter" stroke-miterlimit="2" stroke-width="0"/><rect id="shape3" width="7.798" height="4.07" x="18.77" y="28.978" fill="#278a49" fill-opacity="1" fill-rule="evenodd" stroke="#003bc3" stroke-linecap="square" stroke-linejoin="miter" stroke-miterlimit="2" stroke-width="0"/><rect id="rect15" width="7.785" height="4.07" x="11.009" y="19.82" fill="#27ae60" fill-opacity="1" fill-rule="evenodd" stroke="#003bc3" stroke-linecap="square" stroke-linejoin="miter" stroke-miterlimit="2" stroke-width="0"/><rect id="rect17" width="7.785" height="4.07" x="11.009" y="24.399" fill="#27ae60" fill-opacity="1" fill-rule="evenodd" stroke="#003bc3" stroke-linecap="square" stroke-linejoin="miter" stroke-miterlimit="2" stroke-width="0"/><rect id="shape31" width="7.785" height="4.07" x="11.009" y="28.978" fill="#27ae60" fill-opacity="1" fill-rule="evenodd" stroke="#003bc3" stroke-linecap="square" stroke-linejoin="miter" stroke-miterlimit="2" stroke-width="0"/><rect id="shape4" width="1.243" height="2.438" x="11.547" y="20.43" fill="#ecf0f1" fill-opacity=".875" fill-rule="evenodd" stroke="#003bc3" stroke-linecap="square" stroke-linejoin="miter" stroke-miterlimit="2" stroke-width="0"/><rect id="shape5" width="1.243" height="2.438" x="11.547" y="25.01" fill="#ecf0f1" fill-opacity=".875" fill-rule="evenodd" stroke="#003bc3" stroke-linecap="square" stroke-linejoin="miter" stroke-miterlimit="2" stroke-width="0"/><rect id="shape6" width="1.243" height="2.438" x="11.581" y="29.589" fill="#ecf0f1" fill-opacity=".875" fill-rule="evenodd" stroke="#003bc3" stroke-linecap="square" stroke-linejoin="miter" stroke-miterlimit="2" stroke-width="0"/></g></g></svg>