<svg xmlns="http://www.w3.org/2000/svg" xmlns:svg="http://www.w3.org/2000/svg" id="svg3022" width="48" height="48" version="1.1"><metadata id="metadata3027"/><g id="layer1" transform="translate(0,-1004.3622)"><path id="path3265" fill="none" fill-opacity="1" fill-rule="evenodd" stroke="none" d="m 27.500001,1048.8622 c 0,1.933 -1.568089,3.5001 -3.502425,3.5001 -1.934336,0 -3.502425,-1.5671 -3.502425,-3.5001 0,-1.9331 1.568089,-3.5001 3.502425,-3.5001 1.934336,0 3.502425,1.567 3.502425,3.5001 z"/><path id="path3267" fill="none" fill-opacity="1" fill-rule="evenodd" stroke="none" d="m 27.500001,1007.8622 c 0,1.933 -1.568089,3.5001 -3.502425,3.5001 -1.934336,0 -3.502425,-1.5671 -3.502425,-3.5001 0,-1.9331 1.568089,-3.5001 3.502425,-3.5001 1.934336,0 3.502425,1.567 3.502425,3.5001 z"/><path id="path3269" fill="none" fill-opacity="1" fill-rule="evenodd" stroke="none" d="m 11,1028.3622 c 0,3.0376 -2.4641401,5.5002 -5.5038109,5.5002 -3.0396708,0 -5.50381087,-2.4626 -5.50381087,-5.5002 0,-3.0377 2.46414007,-5.5002 5.50381087,-5.5002 3.0396708,0 5.5038109,2.4625 5.5038109,5.5002 z"/><path id="path3271" fill="none" fill-opacity="1" fill-rule="evenodd" stroke="none" d="m 48,1028.3622 c 0,3.0376 -2.46414,5.5002 -5.503811,5.5002 -3.039671,0 -5.503811,-2.4626 -5.503811,-5.5002 0,-3.0377 2.46414,-5.5002 5.503811,-5.5002 3.039671,0 5.503811,2.4625 5.503811,5.5002 z"/><path id="path3293" fill="none" fill-opacity="1" fill-rule="evenodd" stroke="none" d="m 27.500001,1048.8622 c 0,1.933 -1.568089,3.5001 -3.502425,3.5001 -1.934336,0 -3.502425,-1.5671 -3.502425,-3.5001 0,-1.9331 1.568089,-3.5001 3.502425,-3.5001 1.934336,0 3.502425,1.567 3.502425,3.5001 z"/><path id="path3295" fill="none" fill-opacity="1" fill-rule="evenodd" stroke="none" d="m 27.500001,1007.8622 c 0,1.933 -1.568089,3.5001 -3.502425,3.5001 -1.934336,0 -3.502425,-1.5671 -3.502425,-3.5001 0,-1.9331 1.568089,-3.5001 3.502425,-3.5001 1.934336,0 3.502425,1.567 3.502425,3.5001 z"/><path id="path3297" fill="none" fill-opacity="1" fill-rule="evenodd" stroke="none" d="m 11,1028.3622 c 0,3.0376 -2.4641401,5.5002 -5.5038109,5.5002 -3.0396708,0 -5.50381087,-2.4626 -5.50381087,-5.5002 0,-3.0377 2.46414007,-5.5002 5.50381087,-5.5002 3.0396708,0 5.5038109,2.4625 5.5038109,5.5002 z"/><path id="path3299" fill="none" fill-opacity="1" fill-rule="evenodd" stroke="none" d="m 48,1028.3622 c 0,3.0376 -2.46414,5.5002 -5.503811,5.5002 -3.039671,0 -5.503811,-2.4626 -5.503811,-5.5002 0,-3.0377 2.46414,-5.5002 5.503811,-5.5002 3.039671,0 5.503811,2.4625 5.503811,5.5002 z"/><rect id="shape1" width="27.522" height="3.355" x="10.136" y="1041.991" fill="#4d4d4d" fill-rule="evenodd" stroke="#003bc3" stroke-linecap="square" stroke-linejoin="miter" stroke-miterlimit="2" stroke-width="0"/><rect id="shape2" width="14.183" height="3.611" x="1031.112" y="-25.776" fill="#4d4d4d" fill-rule="evenodd" stroke="#003bc3" stroke-linecap="square" stroke-linejoin="miter" stroke-miterlimit="2" stroke-width="0" transform="matrix(0,1,-1,0,0,0)"/><path id="path3076" fill="#27ae60" fill-opacity="1" fill-rule="evenodd" stroke="none" stroke-width="1.2" d="m 40.189037,18.538496 a 14.594519,11.538512 0 1 1 -29.189037,0 14.594519,11.538512 0 1 1 29.189037,0 z" color="#000" display="inline" enable-background="accumulate" overflow="visible" transform="matrix(0.88913318,0,0,1.0377543,1.2195351,1004.0979)" visibility="visible" style="marker:none"/></g></svg>