<svg xmlns="http://www.w3.org/2000/svg" xmlns:osb="http://www.openswatchbook.org/uri/2009/osb" xmlns:svg="http://www.w3.org/2000/svg" id="svg8" width="719.243" height="681.482" version="1.1" viewBox="0 0 190.3 180.309"><defs id="defs2"><linearGradient id="linearGradient848" osb:paint="solid"><stop id="stop846" offset="0" stop-color="#000" stop-opacity="1"/></linearGradient></defs><metadata id="metadata5"/><g id="layer1" transform="translate(-12.544004,-57.922972)"><path id="path21" fill="#5df" stroke="none" stroke-opacity="1" stroke-width=".262" d="M 200.14143,166.85831 A 94.831083,89.958327 11.422728 0 1 89.37279,236.25388 94.831083,89.958327 11.422728 0 1 14.235959,129.29645 94.831083,89.958327 11.422728 0 1 125.0046,59.900888 94.831083,89.958327 11.422728 0 1 200.14143,166.85831 Z"/><path id="path8217" fill="#000" fill-opacity="1" stroke="#000" stroke-linecap="butt" stroke-linejoin="miter" stroke-opacity="1" stroke-width=".337" d="m 57.426854,81.229254 4.701,31.702496 10.90744,-19.124517 12.289352,9.252977 14.478845,34.01342 20.926009,7.30825 2.9322,84.76626 10.75949,-44.37016 13.20487,24.49601 0.97814,-52.68952 26.40971,14.79004 -66.64393,-84.014943 C 107.80201,86.758918 78.110804,77.591186 77.116647,77.168424 Z"/></g></svg>