<svg xmlns="http://www.w3.org/2000/svg" xmlns:svg="http://www.w3.org/2000/svg" id="svg3022" width="48" height="48" version="1.1"><metadata id="metadata3027"/><g id="layer1" transform="translate(0,-1004.3622)"><path id="path3265" fill="none" fill-opacity="1" fill-rule="evenodd" stroke="none" d="m 27.500001,1048.8622 a 3.502425,3.5001078 0 1 1 0,0 3.502425,3.5001078 0 1 1 0,0 z"/><path id="path3267" fill="none" fill-opacity="1" fill-rule="evenodd" stroke="none" d="m 27.500001,1007.8622 a 3.502425,3.5001078 0 1 1 0,0 3.502425,3.5001078 0 1 1 0,0 z"/><path id="path3269" fill="none" fill-opacity="1" fill-rule="evenodd" stroke="none" d="m 11,1028.3622 a 5.5038109,5.5001693 0 1 1 0,0 5.5038109,5.5001693 0 1 1 0,0 z"/><path id="path3271" fill="none" fill-opacity="1" fill-rule="evenodd" stroke="none" d="m 48,1028.3622 a 5.5038109,5.5001693 0 1 1 0,0 5.5038109,5.5001693 0 1 1 0,0 z"/><path id="path3291" fill="#e74c3c" fill-opacity="1" stroke="none" d="M 24 7 L 24 34 L 37 41 L 37 7 L 24 7 z" transform="translate(0,1004.3622)"/><path id="rect3283" fill="#c0392b" fill-opacity="1" stroke="none" d="M 11 7 L 11 41 L 24 34 L 24 7 L 11 7 z" transform="translate(0,1004.3622)"/><path id="path3293" fill="none" fill-opacity="1" fill-rule="evenodd" stroke="none" d="m 27.500001,1048.8622 a 3.502425,3.5001078 0 1 1 0,0 3.502425,3.5001078 0 1 1 0,0 z"/><path id="path3295" fill="none" fill-opacity="1" fill-rule="evenodd" stroke="none" d="m 27.500001,1007.8622 a 3.502425,3.5001078 0 1 1 0,0 3.502425,3.5001078 0 1 1 0,0 z"/><path id="path3297" fill="none" fill-opacity="1" fill-rule="evenodd" stroke="none" d="m 11,1028.3622 a 5.5038109,5.5001693 0 1 1 0,0 5.5038109,5.5001693 0 1 1 0,0 z"/><path id="path3299" fill="none" fill-opacity="1" fill-rule="evenodd" stroke="none" d="m 48,1028.3622 a 5.5038109,5.5001693 0 1 1 0,0 5.5038109,5.5001693 0 1 1 0,0 z"/><path id="path3333" fill="#e74c3c" fill-opacity="1" stroke="none" d="M 24 7 L 24 34 L 37 41 L 37 7 L 24 7 z" transform="translate(0,1004.3622)"/><path id="path3335" fill="#c0392b" fill-opacity="1" stroke="none" d="M 11 7 L 11 41 L 24 34 L 24 7 L 11 7 z" transform="translate(0,1004.3622)"/></g></svg>